<?xml version="1.0" encoding="UTF-8" standalone="no"?>
<!DOCTYPE svg PUBLIC "-//W3C//DTD SVG 1.1//EN" "http://www.w3.org/Graphics/SVG/1.1/DTD/svg11.dtd">
<svg version="1.1" xmlns="http://www.w3.org/2000/svg" xmlns:xlink="http://www.w3.org/1999/xlink" preserveAspectRatio="xMidYMid meet" viewBox="0 0 640 640" width="640" height="640"><defs><path d="M498.57 315.41C498.57 413.96 416.73 493.98 315.92 493.98C215.11 493.98 133.27 413.96 133.27 315.41C133.27 216.85 215.11 136.84 315.92 136.84C416.73 136.84 498.57 216.85 498.57 315.41Z" id="b2dbcY5V35"></path><path d="M529.73 216.95C566.02 301.47 523.99 400.79 435.93 438.6C347.88 476.4 246.93 438.47 210.64 353.94C174.35 269.41 216.37 170.09 304.43 132.29C392.49 94.49 493.44 132.42 529.73 216.95Z" id="a1ZncdvQht"></path><path d="M270.41 89.67C271.03 85.66 274.79 82.91 278.8 83.52C299.07 86.64 352.61 94.89 372.87 98.01C376.89 98.62 379.64 102.38 379.02 106.39C377.69 115.03 374.83 133.66 373.5 142.29C372.88 146.3 369.12 149.06 365.11 148.44C344.84 145.32 291.3 137.08 271.04 133.96C267.02 133.34 264.27 129.58 264.89 125.57C266.22 116.94 269.08 98.31 270.41 89.67Z" id="b51Fhw5sHy"></path><path d="M405.83 390.43C405.62 386.37 408.73 382.91 412.79 382.7C433.27 381.62 487.36 378.78 507.84 377.7C511.89 377.49 515.35 380.6 515.57 384.66C516.03 393.38 517.02 412.2 517.47 420.93C517.69 424.98 514.57 428.44 510.52 428.66C490.04 429.73 435.95 432.58 415.47 433.66C411.41 433.87 407.95 430.75 407.74 426.7C407.28 417.98 406.29 399.15 405.83 390.43Z" id="bNwBRJRIF"></path><path d="M354.78 142.43C352.99 127.72 363.46 114.33 378.17 112.54C410.36 108.61 480.28 100.07 512.47 96.14C527.18 94.34 540.57 104.81 542.37 119.53C548.8 172.2 564.84 303.57 571.27 356.24C573.06 370.96 562.59 384.34 547.88 386.14C515.69 390.07 445.77 398.6 413.58 402.53C398.87 404.33 385.48 393.86 383.68 379.15C377.25 326.47 361.21 195.1 354.78 142.43Z" id="hsp7DnchI"></path></defs><g><g><g><use xlink:href="#b2dbcY5V35" opacity="1" fill="#dddddd" fill-opacity="1"></use><g><use xlink:href="#b2dbcY5V35" opacity="1" fill-opacity="0" stroke="#888888" stroke-width="6" stroke-opacity="1"></use></g></g><g><use xlink:href="#a1ZncdvQht" opacity="1" fill="#fefefe" fill-opacity="1"></use><g><use xlink:href="#a1ZncdvQht" opacity="1" fill-opacity="0" stroke="#888888" stroke-width="6" stroke-opacity="1"></use></g></g><g><use xlink:href="#b51Fhw5sHy" opacity="1" fill="#ffffff" fill-opacity="1"></use></g><g><use xlink:href="#bNwBRJRIF" opacity="1" fill="#ffffff" fill-opacity="1"></use></g><g><use xlink:href="#hsp7DnchI" opacity="1" fill="#ffffff" fill-opacity="1"></use></g></g></g></svg>