<?xml version="1.0" encoding="UTF-8" standalone="no"?>
<!DOCTYPE svg PUBLIC "-//W3C//DTD SVG 1.1//EN" "http://www.w3.org/Graphics/SVG/1.1/DTD/svg11.dtd">
<svg version="1.1" xmlns="http://www.w3.org/2000/svg" xmlns:xlink="http://www.w3.org/1999/xlink" preserveAspectRatio="xMidYMid meet" viewBox="0 0 640 640" width="640" height="640"><defs><path d="M444.24 317.82C444.24 383.94 390.67 437.62 324.7 437.62C258.72 437.62 205.15 383.94 205.15 317.82C205.15 251.7 258.72 198.02 324.7 198.02C390.67 198.02 444.24 251.7 444.24 317.82Z" id="c77A3ul1e9"></path><path d="M435.33 317.82C435.33 379.02 385.76 428.71 324.7 428.71C263.63 428.71 214.06 379.02 214.06 317.82C214.06 256.62 263.63 206.93 324.7 206.93C385.76 206.93 435.33 256.62 435.33 317.82Z" id="b1m059suwI"></path><path d="M324.7 48.04C326.88 48.04 328.66 49.81 328.66 52C328.66 79.38 328.66 157.58 328.66 184.96C328.66 187.15 326.88 188.92 324.7 188.92C323.9 188.92 325.49 188.92 324.7 188.92C322.51 188.92 320.73 187.15 320.73 184.96C320.73 157.58 320.73 79.38 320.73 52C320.73 49.81 322.51 48.04 324.7 48.04C325.49 48.04 323.9 48.04 324.7 48.04Z" id="m5Orz79zS"></path><path d="M328.66 454.55C330.84 454.55 332.62 456.33 332.62 458.51C332.62 490.79 332.62 583.66 332.62 615.94C332.62 618.13 330.84 619.9 328.66 619.9C327.86 619.9 329.45 619.9 328.66 619.9C326.47 619.9 324.7 618.13 324.7 615.94C324.7 583.66 324.7 490.79 324.7 458.51C324.7 456.33 326.47 454.55 328.66 454.55C329.45 454.55 327.86 454.55 328.66 454.55Z" id="c1hOP1hWMF"></path><path d="M457.61 317.86C457.61 315.67 459.38 313.9 461.57 313.9C493.84 313.88 586.72 313.84 618.99 313.83C621.18 313.83 622.95 315.6 622.95 317.79C622.96 318.58 622.95 316.99 622.95 317.79C622.96 319.97 621.18 321.75 619 321.75C586.72 321.76 493.85 321.8 461.57 321.82C459.38 321.82 457.61 320.05 457.61 317.86C457.61 317.07 457.61 318.65 457.61 317.86Z" id="aSnpZO4oB"></path><path d="M27.01 320.04C27.01 317.85 28.79 316.08 30.97 316.07C63.25 316.06 156.12 316.02 188.4 316C190.59 316 192.36 317.78 192.36 319.96C192.36 320.76 192.36 319.17 192.36 319.96C192.36 322.15 190.59 323.92 188.4 323.93C156.12 323.94 63.25 323.98 30.98 324C28.79 324 27.02 322.22 27.01 320.04C27.01 319.24 27.01 320.83 27.01 320.04Z" id="cTrY5EMSY"></path><path d="M227 419.67C228.65 421.11 228.82 423.61 227.37 425.25C206.12 449.54 144.96 519.43 123.7 543.72C122.26 545.37 119.76 545.54 118.12 544.1C117.52 543.58 118.71 544.62 118.12 544.1C116.47 542.66 116.3 540.15 117.74 538.51C139 514.22 200.16 444.33 221.41 420.04C222.85 418.39 225.36 418.23 227 419.67C227.6 420.19 226.41 419.14 227 419.67Z" id="bX0aDrRAb"></path><path d="M531.06 102.93C532.71 104.37 532.87 106.88 531.43 108.52C510.18 132.81 449.02 202.7 427.76 226.99C426.32 228.64 423.82 228.8 422.17 227.36C421.58 226.84 422.77 227.89 422.17 227.36C420.53 225.92 420.36 223.42 421.8 221.78C443.06 197.49 504.22 127.6 525.47 103.31C526.91 101.66 529.42 101.49 531.06 102.93C531.66 103.45 530.47 102.41 531.06 102.93Z" id="a8kMLHptU"></path><path d="M118.12 102.93C116.47 104.37 116.3 106.88 117.74 108.52C139 132.81 200.16 202.7 221.41 226.99C222.85 228.64 225.36 228.8 227 227.36C227.6 226.84 226.41 227.89 227 227.36C228.65 225.92 228.82 223.42 227.37 221.78C206.12 197.49 144.96 127.6 123.7 103.31C122.26 101.66 119.76 101.49 118.12 102.93C117.52 103.45 118.71 102.41 118.12 102.93Z" id="c2rkgEfrGZ"></path><path d="M434.06 408.97C432.41 410.41 432.24 412.91 433.68 414.56C454.94 438.85 516.1 508.74 537.35 533.03C538.79 534.68 541.3 534.84 542.94 533.4C543.54 532.88 542.35 533.93 542.94 533.4C544.59 531.96 544.76 529.46 543.32 527.82C522.06 503.53 460.9 433.63 439.64 409.34C438.2 407.7 435.7 407.53 434.06 408.97C433.46 409.49 434.65 408.45 434.06 408.97Z" id="a3c35DCfTU"></path><path d="M236.08 110.87C237.44 110.31 238.99 110.95 239.55 112.3C245.97 127.81 264.24 171.9 270.66 187.41C271.22 188.76 270.58 190.31 269.23 190.87C268.67 191.1 269.46 190.78 268.91 191C267.56 191.56 266 190.92 265.44 189.57C259.02 174.06 240.76 129.97 234.33 114.46C233.77 113.11 234.41 111.56 235.76 111C236.32 110.77 235.53 111.09 236.08 110.87Z" id="e6WPmhsLG"></path><path d="M386.04 441.81C387.39 441.25 388.95 441.89 389.51 443.25C395.93 458.76 414.19 502.84 420.62 518.35C421.18 519.71 420.54 521.26 419.19 521.82C418.63 522.05 419.42 521.72 418.87 521.95C417.51 522.51 415.96 521.87 415.4 520.52C408.98 505 390.71 460.92 384.29 445.41C383.73 444.06 384.37 442.5 385.72 441.94C386.28 441.71 385.49 442.04 386.04 441.81Z" id="etugnmIak"></path><path d="M268.91 449.57C267.56 449.01 266 449.65 265.44 451C259.02 466.51 240.76 510.6 234.33 526.11C233.77 527.46 234.41 529.01 235.76 529.57C236.32 529.8 235.53 529.48 236.08 529.71C237.44 530.27 238.99 529.62 239.55 528.27C245.97 512.76 264.24 468.67 270.66 453.16C271.22 451.81 270.58 450.26 269.23 449.7C268.67 449.47 269.46 449.8 268.91 449.57Z" id="b2ulRJ2H4"></path><path d="M412.38 117.68C411.02 117.12 409.47 117.76 408.91 119.11C402.49 134.62 384.23 178.71 377.8 194.22C377.24 195.57 377.88 197.12 379.23 197.68C379.79 197.91 379 197.59 379.55 197.82C380.91 198.38 382.46 197.74 383.02 196.38C389.44 180.87 407.71 136.79 414.13 121.27C414.69 119.92 414.05 118.37 412.7 117.81C412.14 117.58 412.93 117.91 412.38 117.68Z" id="a4fxQRyd7D"></path><path d="M532 227.07C531.36 225.76 529.77 225.21 528.46 225.85C513.35 233.17 470.41 253.98 455.3 261.3C453.98 261.94 453.43 263.53 454.07 264.84C454.33 265.38 453.96 264.62 454.22 265.16C454.86 266.47 456.44 267.02 457.76 266.39C472.87 259.06 515.81 238.25 530.92 230.93C532.24 230.29 532.79 228.7 532.15 227.39C531.89 226.85 532.26 227.61 532 227.07Z" id="afo2VJlho"></path><path d="M194.96 374.63C194.32 373.31 192.73 372.76 191.42 373.4C176.31 380.72 133.37 401.53 118.26 408.85C116.94 409.49 116.39 411.08 117.03 412.4C117.29 412.93 116.92 412.17 117.18 412.71C117.82 414.02 119.4 414.57 120.72 413.94C135.83 406.61 178.77 385.8 193.88 378.48C195.2 377.84 195.75 376.25 195.11 374.94C194.85 374.4 195.22 375.17 194.96 374.63Z" id="bOli5e1ut"></path><path d="M117.18 229.84C117.82 228.52 119.4 227.97 120.72 228.61C135.83 235.93 178.77 256.74 193.88 264.07C195.2 264.71 195.75 266.29 195.11 267.61C194.85 268.15 195.22 267.38 194.96 267.92C194.32 269.24 192.73 269.79 191.42 269.15C176.31 261.83 133.37 241.02 118.26 233.69C116.94 233.05 116.39 231.47 117.03 230.15C117.29 229.61 116.92 230.38 117.18 229.84Z" id="b2DbCmdpG"></path><path d="M454.22 371.27C454.86 369.95 456.44 369.4 457.76 370.04C472.87 377.36 515.81 398.17 530.92 405.5C532.24 406.13 532.79 407.72 532.15 409.04C531.89 409.58 532.26 408.81 532 409.35C531.36 410.67 529.77 411.22 528.46 410.58C513.35 403.26 470.41 382.44 455.3 375.12C453.98 374.48 453.43 372.9 454.07 371.58C454.33 371.04 453.96 371.81 454.22 371.27Z" id="dVqDXVvhR"></path></defs><g><g><g><use xlink:href="#c77A3ul1e9" opacity="1" fill="#888888" fill-opacity="1"></use></g><g><use xlink:href="#b1m059suwI" opacity="1" fill="#d7d7d7" fill-opacity="1"></use></g><g><use xlink:href="#m5Orz79zS" opacity="1" fill="#868383" fill-opacity="1"></use></g><g><use xlink:href="#c1hOP1hWMF" opacity="1" fill="#868383" fill-opacity="1"></use></g><g><use xlink:href="#aSnpZO4oB" opacity="1" fill="#868383" fill-opacity="1"></use></g><g><use xlink:href="#cTrY5EMSY" opacity="1" fill="#868383" fill-opacity="1"></use></g><g><use xlink:href="#bX0aDrRAb" opacity="1" fill="#868383" fill-opacity="1"></use></g><g><use xlink:href="#a8kMLHptU" opacity="1" fill="#868383" fill-opacity="1"></use></g><g><use xlink:href="#c2rkgEfrGZ" opacity="1" fill="#868383" fill-opacity="1"></use></g><g><use xlink:href="#a3c35DCfTU" opacity="1" fill="#868383" fill-opacity="1"></use></g><g><use xlink:href="#e6WPmhsLG" opacity="1" fill="#868383" fill-opacity="1"></use></g><g><use xlink:href="#etugnmIak" opacity="1" fill="#868383" fill-opacity="1"></use></g><g><use xlink:href="#b2ulRJ2H4" opacity="1" fill="#868383" fill-opacity="1"></use></g><g><use xlink:href="#a4fxQRyd7D" opacity="1" fill="#868383" fill-opacity="1"></use></g><g><use xlink:href="#afo2VJlho" opacity="1" fill="#868383" fill-opacity="1"></use></g><g><use xlink:href="#bOli5e1ut" opacity="1" fill="#868383" fill-opacity="1"></use></g><g><use xlink:href="#b2DbCmdpG" opacity="1" fill="#868383" fill-opacity="1"></use></g><g><use xlink:href="#dVqDXVvhR" opacity="1" fill="#868383" fill-opacity="1"></use></g></g></g></svg>