<?xml version="1.0" encoding="UTF-8" standalone="no"?>
<!DOCTYPE svg PUBLIC "-//W3C//DTD SVG 1.1//EN" "http://www.w3.org/Graphics/SVG/1.1/DTD/svg11.dtd">
<svg version="1.1" xmlns="http://www.w3.org/2000/svg" xmlns:xlink="http://www.w3.org/1999/xlink" preserveAspectRatio="xMidYMid meet" viewBox="0 0 640 640" width="640" height="640"><defs><path d="M373.68 102.18C421.6 102.22 460.43 136.28 460.4 178.27C460.39 179.85 460.34 181.43 460.22 182.98C494.83 189.39 520.27 210.79 520.25 236.19C520.25 236.19 520.25 236.19 520.25 236.19C520.22 266.63 483.66 291.27 438.58 291.24C418.1 291.22 254.3 291.09 233.83 291.07C188.75 291.04 152.22 266.33 152.25 235.9C152.25 235.9 152.25 235.9 152.25 235.9C152.27 209.36 180.06 187.23 217.05 182.02C220.39 153.26 248.14 130.82 281.85 130.85C289.26 130.86 296.37 131.95 303 133.95C318.78 114.7 344.55 102.16 373.68 102.18Z" id="e7BKzR8Pt"></path><path d="M235.98 164.21C275.96 164.24 308.35 195.61 308.32 234.27C308.32 235.73 308.28 237.18 308.17 238.61C337.05 244.51 358.26 264.22 358.25 287.61C358.25 287.61 358.25 287.61 358.25 287.61C358.22 315.64 327.72 338.34 290.11 338.31C273.03 338.3 136.38 338.19 119.3 338.17C81.7 338.14 51.23 315.4 51.25 287.37C51.25 287.37 51.25 287.37 51.25 287.37C51.27 262.93 74.46 242.55 105.32 237.75C108.1 211.25 131.25 190.59 159.38 190.62C165.56 190.62 171.49 191.63 177.02 193.46C190.18 175.74 211.69 164.19 235.98 164.21Z" id="c2lrKjr0U"></path><path d="M469.98 199.21C509.96 199.24 542.35 230.61 542.32 269.27C542.32 270.73 542.28 272.18 542.17 273.61C571.05 279.51 592.26 299.22 592.25 322.61C592.25 322.61 592.25 322.61 592.25 322.61C592.22 350.64 561.72 373.34 524.11 373.31C507.03 373.3 370.38 373.19 353.3 373.17C315.7 373.14 285.23 350.4 285.25 322.37C285.25 322.37 285.25 322.37 285.25 322.37C285.27 297.93 308.46 277.55 339.32 272.75C342.1 246.25 365.25 225.59 393.38 225.62C399.56 225.62 405.49 226.63 411.02 228.46C424.18 210.74 445.69 199.19 469.98 199.21Z" id="dheF84cip"></path></defs><g><g><g><use xlink:href="#e7BKzR8Pt" opacity="1" fill="#e7e7e7" fill-opacity="1"></use><g><use xlink:href="#e7BKzR8Pt" opacity="1" fill-opacity="0" stroke="#7b7b7b" stroke-width="5" stroke-opacity="1"></use></g></g><g><use xlink:href="#c2lrKjr0U" opacity="1" fill="#e7e7e7" fill-opacity="1"></use><g><use xlink:href="#c2lrKjr0U" opacity="1" fill-opacity="0" stroke="#7b7b7b" stroke-width="5" stroke-opacity="1"></use></g></g><g><use xlink:href="#dheF84cip" opacity="1" fill="#e7e7e7" fill-opacity="1"></use><g><use xlink:href="#dheF84cip" opacity="1" fill-opacity="0" stroke="#7b7b7b" stroke-width="5" stroke-opacity="1"></use></g></g></g></g></svg>