<?xml version="1.0" encoding="UTF-8" standalone="no"?>
<!DOCTYPE svg PUBLIC "-//W3C//DTD SVG 1.1//EN" "http://www.w3.org/Graphics/SVG/1.1/DTD/svg11.dtd">
<svg version="1.1" xmlns="http://www.w3.org/2000/svg" xmlns:xlink="http://www.w3.org/1999/xlink" preserveAspectRatio="xMidYMid meet" viewBox="0 0 640 640" width="640" height="640"><defs><path d="M366.21 234.73C367.03 234.73 367.71 235.4 367.71 236.23C367.71 236.53 367.71 235.93 367.71 236.23C367.71 237.06 367.03 237.73 366.21 237.73C311.31 237.73 148.11 237.73 93.21 237.73C92.38 237.73 91.71 237.06 91.71 236.23C91.71 235.93 91.71 236.53 91.71 236.23C91.71 235.4 92.38 234.73 93.21 234.73C148.11 234.73 311.31 234.73 366.21 234.73Z" id="jGXQKZeiO"></path><path d="M484.21 262.73C485.03 262.73 485.71 263.4 485.71 264.23C485.71 264.53 485.71 263.93 485.71 264.23C485.71 265.06 485.03 265.73 484.21 265.73C429.31 265.73 266.11 265.73 211.21 265.73C210.38 265.73 209.71 265.06 209.71 264.23C209.71 263.93 209.71 264.53 209.71 264.23C209.71 263.4 210.38 262.73 211.21 262.73C266.11 262.73 429.31 262.73 484.21 262.73Z" id="c1AsTnsTFd"></path><path d="M328.21 294.73C329.03 294.73 329.71 295.4 329.71 296.23C329.71 296.53 329.71 295.93 329.71 296.23C329.71 297.06 329.03 297.73 328.21 297.73C273.31 297.73 110.11 297.73 55.21 297.73C54.38 297.73 53.71 297.06 53.71 296.23C53.71 295.93 53.71 296.53 53.71 296.23C53.71 295.4 54.38 294.73 55.21 294.73C110.11 294.73 273.31 294.73 328.21 294.73Z" id="ajrN4FDxl"></path><path d="M506.45 322.73C507.14 322.73 507.71 323.29 507.71 323.99C507.71 324.34 507.71 324.13 507.71 324.48C507.71 325.17 507.14 325.73 506.45 325.73C460.5 325.73 323.91 325.73 277.96 325.73C277.27 325.73 276.71 325.17 276.71 324.48C276.71 324.13 276.71 324.34 276.71 323.99C276.71 323.29 277.27 322.73 277.96 322.73C323.91 322.73 460.5 322.73 506.45 322.73Z" id="azGE3jkTL"></path><path d="M358.45 339.73C359.14 339.73 359.71 340.29 359.71 340.99C359.71 341.34 359.71 341.13 359.71 341.48C359.71 342.17 359.14 342.73 358.45 342.73C312.5 342.73 175.91 342.73 129.96 342.73C129.27 342.73 128.71 342.17 128.71 341.48C128.71 341.13 128.71 341.34 128.71 340.99C128.71 340.29 129.27 339.73 129.96 339.73C175.91 339.73 312.5 339.73 358.45 339.73Z" id="aPttbdK9J"></path><path d="M286.45 372.73C287.14 372.73 287.71 373.29 287.71 373.99C287.71 374.34 287.71 374.13 287.71 374.48C287.71 375.17 287.14 375.73 286.45 375.73C240.5 375.73 103.91 375.73 57.96 375.73C57.27 375.73 56.71 375.17 56.71 374.48C56.71 374.13 56.71 374.34 56.71 373.99C56.71 373.29 57.27 372.73 57.96 372.73C103.91 372.73 240.5 372.73 286.45 372.73Z" id="bf7cKwNib"></path><path d="M466.45 403.73C467.14 403.73 467.71 404.29 467.71 404.99C467.71 405.34 467.71 405.13 467.71 405.48C467.71 406.17 467.14 406.73 466.45 406.73C420.5 406.73 283.91 406.73 237.96 406.73C237.27 406.73 236.71 406.17 236.71 405.48C236.71 405.13 236.71 405.34 236.71 404.99C236.71 404.29 237.27 403.73 237.96 403.73C283.91 403.73 420.5 403.73 466.45 403.73Z" id="a8aAcExk0"></path></defs><g><g><g><use xlink:href="#jGXQKZeiO" opacity="1" fill="#888888" fill-opacity="1"></use><g><use xlink:href="#jGXQKZeiO" opacity="1" fill-opacity="0" stroke="#888888" stroke-width="2" stroke-opacity="1"></use></g></g><g><use xlink:href="#c1AsTnsTFd" opacity="1" fill="#888888" fill-opacity="1"></use><g><use xlink:href="#c1AsTnsTFd" opacity="1" fill-opacity="0" stroke="#888888" stroke-width="2" stroke-opacity="1"></use></g></g><g><use xlink:href="#ajrN4FDxl" opacity="1" fill="#888888" fill-opacity="1"></use><g><use xlink:href="#ajrN4FDxl" opacity="1" fill-opacity="0" stroke="#888888" stroke-width="2" stroke-opacity="1"></use></g></g><g><use xlink:href="#azGE3jkTL" opacity="1" fill="#888888" fill-opacity="1"></use><g><use xlink:href="#azGE3jkTL" opacity="1" fill-opacity="0" stroke="#888888" stroke-width="2" stroke-opacity="1"></use></g></g><g><use xlink:href="#aPttbdK9J" opacity="1" fill="#888888" fill-opacity="1"></use><g><use xlink:href="#aPttbdK9J" opacity="1" fill-opacity="0" stroke="#888888" stroke-width="2" stroke-opacity="1"></use></g></g><g><use xlink:href="#bf7cKwNib" opacity="1" fill="#888888" fill-opacity="1"></use><g><use xlink:href="#bf7cKwNib" opacity="1" fill-opacity="0" stroke="#888888" stroke-width="2" stroke-opacity="1"></use></g></g><g><use xlink:href="#a8aAcExk0" opacity="1" fill="#888888" fill-opacity="1"></use><g><use xlink:href="#a8aAcExk0" opacity="1" fill-opacity="0" stroke="#888888" stroke-width="2" stroke-opacity="1"></use></g></g></g></g></svg>