<?xml version="1.0" encoding="UTF-8" standalone="no"?>
<!DOCTYPE svg PUBLIC "-//W3C//DTD SVG 1.1//EN" "http://www.w3.org/Graphics/SVG/1.1/DTD/svg11.dtd">
<svg version="1.1" xmlns="http://www.w3.org/2000/svg" xmlns:xlink="http://www.w3.org/1999/xlink" preserveAspectRatio="xMidYMid meet" viewBox="0 0 640 640" width="640" height="640"><defs><path d="M325.99 213.97L328.93 214.26L331.84 214.67L334.71 215.19L337.54 215.82L340.33 216.55L343.07 217.39L345.77 218.33L348.41 219.37L351.01 220.51L353.55 221.74L356.03 223.07L358.45 224.49L360.81 225.99L363.11 227.58L365.34 229.25L367.51 231.01L369.6 232.84L371.62 234.75L373.56 236.74L375.43 238.8L377.21 240.92L378.92 243.12L380.53 245.38L382.06 247.7L383.5 250.08L384.85 252.52L386.11 255.02L387.26 257.57L388.32 260.17L389.28 262.82L390.13 265.52L390.88 268.26L391.52 271.04L392.04 273.87L392.46 276.73L392.76 279.62L392.94 282.55L393 285.51L392.94 288.47L392.76 291.4L392.46 294.32L392.04 297.21L391.52 300.09L390.88 302.96L390.13 305.82L389.28 308.68L388.32 311.54L387.26 314.39L386.11 317.26L384.85 320.13L383.5 323.01L382.06 325.91L380.53 328.83L378.92 331.77L377.21 334.73L375.43 337.73L373.56 340.76L371.62 343.82L369.6 346.92L367.51 350.07L365.34 353.25L363.11 356.49L360.81 359.79L358.45 363.13L356.03 366.54L353.55 370.01L351.01 373.54L348.41 377.15L345.77 380.82L343.07 384.58L340.33 388.41L337.54 392.32L334.71 396.32L331.84 400.41L328.93 404.59L325.99 408.87L323.01 413.25L320 417.73L316.99 413.25L314.01 408.87L311.07 404.59L308.16 400.41L305.29 396.32L302.46 392.32L299.67 388.41L296.93 384.58L294.23 380.82L291.59 377.15L288.99 373.54L286.45 370.01L283.97 366.54L281.55 363.13L279.19 359.79L276.89 356.49L274.66 353.25L272.49 350.07L270.4 346.92L268.38 343.82L266.44 340.76L264.57 337.73L262.79 334.73L261.08 331.77L259.47 328.83L257.94 325.91L256.5 323.01L255.15 320.13L253.89 317.26L252.74 314.39L251.68 311.54L250.72 308.68L249.87 305.82L249.12 302.96L248.48 300.09L247.96 297.21L247.54 294.32L247.24 291.4L247.06 288.47L247 285.51L247.06 282.55L247.24 279.62L247.54 276.73L247.96 273.87L248.48 271.04L249.12 268.26L249.87 265.52L250.72 262.82L251.68 260.17L252.74 257.57L253.89 255.02L255.15 252.52L256.5 250.08L257.94 247.7L259.47 245.38L261.08 243.12L262.79 240.92L264.57 238.8L266.44 236.74L268.38 234.75L270.4 232.84L272.49 231.01L274.66 229.25L276.89 227.58L279.19 225.99L281.55 224.49L283.97 223.07L286.45 221.74L288.99 220.51L291.59 219.37L294.23 218.33L296.93 217.39L299.67 216.55L302.46 215.82L305.29 215.19L308.16 214.67L311.07 214.26L314.01 213.97L316.99 213.79L320 213.73L323.01 213.79L325.99 213.97ZM317.16 247.84L315.77 247.98L314.39 248.18L313.03 248.42L311.69 248.72L310.37 249.07L309.07 249.46L307.79 249.91L306.54 250.4L305.31 250.94L304.11 251.53L302.93 252.15L301.79 252.83L300.67 253.54L299.58 254.29L298.52 255.08L297.5 255.92L296.51 256.78L295.55 257.69L294.63 258.63L293.74 259.6L292.9 260.61L292.09 261.65L291.33 262.72L290.6 263.82L289.92 264.95L289.28 266.11L288.69 267.29L288.14 268.5L287.64 269.73L287.18 270.98L286.78 272.26L286.43 273.56L286.12 274.88L285.87 276.22L285.68 277.57L285.54 278.94L285.45 280.33L285.42 281.73L285.45 283.13L285.54 284.52L285.68 285.89L285.87 287.25L286.12 288.58L286.43 289.9L286.78 291.2L287.18 292.48L287.64 293.73L288.14 294.97L288.69 296.17L289.28 297.36L289.92 298.51L290.6 299.64L291.33 300.74L292.09 301.81L292.9 302.85L293.74 303.86L294.63 304.83L295.55 305.77L296.51 306.68L297.5 307.55L298.52 308.38L299.58 309.17L300.67 309.92L301.79 310.64L302.93 311.31L304.11 311.94L305.31 312.52L306.54 313.06L307.79 313.55L309.07 314L310.37 314.4L311.69 314.74L313.03 315.04L314.39 315.29L315.77 315.48L317.16 315.62L318.57 315.7L320 315.73L321.43 315.7L322.84 315.62L324.23 315.48L325.61 315.29L326.97 315.04L328.31 314.74L329.63 314.4L330.93 314L332.21 313.55L333.46 313.06L334.69 312.52L335.89 311.94L337.07 311.31L338.21 310.64L339.33 309.92L340.42 309.17L341.48 308.38L342.5 307.55L343.49 306.68L344.45 305.77L345.37 304.83L346.26 303.86L347.1 302.85L347.91 301.81L348.67 300.74L349.4 299.64L350.08 298.51L350.72 297.36L351.31 296.17L351.86 294.97L352.36 293.73L352.82 292.48L353.22 291.2L353.57 289.9L353.88 288.58L354.13 287.25L354.32 285.89L354.46 284.52L354.55 283.13L354.58 281.73L354.55 280.33L354.46 278.94L354.32 277.57L354.13 276.22L353.88 274.88L353.57 273.56L353.22 272.26L352.82 270.98L352.36 269.73L351.86 268.5L351.31 267.29L350.72 266.11L350.08 264.95L349.4 263.82L348.67 262.72L347.91 261.65L347.1 260.61L346.26 259.6L345.37 258.63L344.45 257.69L343.49 256.78L342.5 255.92L341.48 255.08L340.42 254.29L339.33 253.54L338.21 252.83L337.07 252.15L335.89 251.53L334.69 250.94L333.46 250.4L332.21 249.91L330.93 249.46L329.63 249.07L328.31 248.72L326.97 248.42L325.61 248.18L324.23 247.98L322.84 247.84L321.43 247.76L320 247.73L318.57 247.76L317.16 247.84Z" id="dvYRE7fT6"></path></defs><g><g><g><use xlink:href="#dvYRE7fT6" opacity="1" fill="#888888" fill-opacity="1"></use><g><use xlink:href="#dvYRE7fT6" opacity="1" fill-opacity="0" stroke="#545454" stroke-width="2" stroke-opacity="1"></use></g></g></g></g></svg>