<?xml version="1.0" encoding="UTF-8" standalone="no"?>
<!DOCTYPE svg PUBLIC "-//W3C//DTD SVG 1.1//EN" "http://www.w3.org/Graphics/SVG/1.1/DTD/svg11.dtd">
<svg version="1.1" xmlns="http://www.w3.org/2000/svg" xmlns:xlink="http://www.w3.org/1999/xlink" preserveAspectRatio="xMidYMid meet" viewBox="0 0 640 640" width="640" height="640"><defs><path d="M236.78 83.49C251.2 85.6 289.28 91.19 303.69 93.3C306.54 93.71 308.5 96.26 308.06 98.97C307.11 104.82 305.08 117.43 304.13 123.27C303.69 125.99 301.02 127.86 298.17 127.44C283.75 125.32 245.67 119.75 231.26 117.63C228.4 117.22 226.44 114.67 226.88 111.96C227.83 106.11 229.86 93.5 230.81 87.66C231.25 84.94 233.93 83.08 236.78 83.49Z" id="e3MNIUlTsc"></path><path d="M332.08 286C346.64 285.27 385.12 283.35 399.68 282.62C402.56 282.48 405.02 284.58 405.18 287.33C405.51 293.23 406.21 305.97 406.53 311.88C406.69 314.62 404.47 316.96 401.59 317.11C387.02 317.84 348.55 319.77 333.98 320.5C331.1 320.64 328.64 318.53 328.49 315.79C328.16 309.88 327.46 297.14 327.13 291.24C326.98 288.49 329.19 286.15 332.08 286Z" id="a1W1a6MAh"></path><path d="M307.45 103.14C330.35 100.48 380.08 94.7 402.98 92.03C413.44 90.82 422.96 97.9 424.24 107.87C428.82 143.52 440.22 232.44 444.8 268.09C446.07 278.06 438.62 287.11 428.16 288.33C405.27 290.99 355.54 296.77 332.64 299.43C322.18 300.64 312.65 293.56 311.37 283.6C306.8 247.94 295.39 159.02 290.82 123.37C289.55 113.41 296.99 104.35 307.45 103.14Z" id="bwCy6AaD"></path><path d="M444.51 267.14C444.51 333.6 388.72 387.55 320 387.55C251.28 387.55 195.49 333.6 195.49 267.14C195.49 200.69 251.28 146.73 320 146.73C388.72 146.73 444.51 200.69 444.51 267.14Z" id="b3Wq4yQ7VL"></path><path d="M465.08 201.84C507.2 201.84 541.35 235.28 541.35 276.53C541.35 278.08 541.31 279.64 541.2 281.16C571.63 287.43 594 308.44 594 333.4C594 333.4 594 333.4 594 333.4C594 363.31 561.88 387.55 522.25 387.55C504.26 387.55 360.28 387.55 342.28 387.55C302.66 387.55 270.53 363.31 270.53 333.4C270.53 333.4 270.53 333.4 270.53 333.4C270.53 307.32 294.95 285.56 327.46 280.41C330.37 252.14 354.75 230.08 384.38 230.08C390.89 230.08 397.14 231.15 402.98 233.1C416.83 214.18 439.48 201.84 465.08 201.84Z" id="e3o5vEoeQe"></path><path d="M232.01 187.55C274.14 187.55 308.29 220.99 308.29 262.24C308.29 263.8 308.25 265.35 308.14 266.87C338.57 273.15 360.94 294.16 360.94 319.11C360.94 319.11 360.94 319.11 360.94 319.11C360.94 349.02 328.82 373.27 289.19 373.27C271.2 373.27 127.22 373.27 109.22 373.27C69.6 373.27 37.47 349.02 37.47 319.11C37.47 319.11 37.47 319.11 37.47 319.11C37.47 293.04 61.89 271.27 94.4 266.13C97.31 237.86 121.68 215.79 151.32 215.79C157.83 215.79 164.08 216.86 169.92 218.82C183.77 199.89 206.42 187.55 232.01 187.55Z" id="d1TtrNZZH"></path><path d="M204.72 145.24L217.06 146.96L208.14 155.33L210.24 167.14L199.21 161.56L188.17 167.14L190.28 155.33L181.35 146.96L193.69 145.24L199.21 134.49L204.72 145.24Z" id="a6DEUETPSu"></path><path d="M461.46 157.48L473.8 159.21L464.87 167.57L466.98 179.39L455.94 173.81L444.91 179.39L447.01 167.57L438.08 159.21L450.42 157.48L455.94 146.73L461.46 157.48Z" id="a61C7wci96"></path><path d="M414.11 99.89L426.45 101.61L417.52 109.98L419.63 121.79L408.59 116.21L397.56 121.79L399.67 109.98L390.74 101.61L403.08 99.89L408.59 89.14L414.11 99.89Z" id="b5AaADi8EN"></path><path d="M240.44 398.3L252.78 400.02L243.85 408.39L245.96 420.2L234.92 414.63L223.88 420.2L225.99 408.39L217.06 400.02L229.4 398.3L234.92 387.55L240.44 398.3Z" id="c14CjvCN3o"></path></defs><g><g><g><use xlink:href="#e3MNIUlTsc" opacity="1" fill="#ffffff" fill-opacity="1"></use><g><use xlink:href="#e3MNIUlTsc" opacity="1" fill-opacity="0" stroke="#000000" stroke-width="1" stroke-opacity="0"></use></g></g><g><use xlink:href="#a1W1a6MAh" opacity="1" fill="#ffffff" fill-opacity="1"></use><g><use xlink:href="#a1W1a6MAh" opacity="1" fill-opacity="0" stroke="#000000" stroke-width="1" stroke-opacity="0"></use></g></g><g><use xlink:href="#bwCy6AaD" opacity="1" fill="#ffffff" fill-opacity="1"></use><g><use xlink:href="#bwCy6AaD" opacity="1" fill-opacity="0" stroke="#000000" stroke-width="1" stroke-opacity="0"></use></g></g><g><use xlink:href="#b3Wq4yQ7VL" opacity="1" fill="#eaeaea" fill-opacity="1"></use><g><use xlink:href="#b3Wq4yQ7VL" opacity="1" fill-opacity="0" stroke="#888888" stroke-width="3" stroke-opacity="1"></use></g></g><g><use xlink:href="#e3o5vEoeQe" opacity="1" fill="#cbc9c9" fill-opacity="1"></use><g><use xlink:href="#e3o5vEoeQe" opacity="1" fill-opacity="0" stroke="#888888" stroke-width="3" stroke-opacity="1"></use></g></g><g><use xlink:href="#d1TtrNZZH" opacity="1" fill="#cbc9c9" fill-opacity="1"></use><g><use xlink:href="#d1TtrNZZH" opacity="1" fill-opacity="0" stroke="#888888" stroke-width="3" stroke-opacity="1"></use></g></g><g><use xlink:href="#a6DEUETPSu" opacity="1" fill="#cbc9c9" fill-opacity="1"></use><g><use xlink:href="#a6DEUETPSu" opacity="1" fill-opacity="0" stroke="#888888" stroke-width="2" stroke-opacity="1"></use></g></g><g><use xlink:href="#a61C7wci96" opacity="1" fill="#cbc9c9" fill-opacity="1"></use><g><use xlink:href="#a61C7wci96" opacity="1" fill-opacity="0" stroke="#888888" stroke-width="2" stroke-opacity="1"></use></g></g><g><use xlink:href="#b5AaADi8EN" opacity="1" fill="#cbc9c9" fill-opacity="1"></use><g><use xlink:href="#b5AaADi8EN" opacity="1" fill-opacity="0" stroke="#888888" stroke-width="2" stroke-opacity="1"></use></g></g><g><use xlink:href="#c14CjvCN3o" opacity="1" fill="#cbc9c9" fill-opacity="1"></use><g><use xlink:href="#c14CjvCN3o" opacity="1" fill-opacity="0" stroke="#888888" stroke-width="2" stroke-opacity="1"></use></g></g></g></g></svg>