<?xml version="1.0" encoding="UTF-8" standalone="no"?>
<!DOCTYPE svg PUBLIC "-//W3C//DTD SVG 1.1//EN" "http://www.w3.org/Graphics/SVG/1.1/DTD/svg11.dtd">
<svg version="1.1" xmlns="http://www.w3.org/2000/svg" xmlns:xlink="http://www.w3.org/1999/xlink" preserveAspectRatio="xMidYMid meet" viewBox="0 0 640 640" width="640" height="640"><defs><path d="M469 263.74C469 319.76 422.62 365.24 365.5 365.24C308.38 365.24 262 319.76 262 263.74C262 207.72 308.38 162.24 365.5 162.24C422.62 162.24 469 207.72 469 263.74Z" id="b1iN2SACNC"></path><path d="M186.7 99.14C187.42 98.22 188.75 98.05 189.67 98.77C210.08 114.72 269.66 161.25 290.08 177.2C291 177.92 291.16 179.25 290.44 180.17C290.18 180.51 290.71 179.84 290.44 180.17C289.72 181.1 288.39 181.26 287.47 180.54C267.06 164.59 207.48 118.06 187.06 102.11C186.14 101.39 185.98 100.06 186.7 99.14C186.96 98.8 186.44 99.47 186.7 99.14Z" id="ac3KaYVe9"></path><path d="M254.38 193.18C302.3 193.22 341.14 227.28 341.1 269.27C341.1 270.85 341.05 272.43 340.93 273.98C375.54 280.39 400.97 301.79 400.95 327.19C400.95 327.19 400.95 327.19 400.95 327.19C400.93 357.63 364.37 382.27 319.28 382.24C298.81 382.22 135.01 382.09 114.54 382.07C69.46 382.04 32.93 357.33 32.95 326.9C32.95 326.9 32.95 326.9 32.95 326.9C32.98 300.36 60.77 278.23 97.76 273.02C101.1 244.26 128.84 221.82 162.56 221.85C169.97 221.86 177.07 222.95 183.71 224.95C199.49 205.7 225.26 193.16 254.38 193.18Z" id="bpp7gSzkV"></path><path d="M440.7 346.14C441.42 345.22 442.75 345.05 443.67 345.77C464.08 361.72 523.66 408.25 544.08 424.2C545 424.92 545.16 426.25 544.44 427.17C544.18 427.51 544.71 426.84 544.44 427.17C543.72 428.1 542.39 428.26 541.47 427.54C521.06 411.59 461.48 365.06 441.06 349.11C440.14 348.39 439.98 347.06 440.7 346.14C440.96 345.8 440.44 346.47 440.7 346.14Z" id="a6yFE2HwDR"></path><path d="M552.15 99.14C551.43 98.22 550.1 98.05 549.18 98.77C528.76 114.72 469.18 161.25 448.77 177.2C447.85 177.92 447.68 179.25 448.4 180.17C448.66 180.51 448.14 179.84 448.4 180.17C449.12 181.1 450.45 181.26 451.37 180.54C471.79 164.59 531.37 118.06 551.79 102.11C552.71 101.39 552.87 100.06 552.15 99.14C551.89 98.8 552.41 99.47 552.15 99.14Z" id="a1jLcRcDXd"></path><path d="M362.98 21.83C361.81 21.84 360.86 22.79 360.87 23.96C360.95 49.86 361.18 125.46 361.26 151.37C361.27 152.54 362.22 153.48 363.39 153.48C363.81 153.48 362.97 153.48 363.39 153.48C364.56 153.47 365.5 152.52 365.5 151.35C365.42 125.45 365.18 49.85 365.1 23.95C365.1 22.78 364.15 21.83 362.98 21.83C362.56 21.84 363.4 21.83 362.98 21.83Z" id="e2PN9j6qdr"></path><path d="M384.98 376.83C383.81 376.84 382.86 377.79 382.87 378.96C382.95 404.86 383.18 480.46 383.26 506.37C383.27 507.54 384.22 508.48 385.39 508.48C385.81 508.48 384.97 508.48 385.39 508.48C386.56 508.47 387.5 507.52 387.5 506.35C387.42 480.45 387.18 404.85 387.1 378.95C387.1 377.78 386.15 376.83 384.98 376.83C384.56 376.84 385.4 376.83 384.98 376.83Z" id="icAPJYT1Q"></path><path d="M289.2 382.44C288.42 382 287.43 382.29 286.99 383.07C278.16 398.87 252.45 444.87 243.62 460.67C243.18 461.46 243.46 462.45 244.25 462.88C244.7 463.14 244.65 463.11 245.1 463.36C245.89 463.8 246.88 463.52 247.32 462.74C256.15 446.93 281.85 400.94 290.69 385.14C291.13 384.35 290.84 383.36 290.06 382.92C289.61 382.67 289.66 382.7 289.2 382.44Z" id="a1A1fUUpb8"></path><path d="M610.72 256.74C610.72 255.57 609.78 254.62 608.61 254.61C582.7 254.48 507.11 254.11 481.2 253.98C480.03 253.98 479.08 254.92 479.07 256.09C479.07 256.51 479.07 255.66 479.07 256.09C479.07 257.26 480.01 258.21 481.18 258.22C507.08 258.34 582.68 258.72 608.59 258.85C609.76 258.85 610.71 257.91 610.72 256.74C610.72 256.32 610.71 257.16 610.72 256.74Z" id="a1PxvRa2ex"></path></defs><g><g><g><use xlink:href="#b1iN2SACNC" opacity="1" fill="#f3f1f1" fill-opacity="1"></use><g><use xlink:href="#b1iN2SACNC" opacity="1" fill-opacity="0" stroke="#8c8989" stroke-width="4" stroke-opacity="1"></use></g></g><g><use xlink:href="#ac3KaYVe9" opacity="1" fill="#888888" fill-opacity="1"></use></g><g><use xlink:href="#bpp7gSzkV" opacity="1" fill="#e7e7e7" fill-opacity="1"></use><g><use xlink:href="#bpp7gSzkV" opacity="1" fill-opacity="0" stroke="#7b7b7b" stroke-width="5" stroke-opacity="1"></use></g></g><g><use xlink:href="#a6yFE2HwDR" opacity="1" fill="#888888" fill-opacity="1"></use></g><g><use xlink:href="#a1jLcRcDXd" opacity="1" fill="#888888" fill-opacity="1"></use></g><g><use xlink:href="#e2PN9j6qdr" opacity="1" fill="#888888" fill-opacity="1"></use></g><g><use xlink:href="#icAPJYT1Q" opacity="1" fill="#888888" fill-opacity="1"></use></g><g><use xlink:href="#a1A1fUUpb8" opacity="1" fill="#888888" fill-opacity="1"></use></g><g><use xlink:href="#a1PxvRa2ex" opacity="1" fill="#888888" fill-opacity="1"></use></g></g></g></svg>