<?xml version="1.0" encoding="UTF-8" standalone="no"?>
<!DOCTYPE svg PUBLIC "-//W3C//DTD SVG 1.1//EN" "http://www.w3.org/Graphics/SVG/1.1/DTD/svg11.dtd">
<svg version="1.1" xmlns="http://www.w3.org/2000/svg" xmlns:xlink="http://www.w3.org/1999/xlink" preserveAspectRatio="xMidYMid meet" viewBox="0 0 640 640" width="640" height="640"><defs><path d="M290.25 73.18C335.7 73.21 372.53 107.28 372.49 149.26C372.49 150.84 372.44 152.42 372.32 153.97C405.15 160.38 429.27 181.78 429.25 207.18C429.25 207.18 429.25 207.18 429.25 207.18C429.23 237.62 394.55 262.26 351.79 262.23C332.38 262.21 177.03 262.09 157.62 262.07C114.87 262.04 80.23 237.34 80.25 206.9C80.25 206.9 80.25 206.9 80.25 206.9C80.27 180.37 106.63 158.24 141.71 153.03C144.88 124.26 171.19 101.82 203.17 101.85C210.19 101.86 216.93 102.95 223.23 104.94C238.19 85.69 262.63 73.16 290.25 73.18Z" id="f14aw6iIDi"></path><path d="M433.59 57.15C473.7 57.19 506.2 89.99 506.16 130.43C506.16 131.95 506.12 133.47 506.01 134.96C534.98 141.14 556.27 161.75 556.25 186.21C556.25 186.21 556.25 186.21 556.25 186.21C556.23 215.53 525.62 239.27 487.89 239.24C470.75 239.22 333.66 239.11 316.52 239.1C278.8 239.07 248.23 215.28 248.25 185.97C248.25 185.97 248.25 185.97 248.25 185.97C248.27 160.41 271.54 139.09 302.5 134.07C305.29 106.36 328.52 84.75 356.73 84.77C362.94 84.78 368.88 85.83 374.44 87.75C387.64 69.21 409.22 57.13 433.59 57.15Z" id="e5prTSpWD"></path><path d="M109.5 269C110.33 269 111 269.67 111 270.5C111 280.4 111 308.6 111 318.5C111 319.33 110.33 320 109.5 320C109.2 320 109.8 320 109.5 320C108.67 320 108 319.33 108 318.5C108 308.6 108 280.4 108 270.5C108 269.67 108.67 269 109.5 269C109.8 269 109.2 269 109.5 269Z" id="c15J9WIAJ7"></path><path d="M130.5 320C131.33 320 132 320.67 132 321.5C132 331.4 132 359.6 132 369.5C132 370.33 131.33 371 130.5 371C130.2 371 130.8 371 130.5 371C129.67 371 129 370.33 129 369.5C129 359.6 129 331.4 129 321.5C129 320.67 129.67 320 130.5 320C130.8 320 130.2 320 130.5 320Z" id="g3iG5sNQ3Z"></path><path d="M171.5 273C172.33 273 173 273.67 173 274.5C173 285 173 315 173 325.5C173 326.33 172.33 327 171.5 327C171.2 327 171.8 327 171.5 327C170.67 327 170 326.33 170 325.5C170 315 170 285 170 274.5C170 273.67 170.67 273 171.5 273C171.8 273 171.2 273 171.5 273Z" id="c4ZahY6CZ5"></path><path d="M159.5 344C160.33 344 161 344.67 161 345.5C161 356 161 386 161 396.5C161 397.33 160.33 398 159.5 398C159.2 398 159.8 398 159.5 398C158.67 398 158 397.33 158 396.5C158 386 158 356 158 345.5C158 344.67 158.67 344 159.5 344C159.8 344 159.2 344 159.5 344Z" id="dOxrEn0zq"></path><path d="M194.5 304C195.33 304 196 304.67 196 305.5C196 316 196 346 196 356.5C196 357.33 195.33 358 194.5 358C194.2 358 194.8 358 194.5 358C193.67 358 193 357.33 193 356.5C193 346 193 316 193 305.5C193 304.67 193.67 304 194.5 304C194.8 304 194.2 304 194.5 304Z" id="b2mE56ZBzf"></path><path d="M207.5 345.5C208.33 345.5 209 346.17 209 347C209 357.5 209 387.5 209 398C209 398.83 208.33 399.5 207.5 399.5C207.2 399.5 207.8 399.5 207.5 399.5C206.67 399.5 206 398.83 206 398C206 387.5 206 357.5 206 347C206 346.17 206.67 345.5 207.5 345.5C207.8 345.5 207.2 345.5 207.5 345.5Z" id="d1qGQSSDYL"></path><path d="M228.5 279.5C229.33 279.5 230 280.17 230 281C230 291.5 230 321.5 230 332C230 332.83 229.33 333.5 228.5 333.5C228.2 333.5 228.8 333.5 228.5 333.5C227.67 333.5 227 332.83 227 332C227 321.5 227 291.5 227 281C227 280.17 227.67 279.5 228.5 279.5C228.8 279.5 228.2 279.5 228.5 279.5Z" id="c4awHEt5yV"></path><path d="M361.5 322C362.33 322 363 322.67 363 323.5C363 334 363 364 363 374.5C363 375.33 362.33 376 361.5 376C361.2 376 361.8 376 361.5 376C360.67 376 360 375.33 360 374.5C360 364 360 334 360 323.5C360 322.67 360.67 322 361.5 322C361.8 322 361.2 322 361.5 322Z" id="a2RJHp09pd"></path><path d="M343.5 363C344.33 363 345 363.67 345 364.5C345 375 345 405 345 415.5C345 416.33 344.33 417 343.5 417C343.2 417 343.8 417 343.5 417C342.67 417 342 416.33 342 415.5C342 405 342 375 342 364.5C342 363.67 342.67 363 343.5 363C343.8 363 343.2 363 343.5 363Z" id="b2wShC69bG"></path><path d="M321.5 313C322.33 313 323 313.67 323 314.5C323 325 323 355 323 365.5C323 366.33 322.33 367 321.5 367C321.2 367 321.8 367 321.5 367C320.67 367 320 366.33 320 365.5C320 355 320 325 320 314.5C320 313.67 320.67 313 321.5 313C321.8 313 321.2 313 321.5 313Z" id="b2Sh8kioVt"></path><path d="M344.75 269C345.58 269 346.25 269.67 346.25 270.5C346.25 281 346.25 311 346.25 321.5C346.25 322.33 345.58 323 344.75 323C344.45 323 345.05 323 344.75 323C343.92 323 343.25 322.33 343.25 321.5C343.25 311 343.25 281 343.25 270.5C343.25 269.67 343.92 269 344.75 269C345.05 269 344.45 269 344.75 269Z" id="b3fLLFbnXT"></path><path d="M292.75 279.5C293.58 279.5 294.25 280.17 294.25 281C294.25 291.5 294.25 321.5 294.25 332C294.25 332.83 293.58 333.5 292.75 333.5C292.45 333.5 293.05 333.5 292.75 333.5C291.92 333.5 291.25 332.83 291.25 332C291.25 321.5 291.25 291.5 291.25 281C291.25 280.17 291.92 279.5 292.75 279.5C293.05 279.5 292.45 279.5 292.75 279.5Z" id="baW0utETv"></path><path d="M296.75 363C297.58 363 298.25 363.67 298.25 364.5C298.25 375 298.25 405 298.25 415.5C298.25 416.33 297.58 417 296.75 417C296.45 417 297.05 417 296.75 417C295.92 417 295.25 416.33 295.25 415.5C295.25 405 295.25 375 295.25 364.5C295.25 363.67 295.92 363 296.75 363C297.05 363 296.45 363 296.75 363Z" id="bYJysVcrt"></path><path d="M273.75 306.5C274.58 306.5 275.25 307.17 275.25 308C275.25 318.5 275.25 348.5 275.25 359C275.25 359.83 274.58 360.5 273.75 360.5C273.45 360.5 274.05 360.5 273.75 360.5C272.92 360.5 272.25 359.83 272.25 359C272.25 348.5 272.25 318.5 272.25 308C272.25 307.17 272.92 306.5 273.75 306.5C274.05 306.5 273.45 306.5 273.75 306.5Z" id="a4AuY76T"></path><path d="M256.25 349C257.08 349 257.75 349.67 257.75 350.5C257.75 361 257.75 391 257.75 401.5C257.75 402.33 257.08 403 256.25 403C255.95 403 256.55 403 256.25 403C255.42 403 254.75 402.33 254.75 401.5C254.75 391 254.75 361 254.75 350.5C254.75 349.67 255.42 349 256.25 349C256.55 349 255.95 349 256.25 349Z" id="b1dZ5hBw68"></path><path d="M377.5 283C378.33 283 379 283.67 379 284.5C379 295 379 325 379 335.5C379 336.33 378.33 337 377.5 337C377.2 337 377.8 337 377.5 337C376.67 337 376 336.33 376 335.5C376 325 376 295 376 284.5C376 283.67 376.67 283 377.5 283C377.8 283 377.2 283 377.5 283Z" id="a4vFhGCDnN"></path><path d="M380.5 358C381.33 358 382 358.67 382 359.5C382 370 382 400 382 410.5C382 411.33 381.33 412 380.5 412C380.2 412 380.8 412 380.5 412C379.67 412 379 411.33 379 410.5C379 400 379 370 379 359.5C379 358.67 379.67 358 380.5 358C380.8 358 380.2 358 380.5 358Z" id="mhyurNpBR"></path><path d="M106.5 363C107.33 363 108 363.67 108 364.5C108 375 108 405 108 415.5C108 416.33 107.33 417 106.5 417C106.2 417 106.8 417 106.5 417C105.67 417 105 416.33 105 415.5C105 405 105 375 105 364.5C105 363.67 105.67 363 106.5 363C106.8 363 106.2 363 106.5 363Z" id="a79mCg2bs"></path><path d="M430.75 250C431.58 250 432.25 250.67 432.25 251.5C432.25 262 432.25 292 432.25 302.5C432.25 303.33 431.58 304 430.75 304C430.45 304 431.05 304 430.75 304C429.92 304 429.25 303.33 429.25 302.5C429.25 292 429.25 262 429.25 251.5C429.25 250.67 429.92 250 430.75 250C431.05 250 430.45 250 430.75 250Z" id="a5PbLj4g6s"></path><path d="M518.5 259C519.33 259 520 259.67 520 260.5C520 271 520 301 520 311.5C520 312.33 519.33 313 518.5 313C518.2 313 518.8 313 518.5 313C517.67 313 517 312.33 517 311.5C517 301 517 271 517 260.5C517 259.67 517.67 259 518.5 259C518.8 259 518.2 259 518.5 259Z" id="bWPWPfF7u"></path><path d="M536.5 235.23C537.33 235.23 538 235.9 538 236.73C538 247.23 538 277.23 538 287.73C538 288.56 537.33 289.23 536.5 289.23C536.2 289.23 536.8 289.23 536.5 289.23C535.67 289.23 535 288.56 535 287.73C535 277.23 535 247.23 535 236.73C535 235.9 535.67 235.23 536.5 235.23C536.8 235.23 536.2 235.23 536.5 235.23Z" id="afAh7d12y"></path><path d="M444.5 266.5C445.33 266.5 446 267.17 446 268C446 278.5 446 308.5 446 319C446 319.83 445.33 320.5 444.5 320.5C444.2 320.5 444.8 320.5 444.5 320.5C443.67 320.5 443 319.83 443 319C443 308.5 443 278.5 443 268C443 267.17 443.67 266.5 444.5 266.5C444.8 266.5 444.2 266.5 444.5 266.5Z" id="c1zJHwz41h"></path><path d="M447.5 341.5C448.33 341.5 449 342.17 449 343C449 353.5 449 383.5 449 394C449 394.83 448.33 395.5 447.5 395.5C447.2 395.5 447.8 395.5 447.5 395.5C446.67 395.5 446 394.83 446 394C446 383.5 446 353.5 446 343C446 342.17 446.67 341.5 447.5 341.5C447.8 341.5 447.2 341.5 447.5 341.5Z" id="e4DO6k6tFO"></path><path d="M410.5 308C411.33 308 412 308.67 412 309.5C412 320 412 350 412 360.5C412 361.33 411.33 362 410.5 362C410.2 362 410.8 362 410.5 362C409.67 362 409 361.33 409 360.5C409 350 409 320 409 309.5C409 308.67 409.67 308 410.5 308C410.8 308 410.2 308 410.5 308Z" id="bB03JY7UM"></path><path d="M413.5 383C414.33 383 415 383.67 415 384.5C415 395 415 425 415 435.5C415 436.33 414.33 437 413.5 437C413.2 437 413.8 437 413.5 437C412.67 437 412 436.33 412 435.5C412 425 412 395 412 384.5C412 383.67 412.67 383 413.5 383C413.8 383 413.2 383 413.5 383Z" id="bjCISKt1w"></path><path d="M471.5 289.23C472.33 289.23 473 289.9 473 290.73C473 301.23 473 331.23 473 341.73C473 342.56 472.33 343.23 471.5 343.23C471.2 343.23 471.8 343.23 471.5 343.23C470.67 343.23 470 342.56 470 341.73C470 331.23 470 301.23 470 290.73C470 289.9 470.67 289.23 471.5 289.23C471.8 289.23 471.2 289.23 471.5 289.23Z" id="c1ZfQTwlAL"></path><path d="M533.5 340C534.33 340 535 340.67 535 341.5C535 352 535 382 535 392.5C535 393.33 534.33 394 533.5 394C533.2 394 533.8 394 533.5 394C532.67 394 532 393.33 532 392.5C532 382 532 352 532 341.5C532 340.67 532.67 340 533.5 340C533.8 340 533.2 340 533.5 340Z" id="bbT4i2skj"></path><path d="M508.41 372.5C507.58 372.48 506.92 371.8 506.93 370.97C507.11 360.47 507.62 330.48 507.8 319.98C507.81 319.15 508.49 318.49 509.32 318.51C509.62 318.51 509.02 318.5 509.32 318.51C510.15 318.52 510.81 319.2 510.8 320.03C510.62 330.53 510.11 360.53 509.93 371.02C509.92 371.85 509.24 372.51 508.41 372.5C508.11 372.49 508.71 372.5 508.41 372.5Z" id="b1kEUBeRv2"></path><path d="M482.68 306.5C481.85 306.48 481.19 305.8 481.2 304.97C481.38 294.47 481.89 264.48 482.07 253.98C482.08 253.15 482.76 252.49 483.59 252.5C483.89 252.51 483.29 252.5 483.59 252.5C484.42 252.52 485.08 253.2 485.07 254.03C484.89 264.53 484.38 294.52 484.2 305.02C484.19 305.85 483.51 306.51 482.68 306.5C482.38 306.49 482.98 306.5 482.68 306.5Z" id="b6XINs3VJ6"></path><path d="M482.68 433.5C481.85 433.48 481.19 432.8 481.2 431.97C481.38 421.47 481.89 391.48 482.07 380.98C482.08 380.15 482.76 379.49 483.59 379.51C483.89 379.51 483.29 379.5 483.59 379.51C484.42 379.52 485.08 380.2 485.07 381.03C484.89 391.53 484.38 421.53 484.2 432.02C484.19 432.85 483.51 433.51 482.68 433.5C482.38 433.49 482.98 433.5 482.68 433.5Z" id="a1DhpqjsE"></path></defs><g><g><g><use xlink:href="#f14aw6iIDi" opacity="1" fill="#dbdbdb" fill-opacity="1"></use><g><use xlink:href="#f14aw6iIDi" opacity="1" fill-opacity="0" stroke="#7b7b7b" stroke-width="4" stroke-opacity="1"></use></g></g><g><use xlink:href="#e5prTSpWD" opacity="1" fill="#dbdbdb" fill-opacity="1"></use><g><use xlink:href="#e5prTSpWD" opacity="1" fill-opacity="0" stroke="#7b7b7b" stroke-width="4" stroke-opacity="1"></use></g></g><g><use xlink:href="#c15J9WIAJ7" opacity="1" fill="#7b7b7b" fill-opacity="1"></use></g><g><use xlink:href="#g3iG5sNQ3Z" opacity="1" fill="#7b7b7b" fill-opacity="1"></use></g><g><use xlink:href="#c4ZahY6CZ5" opacity="1" fill="#7b7b7b" fill-opacity="1"></use></g><g><use xlink:href="#dOxrEn0zq" opacity="1" fill="#7b7b7b" fill-opacity="1"></use></g><g><use xlink:href="#b2mE56ZBzf" opacity="1" fill="#7b7b7b" fill-opacity="1"></use></g><g><use xlink:href="#d1qGQSSDYL" opacity="1" fill="#7b7b7b" fill-opacity="1"></use></g><g><use xlink:href="#c4awHEt5yV" opacity="1" fill="#7b7b7b" fill-opacity="1"></use></g><g><use xlink:href="#a2RJHp09pd" opacity="1" fill="#7b7b7b" fill-opacity="1"></use></g><g><use xlink:href="#b2wShC69bG" opacity="1" fill="#7b7b7b" fill-opacity="1"></use></g><g><use xlink:href="#b2Sh8kioVt" opacity="1" fill="#7b7b7b" fill-opacity="1"></use></g><g><use xlink:href="#b3fLLFbnXT" opacity="1" fill="#7b7b7b" fill-opacity="1"></use></g><g><use xlink:href="#baW0utETv" opacity="1" fill="#7b7b7b" fill-opacity="1"></use></g><g><use xlink:href="#bYJysVcrt" opacity="1" fill="#7b7b7b" fill-opacity="1"></use></g><g><use xlink:href="#a4AuY76T" opacity="1" fill="#7b7b7b" fill-opacity="1"></use></g><g><use xlink:href="#b1dZ5hBw68" opacity="1" fill="#7b7b7b" fill-opacity="1"></use></g><g><use xlink:href="#a4vFhGCDnN" opacity="1" fill="#7b7b7b" fill-opacity="1"></use></g><g><use xlink:href="#mhyurNpBR" opacity="1" fill="#7b7b7b" fill-opacity="1"></use></g><g><use xlink:href="#a79mCg2bs" opacity="1" fill="#7b7b7b" fill-opacity="1"></use></g><g><use xlink:href="#a5PbLj4g6s" opacity="1" fill="#7b7b7b" fill-opacity="1"></use></g><g><use xlink:href="#bWPWPfF7u" opacity="1" fill="#7b7b7b" fill-opacity="1"></use></g><g><use xlink:href="#afAh7d12y" opacity="1" fill="#7b7b7b" fill-opacity="1"></use></g><g><use xlink:href="#c1zJHwz41h" opacity="1" fill="#7b7b7b" fill-opacity="1"></use></g><g><use xlink:href="#e4DO6k6tFO" opacity="1" fill="#7b7b7b" fill-opacity="1"></use></g><g><use xlink:href="#bB03JY7UM" opacity="1" fill="#7b7b7b" fill-opacity="1"></use></g><g><use xlink:href="#bjCISKt1w" opacity="1" fill="#7b7b7b" fill-opacity="1"></use></g><g><use xlink:href="#c1ZfQTwlAL" opacity="1" fill="#7b7b7b" fill-opacity="1"></use></g><g><use xlink:href="#bbT4i2skj" opacity="1" fill="#7b7b7b" fill-opacity="1"></use></g><g><use xlink:href="#b1kEUBeRv2" opacity="1" fill="#7b7b7b" fill-opacity="1"></use></g><g><use xlink:href="#b6XINs3VJ6" opacity="1" fill="#7b7b7b" fill-opacity="1"></use></g><g><use xlink:href="#a1DhpqjsE" opacity="1" fill="#7b7b7b" fill-opacity="1"></use></g></g></g></svg>