<?xml version="1.0" encoding="UTF-8" standalone="no"?>
<!DOCTYPE svg PUBLIC "-//W3C//DTD SVG 1.1//EN" "http://www.w3.org/Graphics/SVG/1.1/DTD/svg11.dtd">
<svg version="1.1" xmlns="http://www.w3.org/2000/svg" xmlns:xlink="http://www.w3.org/1999/xlink" preserveAspectRatio="xMidYMid meet" viewBox="0 0 640 640" width="640" height="640"><defs><path d="M300.14 231L303.54 231.32L306.91 231.77L310.24 232.35L313.51 233.05L316.74 233.86L319.91 234.79L323.03 235.83L326.1 236.99L329.1 238.25L332.04 239.62L334.91 241.09L337.72 242.66L340.45 244.33L343.11 246.09L345.69 247.95L348.2 249.9L350.62 251.93L352.96 254.05L355.21 256.26L357.36 258.54L359.43 260.9L361.4 263.33L363.27 265.84L365.05 268.41L366.71 271.06L368.27 273.76L369.73 276.53L371.07 279.36L372.29 282.25L373.4 285.19L374.39 288.18L375.25 291.22L375.99 294.31L376.6 297.44L377.08 300.61L377.43 303.83L377.64 307.07L377.71 310.36L377.64 313.64L377.43 316.89L377.08 320.1L376.6 323.27L375.99 326.4L375.25 329.49L374.39 332.53L373.4 335.52L372.29 338.46L371.07 341.35L369.73 344.18L368.27 346.95L366.71 349.66L365.05 352.3L363.34 354.79L416.71 405.08L393.72 426.73L340.36 376.44L337.72 378.05L334.91 379.62L332.04 381.09L329.1 382.46L326.1 383.72L323.03 384.88L319.91 385.92L316.74 386.85L313.51 387.67L310.24 388.36L306.91 388.94L303.54 389.39L300.14 389.72L296.69 389.91L293.21 389.98L289.72 389.91L286.28 389.72L282.87 389.39L279.5 388.94L276.18 388.36L272.9 387.67L269.67 386.85L266.5 385.92L263.38 384.88L260.31 383.72L257.31 382.46L254.37 381.09L251.5 379.62L248.69 378.05L245.96 376.38L243.3 374.62L240.72 372.76L238.21 370.81L235.79 368.78L233.45 366.66L231.21 364.46L229.05 362.18L226.98 359.82L225.01 357.38L223.14 354.88L221.37 352.3L219.7 349.66L218.14 346.95L216.69 344.18L215.35 341.35L214.12 338.46L213.01 335.52L212.03 332.53L211.16 329.49L210.42 326.4L209.81 323.27L209.33 320.1L208.99 316.89L208.78 313.64L208.71 310.36L208.78 307.07L208.99 303.83L209.33 300.61L209.81 297.44L210.42 294.31L211.16 291.22L212.03 288.18L213.01 285.19L214.12 282.25L215.35 279.36L216.69 276.53L218.14 273.76L219.7 271.06L221.37 268.41L223.14 265.84L225.01 263.33L226.98 260.9L229.05 258.54L231.21 256.26L233.45 254.05L235.79 251.93L238.21 249.9L240.72 247.95L243.3 246.09L245.96 244.33L248.69 242.66L251.5 241.09L254.37 239.62L257.31 238.25L260.31 236.99L263.38 235.83L266.5 234.79L269.67 233.86L272.9 233.05L276.18 232.35L279.5 231.77L282.87 231.32L286.28 231L289.72 230.8L293.21 230.73L296.69 230.8L300.14 231ZM288.93 261.39L286.83 261.59L284.75 261.87L282.7 262.22L280.68 262.65L278.68 263.16L276.73 263.73L274.8 264.37L272.91 265.09L271.06 265.87L269.24 266.71L267.47 267.62L265.74 268.59L264.05 269.62L262.41 270.71L260.82 271.85L259.27 273.05L257.78 274.31L256.34 275.62L254.95 276.97L253.62 278.38L252.34 279.84L251.13 281.34L249.97 282.89L248.88 284.48L247.85 286.11L246.89 287.78L245.99 289.49L245.16 291.23L244.41 293.01L243.73 294.83L243.12 296.67L242.58 298.55L242.13 300.45L241.75 302.39L241.45 304.34L241.24 306.33L241.11 308.33L241.07 310.36L241.11 312.38L241.24 314.39L241.45 316.37L241.75 318.33L242.13 320.26L242.58 322.16L243.12 324.04L243.73 325.89L244.41 327.7L245.16 329.48L245.99 331.23L246.89 332.93L247.85 334.61L248.88 336.24L249.97 337.83L251.13 339.37L252.34 340.87L253.62 342.33L254.95 343.74L256.34 345.1L257.78 346.4L259.27 347.66L260.82 348.86L262.41 350.01L264.05 351.1L265.74 352.13L267.47 353.1L269.24 354L271.06 354.85L272.91 355.63L274.8 356.34L276.73 356.98L278.68 357.56L280.68 358.06L282.7 358.49L284.75 358.84L286.83 359.12L288.93 359.32L291.06 359.45L293.21 359.49L295.35 359.45L297.48 359.32L299.58 359.12L301.66 358.84L303.71 358.49L305.73 358.06L307.73 357.56L309.69 356.98L311.61 356.34L313.5 355.63L315.35 354.85L317.17 354L318.94 353.1L320.67 352.13L322.36 351.1L324 350.01L325.59 348.86L327.14 347.66L328.63 346.4L330.07 345.1L331.46 343.74L332.79 342.33L334.07 340.87L335.28 339.37L336.44 337.83L337.53 336.24L338.56 334.61L339.52 332.93L340.42 331.23L341.25 329.48L342 327.7L342.69 325.89L343.3 324.04L343.83 322.16L344.28 320.26L344.66 318.33L344.96 316.37L345.17 314.39L345.3 312.38L345.34 310.36L345.3 308.33L345.17 306.33L344.96 304.34L344.66 302.39L344.28 300.45L343.83 298.55L343.3 296.67L342.69 294.83L342 293.01L341.25 291.23L340.42 289.49L339.52 287.78L338.56 286.11L337.53 284.48L336.44 282.89L335.28 281.34L334.07 279.84L332.79 278.38L331.46 276.97L330.07 275.62L328.63 274.31L327.14 273.05L325.59 271.85L324 270.71L322.36 269.62L320.67 268.59L318.94 267.62L317.17 266.71L315.35 265.87L313.5 265.09L311.61 264.37L309.69 263.73L307.73 263.16L305.73 262.65L303.71 262.22L301.66 261.87L299.58 261.59L297.48 261.39L295.35 261.27L293.21 261.23L291.06 261.27L288.93 261.39Z" id="c3sREXHbrH"></path></defs><g><g><g><use xlink:href="#c3sREXHbrH" opacity="1" fill="#888888" fill-opacity="1"></use><g><use xlink:href="#c3sREXHbrH" opacity="1" fill-opacity="0" stroke="#474747" stroke-width="2" stroke-opacity="1"></use></g></g></g></g></svg>