<?xml version="1.0" encoding="UTF-8" standalone="no"?>
<!DOCTYPE svg PUBLIC "-//W3C//DTD SVG 1.1//EN" "http://www.w3.org/Graphics/SVG/1.1/DTD/svg11.dtd">
<svg version="1.1" xmlns="http://www.w3.org/2000/svg" xmlns:xlink="http://www.w3.org/1999/xlink" preserveAspectRatio="xMidYMid meet" viewBox="0 0 640 640" width="640" height="640"><defs><path d="M281.61 24.18C327.06 24.21 363.89 58.28 363.85 100.26C363.85 101.84 363.8 103.42 363.68 104.97C396.51 111.38 420.63 132.78 420.61 158.18C420.61 158.18 420.61 158.18 420.61 158.18C420.59 188.62 385.91 213.26 343.15 213.23C323.74 213.21 168.39 213.09 148.98 213.07C106.23 213.04 71.59 188.34 71.61 157.9C71.61 157.9 71.61 157.9 71.61 157.9C71.63 131.37 97.99 109.24 133.07 104.03C136.24 75.26 162.55 52.82 194.53 52.85C201.55 52.86 208.29 53.95 214.59 55.94C229.55 36.69 253.99 24.16 281.61 24.18Z" id="b19GY1s22M"></path><path d="M440.09 3.15C480.2 3.19 512.69 35.99 512.66 76.43C512.66 77.95 512.62 79.47 512.51 80.96C541.48 87.14 562.77 107.75 562.75 132.21C562.75 132.21 562.75 132.21 562.75 132.21C562.72 161.53 532.12 185.27 494.39 185.24C477.25 185.22 340.16 185.11 323.02 185.1C285.3 185.07 254.73 161.28 254.75 131.97C254.75 131.97 254.75 131.97 254.75 131.97C254.77 106.41 278.04 85.09 309 80.07C311.79 52.36 335.02 30.75 363.23 30.77C369.43 30.78 375.38 31.83 380.94 33.75C394.14 15.21 415.72 3.13 440.09 3.15Z" id="arTEIaTNL"></path><path d="M537.25 207.14L537.28 207.16L537.3 207.19L537.31 207.22L537.31 207.26L535.94 219.95L535.15 220.71L535.13 220.9L535.13 220.93L535.14 220.96L535.16 220.99L535.19 221.01L535.22 221.02L535.7 221.08L535.74 221.08L535.77 221.07L535.8 221.05L535.81 221.02L535.82 220.99L535.94 219.95L541.89 214.22L541.91 214.2L541.93 214.18L541.96 214.16L541.98 214.14L542.01 214.13L542.04 214.11L542.07 214.1L542.09 214.09L542.12 214.08L542.15 214.07L542.18 214.06L542.21 214.06L542.24 214.06L542.27 214.05L542.3 214.05L542.33 214.05L542.36 214.06L542.39 214.06L542.42 214.07L542.45 214.07L542.48 214.08L542.5 214.09L542.53 214.1L542.56 214.11L542.59 214.13L542.61 214.14L542.64 214.16L542.66 214.18L542.69 214.2L542.71 214.22L542.73 214.24L542.75 214.27L542.76 214.28L542.78 214.3L542.8 214.33L542.82 214.36L542.83 214.39L542.85 214.42L542.86 214.45L542.88 214.47L542.89 214.51L542.89 214.54L542.9 214.57L542.91 214.6L542.91 214.63L542.92 214.66L542.92 214.69L542.92 214.72L542.92 214.76L542.91 214.79L542.91 214.82L542.91 214.85L542.9 214.88L542.89 214.91L542.88 214.94L542.87 214.97L542.86 215L542.84 215.03L542.83 215.06L542.81 215.09L542.79 215.11L542.77 215.14L542.75 215.16L542.73 215.19L542.71 215.21L536.56 221.13L534.5 221.33L534.39 221.44L534.38 221.45L534.43 222L534.44 222.03L534.46 222.06L534.48 222.08L534.51 222.09L534.54 222.09L535.68 221.98L536.56 221.13L547.24 220.08L547.27 220.08L547.3 220.09L547.32 220.11L547.34 220.14L547.35 220.17L547.39 220.72L547.39 220.75L547.38 220.78L547.36 220.81L547.33 220.82L547.3 220.83L535.68 221.98L514.3 242.56L513.1 242.56L513.1 242.93L513.51 243.33L513.09 243.72L513.09 243.9L512.91 243.9L512.58 244.22L513.09 244.71L512.85 279.89L519.73 290.01L519.75 290.04L519.75 290.07L519.75 290.11L519.73 290.14L519.71 290.16L519.31 290.48L519.28 290.49L519.25 290.5L519.22 290.49L519.19 290.48L519.16 290.46L512.84 281.15L512.85 279.89L512.15 278.86L512.13 278.84L512.1 278.82L512.07 278.82L512.04 278.82L512.01 278.84L511.62 279.15L511.62 279.36L511.76 279.57L511.61 279.79L511.61 281.08L504.87 290.99L504.85 291.01L504.82 291.03L504.79 291.03L504.75 291.03L504.72 291.01L504.33 290.7L504.3 290.67L504.29 290.64L504.28 290.61L504.29 290.57L504.3 290.54L511.61 279.79L511.62 279.36L511.59 279.31L511.57 279.28L511.57 279.24L511.57 279.21L511.59 279.18L511.61 279.15L511.62 279.15L511.85 244.92L512.58 244.22L512.25 243.9L512.91 243.9L513.09 243.72L513.1 242.93L512.72 242.56L513.1 242.56L513.11 241.93L534.39 221.44L534.39 221.41L534.4 221.38L534.42 221.36L534.45 221.34L534.48 221.34L534.5 221.33L535.15 220.71L536.61 207.17L536.62 207.14L536.64 207.11L536.67 207.09L536.7 207.07L536.74 207.07L537.22 207.13L537.25 207.14ZM512.03 279.37L512.42 279.69L512.45 279.72L512.46 279.75L512.47 279.78L512.46 279.81L512.45 279.85L512.2 280.21L512.84 281.15L512.8 286.97L512.8 287L512.8 287.03L512.79 287.06L512.79 287.09L512.78 287.12L512.77 287.14L512.77 287.17L512.76 287.2L512.74 287.22L512.73 287.25L512.72 287.27L512.7 287.3L512.69 287.32L512.67 287.34L512.65 287.36L512.64 287.38L512.62 287.4L512.6 287.42L512.57 287.44L512.55 287.46L512.53 287.48L512.51 287.49L512.48 287.51L512.46 287.52L512.43 287.53L512.41 287.54L512.38 287.55L512.35 287.56L512.32 287.57L512.3 287.57L512.27 287.58L512.24 287.58L512.21 287.58L512.18 287.58L512.15 287.58L512.12 287.58L512.09 287.58L512.06 287.57L512.03 287.56L512.01 287.56L511.98 287.55L511.95 287.54L511.93 287.53L511.9 287.51L511.88 287.5L511.85 287.49L511.83 287.47L511.81 287.45L511.78 287.44L511.76 287.42L511.74 287.4L511.72 287.38L511.71 287.36L511.69 287.33L511.67 287.31L511.66 287.29L511.64 287.26L511.63 287.24L511.62 287.21L511.61 287.19L511.6 287.16L511.59 287.13L511.58 287.11L511.58 287.08L511.57 287.05L511.57 287.02L511.57 286.99L511.57 286.96L511.61 281.08L512.2 280.21L511.76 279.57L511.88 279.4L511.9 279.37L511.93 279.36L511.96 279.35L512 279.36L512.03 279.37ZM520.21 201.06L520.61 201.37L520.63 201.4L520.65 201.43L520.65 201.46L520.65 201.5L520.63 201.53L513.31 212.3L513.11 241.93L512.58 242.43L512.72 242.56L512.44 242.56L511.86 243.12L511.86 243.53L512.25 243.9L511.86 243.9L511.85 244.92L490.99 265.01L487.14 277.77L487.13 277.8L487.11 277.82L487.08 277.84L487.04 277.84L487.01 277.84L486.55 277.68L486.52 277.66L486.49 277.63L486.48 277.6L486.47 277.57L486.48 277.53L489.95 266.01L490.99 265.01L491.1 264.62L491.11 264.59L491.1 264.55L491.09 264.52L491.06 264.5L491.03 264.48L490.57 264.32L490.53 264.31L490.5 264.32L490.47 264.33L490.45 264.36L490.43 264.39L490.31 264.8L490.34 265.19L490.33 265.22L490.32 265.25L490.3 265.27L490.27 265.29L490.24 265.3L490.16 265.31L489.95 266.01L484.86 270.91L484.83 270.93L484.81 270.95L484.78 270.97L484.76 270.99L484.73 271L484.7 271.02L484.67 271.03L484.65 271.04L484.62 271.05L484.59 271.06L484.56 271.06L484.53 271.07L484.5 271.07L484.47 271.07L484.44 271.08L484.41 271.07L484.38 271.07L484.35 271.07L484.32 271.06L484.29 271.06L484.26 271.05L484.24 271.04L484.21 271.03L484.18 271.01L484.15 271L484.13 270.98L484.1 270.97L484.08 270.95L484.05 270.93L484.03 270.91L484.01 270.88L483.99 270.86L483.98 270.85L483.96 270.83L483.94 270.8L483.92 270.77L483.91 270.74L483.89 270.71L483.88 270.68L483.87 270.65L483.85 270.62L483.85 270.59L483.84 270.56L483.83 270.53L483.83 270.5L483.82 270.47L483.82 270.44L483.82 270.4L483.82 270.37L483.83 270.34L483.83 270.31L483.83 270.28L483.84 270.25L483.85 270.22L483.86 270.19L483.87 270.16L483.88 270.13L483.9 270.1L483.91 270.07L483.93 270.04L483.95 270.02L483.97 269.99L483.99 269.96L484.01 269.94L484.03 269.92L488.7 265.43L490.16 265.31L490.31 264.8L490.3 264.64L490.29 264.6L490.27 264.58L490.25 264.56L490.22 264.54L490.19 264.54L489.56 264.6L488.7 265.43L477.47 266.37L477.43 266.37L477.4 266.35L477.38 266.33L477.36 266.31L477.36 266.28L477.32 265.72L477.32 265.69L477.33 265.66L477.35 265.64L477.38 265.62L477.41 265.61L489.56 264.6L511.06 243.9L511.86 243.9L511.86 243.53L511.65 243.33L511.86 243.12L511.87 242.56L512.44 242.56L512.58 242.43L511.87 241.75L512.08 211.85L512.42 211.58L512.45 211.55L512.46 211.52L512.47 211.49L512.46 211.45L512.45 211.42L512.08 210.89L512.14 203.22L512.14 203.19L512.14 203.16L512.14 203.13L512.15 203.1L512.15 203.07L512.16 203.05L512.17 203.02L512.18 202.99L512.19 202.97L512.2 202.94L512.22 202.92L512.23 202.89L512.25 202.87L512.26 202.85L512.28 202.83L512.3 202.81L512.32 202.79L512.34 202.77L512.36 202.75L512.38 202.73L512.41 202.71L512.43 202.7L512.45 202.69L512.48 202.67L512.5 202.66L512.53 202.65L512.56 202.64L512.58 202.63L512.61 202.62L512.64 202.62L512.67 202.61L512.7 202.61L512.73 202.61L512.76 202.61L512.79 202.61L512.82 202.61L512.85 202.61L512.87 202.62L512.9 202.63L512.93 202.63L512.96 202.64L512.98 202.65L513.01 202.66L513.04 202.68L513.06 202.69L513.08 202.7L513.11 202.72L513.13 202.74L513.15 202.75L513.17 202.77L513.19 202.79L513.21 202.81L513.23 202.83L513.25 202.86L513.26 202.88L513.28 202.9L513.29 202.93L513.31 202.95L513.32 202.98L513.33 203L513.34 203.03L513.35 203.06L513.35 203.08L513.36 203.11L513.36 203.14L513.37 203.17L513.37 203.2L513.37 203.23L513.32 211L512.49 212.22L512.47 212.26L512.47 212.29L512.47 212.32L512.49 212.35L512.51 212.38L512.91 212.7L512.94 212.71L512.97 212.72L513 212.71L513.03 212.7L513.05 212.67L513.31 212.3L513.32 211L520.07 201.08L520.09 201.06L520.12 201.04L520.15 201.04L520.18 201.04L520.21 201.06ZM553.44 236.7L553.47 236.72L553.49 236.74L553.7 237.24L553.71 237.28L553.71 237.31L553.7 237.34L553.68 237.36L553.65 237.38L543.34 242.56L541.7 242.56L541.69 242.58L541.68 242.61L541.68 242.64L541.69 242.67L541.9 243.17L541.92 243.2L541.94 243.22L541.97 243.23L542 243.23L542.03 243.22L543.34 242.56L550.08 242.56L550.11 242.57L550.14 242.57L550.18 242.57L550.21 242.58L550.24 242.59L550.27 242.59L550.3 242.6L550.33 242.62L550.35 242.63L550.38 242.64L550.41 242.66L550.43 242.68L550.46 242.69L550.48 242.71L550.5 242.73L550.53 242.76L550.55 242.78L550.57 242.8L550.58 242.83L550.6 242.85L550.62 242.88L550.63 242.91L550.65 242.93L550.66 242.96L550.67 242.99L550.68 243.02L550.68 243.05L550.69 243.08L550.69 243.12L550.7 243.15L550.7 243.18L550.7 243.28L550.7 243.31L550.69 243.34L550.69 243.38L550.68 243.41L550.68 243.44L550.67 243.47L550.66 243.5L550.65 243.53L550.63 243.55L550.62 243.58L550.6 243.61L550.58 243.63L550.57 243.66L550.55 243.68L550.53 243.7L550.5 243.73L550.48 243.75L550.46 243.77L550.43 243.78L550.41 243.8L550.38 243.82L550.35 243.83L550.33 243.84L550.3 243.86L550.27 243.87L550.24 243.88L550.21 243.88L550.18 243.89L550.14 243.89L550.11 243.9L550.08 243.9L542.79 243.9L551.22 253.09L551.24 253.12L551.25 253.15L551.25 253.18L551.24 253.22L551.22 253.25L550.86 253.62L550.84 253.64L550.81 253.65L550.78 253.65L550.75 253.64L550.72 253.62L541.8 243.9L542.79 243.9L542.21 243.26L542.18 243.24L542.15 243.23L542.12 243.23L542.09 243.24L542.06 243.26L541.71 243.64L541.69 243.67L541.68 243.7L541.68 243.74L541.69 243.77L541.71 243.8L541.8 243.9L514.1 243.9L533.68 262.75L533.53 262.76L533.5 262.76L533.48 262.78L533.45 262.8L533.44 262.83L533.44 262.86L533.46 263.42L533.46 263.45L533.48 263.48L533.5 263.5L533.53 263.51L533.56 263.51L534.44 263.48L533.68 262.75L546.34 262.22L546.37 262.22L546.4 262.24L546.42 262.26L546.44 262.28L546.44 262.32L546.46 262.87L546.46 262.9L546.45 262.93L546.43 262.95L546.4 262.97L546.37 262.98L534.44 263.48L539.74 268.58L539.77 268.61L539.79 268.63L539.81 268.66L539.83 268.68L539.85 268.71L539.86 268.74L539.88 268.77L539.89 268.8L539.91 268.83L539.92 268.86L539.93 268.89L539.94 268.92L539.94 268.95L539.95 268.98L539.95 269.01L539.95 269.04L539.96 269.07L539.95 269.1L539.95 269.14L539.95 269.17L539.94 269.2L539.94 269.23L539.93 269.26L539.92 269.29L539.91 269.32L539.9 269.35L539.89 269.38L539.87 269.41L539.85 269.44L539.84 269.47L539.82 269.49L539.8 269.52L539.79 269.53L539.77 269.55L539.75 269.58L539.72 269.6L539.7 269.62L539.67 269.64L539.65 269.65L539.62 269.67L539.6 269.68L539.57 269.69L539.54 269.71L539.51 269.72L539.48 269.72L539.46 269.73L539.43 269.74L539.4 269.74L539.37 269.74L539.34 269.74L539.31 269.74L539.28 269.74L539.25 269.74L539.22 269.73L539.19 269.73L539.16 269.72L539.13 269.71L539.1 269.7L539.08 269.68L539.05 269.67L539.02 269.66L539 269.64L538.97 269.62L538.95 269.6L538.92 269.58L533.5 264.36L533.18 262.95L533.16 262.92L533.14 262.89L533.11 262.88L533.08 262.87L533.05 262.87L532.57 263L532.54 263.01L532.52 263.03L532.5 263.06L532.49 263.1L532.49 263.13L532.57 263.46L533.5 264.36L536.28 276.36L536.28 276.4L536.27 276.43L536.25 276.46L536.23 276.48L536.19 276.5L535.72 276.62L535.69 276.63L535.66 276.62L535.63 276.6L535.61 276.58L535.59 276.54L532.57 263.46L513.09 244.71L513.09 243.9L514.1 243.9L513.51 243.33L514.3 242.56L541.7 242.56L541.71 242.55L541.74 242.53L553.35 236.7L553.38 236.69L553.42 236.69L553.44 236.7ZM484.48 205.86L484.5 205.89L484.51 205.92L487.33 218.13L511.87 241.75L511.87 242.56L510.86 242.56L511.65 243.33L511.06 243.9L480.76 243.9L472.45 252.96L472.42 252.98L472.39 252.99L472.36 252.99L472.33 252.98L472.3 252.96L471.95 252.58L471.93 252.55L471.92 252.52L471.92 252.48L471.93 252.45L471.95 252.42L479.77 243.9L480.76 243.9L481.46 243.13L481.48 243.1L481.49 243.07L481.49 243.04L481.48 243L481.46 242.97L481.1 242.6L481.08 242.58L481.05 242.57L481.02 242.57L480.99 242.58L480.96 242.6L480.86 242.71L480.86 242.73L480.86 242.76L480.85 242.79L480.83 242.82L480.48 243.2L480.45 243.22L480.42 243.23L480.39 243.23L480.38 243.23L480.86 242.71L480.85 242.69L480.83 242.66L480.74 242.56L510.86 242.56L487 219.59L486.99 219.59L486.96 219.57L486.94 219.55L486.94 219.53L486.43 219.04L486.43 219.04L486.45 219.02L486.47 218.99L486.47 218.96L486.45 218.4L486.44 218.37L486.43 218.34L486.41 218.32L486.38 218.31L486.35 218.3L485.69 218.33L486.43 219.04L486.4 219.06L486.37 219.06L473.57 219.6L473.54 219.6L473.51 219.58L473.48 219.56L473.47 219.53L473.46 219.5L473.44 218.95L473.45 218.91L473.46 218.89L473.48 218.86L473.51 218.85L473.54 218.84L485.69 218.33L481.07 213.88L481.05 213.86L481.02 213.83L481 213.81L480.98 213.78L480.97 213.75L480.95 213.73L480.93 213.7L480.92 213.67L480.91 213.64L480.9 213.61L480.89 213.58L480.88 213.55L480.87 213.52L480.87 213.49L480.86 213.45L480.86 213.42L480.86 213.39L480.86 213.36L480.86 213.33L480.86 213.3L480.87 213.27L480.87 213.23L480.88 213.2L480.89 213.17L480.9 213.14L480.91 213.11L480.93 213.08L480.94 213.05L480.96 213.03L480.98 213L481 212.97L481.02 212.94L481.02 212.94L481.04 212.91L481.07 212.89L481.09 212.87L481.11 212.85L481.14 212.83L481.16 212.81L481.19 212.8L481.22 212.78L481.24 212.77L481.27 212.76L481.3 212.75L481.33 212.74L481.36 212.73L481.39 212.73L481.42 212.72L481.45 212.72L481.48 212.72L481.51 212.72L481.54 212.72L481.57 212.73L481.6 212.73L481.62 212.74L481.65 212.75L481.68 212.76L481.71 212.77L481.74 212.78L481.77 212.79L481.79 212.81L481.82 212.83L481.84 212.85L481.87 212.87L481.89 212.89L486.4 217.23L486.93 219.52L486.94 219.53L487 219.59L487.03 219.6L487.06 219.59L487.53 219.47L487.56 219.45L487.59 219.43L487.61 219.4L487.61 219.37L487.61 219.33L487.33 218.13L486.4 217.23L483.83 206.1L483.83 206.07L483.84 206.04L483.85 206.01L483.88 205.98L483.91 205.97L484.38 205.84L484.42 205.84L484.45 205.85L484.48 205.86ZM471.8 232.82L471.82 232.84L480.74 242.56L479.75 242.56L480.33 243.2L480.36 243.22L480.38 243.23L479.77 243.9L472.54 243.9L472.5 243.9L472.47 243.89L472.44 243.89L472.41 243.88L472.38 243.88L472.35 243.87L472.32 243.86L472.29 243.84L472.26 243.83L472.23 243.82L472.21 243.8L472.18 243.78L472.16 243.77L472.13 243.75L472.11 243.73L472.09 243.7L472.07 243.68L472.05 243.66L472.03 243.63L472.01 243.61L472 243.58L471.98 243.55L471.97 243.53L471.96 243.5L471.95 243.47L471.94 243.44L471.93 243.41L471.93 243.38L471.92 243.34L471.92 243.31L471.92 243.28L471.92 243.18L471.92 243.15L471.92 243.12L471.93 243.08L471.93 243.05L471.94 243.02L471.95 242.99L471.96 242.96L471.97 242.93L471.98 242.91L472 242.88L472.01 242.85L472.03 242.83L472.05 242.8L472.07 242.78L472.09 242.76L472.11 242.73L472.13 242.71L472.16 242.69L472.18 242.68L472.21 242.66L472.23 242.64L472.26 242.63L472.29 242.62L472.32 242.6L472.35 242.59L472.38 242.59L472.41 242.58L472.44 242.57L472.47 242.57L472.5 242.57L472.54 242.56L479.75 242.56L471.32 233.37L471.3 233.34L471.29 233.31L471.29 233.28L471.3 233.24L471.32 233.22L471.68 232.84L471.7 232.82L471.73 232.81L471.77 232.81L471.8 232.82ZM504.85 200.25L504.87 200.28L512.08 210.89L512.08 211.85L512.03 211.89L512 211.91L511.96 211.92L511.93 211.91L511.9 211.9L511.88 211.87L504.3 200.73L504.29 200.69L504.28 200.66L504.29 200.63L504.3 200.6L504.33 200.57L504.72 200.26L504.75 200.24L504.79 200.23L504.82 200.24L504.85 200.25Z" id="a6l2kwG64i"></path><path d="M396.25 312.22L396.28 312.24L396.3 312.27L396.32 312.3L396.32 312.33L394.86 325.16L394.02 325.93L394 326.13L394 326.16L394.01 326.19L394.03 326.22L394.06 326.24L394.1 326.25L394.62 326.31L394.65 326.31L394.68 326.3L394.71 326.28L394.73 326.25L394.74 326.21L394.86 325.16L401.17 319.37L401.19 319.35L401.22 319.33L401.24 319.31L401.27 319.3L401.29 319.28L401.32 319.27L401.35 319.26L401.38 319.24L401.41 319.23L401.43 319.23L401.46 319.22L401.49 319.21L401.52 319.21L401.55 319.2L401.58 319.2L401.61 319.2L401.64 319.2L401.67 319.21L401.7 319.21L401.73 319.21L401.76 319.22L401.79 319.23L401.81 319.24L401.84 319.25L401.87 319.26L401.9 319.27L401.92 319.29L401.95 319.3L401.98 319.32L402 319.34L402.02 319.36L402.05 319.38L402.07 319.4L402.09 319.43L402.09 319.43L402.11 319.45L402.13 319.48L402.15 319.51L402.17 319.53L402.18 319.56L402.2 319.59L402.21 319.62L402.22 319.64L402.23 319.67L402.24 319.7L402.25 319.73L402.25 319.76L402.26 319.79L402.26 319.82L402.26 319.85L402.26 319.88L402.26 319.91L402.26 319.94L402.25 319.97L402.25 320L402.24 320.03L402.23 320.06L402.23 320.09L402.22 320.12L402.2 320.15L402.19 320.18L402.18 320.2L402.16 320.23L402.14 320.26L402.13 320.28L402.11 320.31L402.09 320.33L402.06 320.35L402.04 320.38L395.52 326.36L393.33 326.57L393.21 326.67L393.21 326.69L393.26 327.23L393.27 327.27L393.29 327.3L393.31 327.32L393.34 327.33L393.38 327.33L394.59 327.22L395.52 326.36L406.84 325.29L406.88 325.3L406.91 325.31L406.94 325.33L406.95 325.36L406.96 325.39L407.01 325.94L407.01 325.97L407 326.01L406.97 326.03L406.95 326.05L406.91 326.06L394.59 327.22L371.91 348.03L370.64 348.03L370.64 348.41L371.07 348.8L370.63 349.21L370.63 349.38L370.44 349.38L370.09 349.71L370.62 350.2L370.37 385.77L377.67 396L377.69 396.04L377.69 396.07L377.69 396.1L377.67 396.13L377.65 396.16L377.22 396.48L377.19 396.5L377.16 396.5L377.12 396.5L377.09 396.48L377.07 396.46L370.36 387.05L370.37 385.77L369.63 384.74L369.61 384.71L369.58 384.7L369.54 384.69L369.51 384.7L369.48 384.71L369.07 385.03L369.06 385.24L369.22 385.45L369.06 385.67L369.05 386.98L361.91 397L361.88 397.02L361.85 397.04L361.82 397.04L361.79 397.04L361.75 397.02L361.33 396.7L361.3 396.68L361.29 396.65L361.28 396.61L361.29 396.58L361.3 396.55L369.06 385.67L369.06 385.24L369.03 385.19L369.01 385.16L369.01 385.12L369.01 385.09L369.03 385.06L369.05 385.03L369.07 385.03L369.31 350.41L370.09 349.71L369.73 349.38L370.44 349.38L370.63 349.21L370.64 348.41L370.23 348.03L370.64 348.03L370.64 347.39L393.21 326.67L393.21 326.65L393.23 326.62L393.25 326.59L393.28 326.58L393.31 326.57L393.33 326.57L394.02 325.93L395.58 312.24L395.59 312.21L395.61 312.18L395.63 312.16L395.67 312.15L395.7 312.15L396.22 312.21L396.25 312.22ZM369.5 385.25L369.92 385.57L369.95 385.6L369.96 385.63L369.97 385.66L369.96 385.7L369.94 385.73L369.68 386.1L370.36 387.05L370.32 392.9L370.32 392.94L370.31 392.97L370.31 393L370.31 393.03L370.3 393.06L370.29 393.09L370.28 393.12L370.27 393.14L370.26 393.17L370.25 393.2L370.23 393.22L370.22 393.25L370.2 393.27L370.18 393.3L370.16 393.32L370.14 393.34L370.12 393.36L370.1 393.39L370.08 393.4L370.06 393.42L370.03 393.44L370.01 393.46L369.98 393.47L369.95 393.49L369.93 393.5L369.9 393.51L369.87 393.52L369.84 393.53L369.81 393.54L369.78 393.54L369.75 393.55L369.72 393.55L369.69 393.55L369.66 393.55L369.63 393.55L369.6 393.55L369.56 393.55L369.53 393.54L369.5 393.53L369.48 393.53L369.45 393.52L369.42 393.51L369.39 393.49L369.36 393.48L369.34 393.47L369.31 393.45L369.29 393.43L369.26 393.42L369.24 393.4L369.22 393.38L369.2 393.36L369.18 393.34L369.16 393.31L369.14 393.29L369.12 393.27L369.11 393.24L369.09 393.22L369.08 393.19L369.06 393.16L369.05 393.13L369.04 393.11L369.03 393.08L369.03 393.05L369.02 393.02L369.01 392.99L369.01 392.96L369.01 392.93L369.01 392.89L369.05 386.98L369.68 386.1L369.22 385.45L369.34 385.28L369.37 385.25L369.4 385.24L369.43 385.23L369.46 385.24L369.5 385.25ZM378.18 306.06L378.6 306.38L378.63 306.41L378.64 306.44L378.65 306.47L378.64 306.51L378.63 306.54L370.86 317.43L370.64 347.39L370.09 347.9L370.23 348.03L369.94 348.03L369.33 348.6L369.32 349.01L369.73 349.38L369.32 349.38L369.31 350.41L347.18 370.73L343.11 383.63L343.09 383.66L343.07 383.69L343.04 383.7L343 383.71L342.97 383.7L342.47 383.53L342.44 383.52L342.41 383.49L342.4 383.46L342.39 383.43L342.4 383.39L346.08 371.74L347.18 370.73L347.3 370.34L347.31 370.3L347.3 370.27L347.29 370.24L347.26 370.21L347.23 370.2L346.73 370.03L346.7 370.02L346.66 370.03L346.63 370.05L346.61 370.07L346.59 370.1L346.46 370.52L346.49 370.9L346.49 370.94L346.47 370.97L346.45 371L346.42 371.01L346.39 371.02L346.3 371.03L346.08 371.74L340.68 376.69L340.65 376.72L340.63 376.74L340.6 376.75L340.58 376.77L340.55 376.79L340.52 376.8L340.5 376.81L340.47 376.82L340.44 376.83L340.41 376.84L340.38 376.85L340.35 376.85L340.32 376.86L340.29 376.86L340.26 376.86L340.23 376.86L340.21 376.86L340.18 376.86L340.15 376.86L340.12 376.85L340.09 376.85L340.06 376.84L340.03 376.83L340 376.82L339.98 376.81L339.95 376.79L339.92 376.78L339.9 376.76L339.87 376.75L339.85 376.73L339.82 376.71L339.8 376.69L339.78 376.67L339.75 376.64L339.75 376.64L339.73 376.61L339.71 376.59L339.69 376.56L339.68 376.54L339.66 376.51L339.65 376.48L339.64 376.45L339.63 376.42L339.62 376.39L339.61 376.36L339.6 376.33L339.59 376.3L339.59 376.27L339.59 376.24L339.59 376.21L339.59 376.18L339.59 376.15L339.59 376.12L339.59 376.09L339.6 376.06L339.6 376.03L339.61 376L339.62 375.98L339.63 375.95L339.64 375.92L339.66 375.89L339.67 375.86L339.69 375.84L339.7 375.81L339.72 375.78L339.74 375.76L339.76 375.74L339.78 375.71L339.81 375.69L344.75 371.15L346.3 371.03L346.46 370.52L346.45 370.36L346.44 370.32L346.42 370.29L346.4 370.27L346.37 370.26L346.33 370.26L345.67 370.31L344.75 371.15L332.84 372.1L332.81 372.1L332.78 372.09L332.75 372.07L332.73 372.04L332.72 372L332.68 371.45L332.69 371.42L332.7 371.39L332.72 371.36L332.75 371.35L332.78 371.34L345.67 370.31L368.47 349.38L369.32 349.38L369.32 349.01L369.1 348.8L369.33 348.6L369.33 348.03L369.94 348.03L370.09 347.9L369.34 347.21L369.55 316.98L369.92 316.7L369.95 316.68L369.96 316.64L369.97 316.61L369.96 316.58L369.94 316.55L369.56 316L369.61 308.28L369.61 308.25L369.62 308.22L369.62 308.19L369.63 308.16L369.63 308.13L369.64 308.1L369.65 308.07L369.66 308.04L369.67 308.01L369.69 307.99L369.7 307.96L369.72 307.94L369.73 307.91L369.75 307.89L369.77 307.86L369.79 307.84L369.81 307.82L369.83 307.8L369.85 307.78L369.88 307.76L369.9 307.75L369.92 307.73L369.95 307.71L369.98 307.7L370 307.69L370.03 307.68L370.06 307.67L370.09 307.66L370.12 307.65L370.15 307.64L370.18 307.64L370.21 307.63L370.24 307.63L370.27 307.63L370.3 307.63L370.34 307.64L370.37 307.64L370.4 307.64L370.43 307.65L370.46 307.66L370.49 307.67L370.51 307.68L370.54 307.69L370.57 307.7L370.59 307.72L370.62 307.73L370.64 307.75L370.67 307.77L370.69 307.79L370.71 307.81L370.73 307.83L370.75 307.85L370.77 307.87L370.79 307.89L370.81 307.92L370.83 307.94L370.84 307.97L370.85 308L370.87 308.02L370.88 308.05L370.89 308.08L370.9 308.11L370.91 308.14L370.91 308.17L370.92 308.2L370.92 308.23L370.92 308.26L370.92 308.29L370.87 316.12L369.99 317.36L369.97 317.39L369.97 317.42L369.97 317.46L369.99 317.49L370.01 317.51L370.44 317.83L370.47 317.85L370.5 317.85L370.53 317.85L370.56 317.83L370.59 317.81L370.86 317.43L370.87 316.12L378.03 306.09L378.05 306.06L378.08 306.05L378.11 306.04L378.15 306.05L378.18 306.06ZM413.43 342.1L413.46 342.12L413.47 342.15L413.7 342.65L413.71 342.68L413.71 342.72L413.7 342.75L413.68 342.78L413.65 342.8L402.71 348.03L400.97 348.03L400.96 348.05L400.95 348.08L400.95 348.11L400.96 348.15L401.18 348.64L401.2 348.67L401.23 348.69L401.26 348.71L401.29 348.71L401.33 348.7L402.71 348.03L409.86 348.03L409.89 348.03L409.92 348.04L409.96 348.04L409.99 348.05L410.02 348.05L410.05 348.06L410.08 348.07L410.11 348.08L410.14 348.09L410.16 348.11L410.19 348.12L410.22 348.14L410.24 348.16L410.27 348.17L410.29 348.19L410.31 348.21L410.33 348.24L410.35 348.26L410.37 348.28L410.39 348.31L410.41 348.33L410.42 348.36L410.44 348.38L410.45 348.41L410.47 348.44L410.48 348.47L410.49 348.5L410.49 348.53L410.5 348.56L410.51 348.59L410.51 348.62L410.51 348.66L410.51 348.69L410.51 348.73L410.51 348.76L410.51 348.79L410.51 348.82L410.5 348.85L410.49 348.88L410.49 348.91L410.48 348.94L410.47 348.97L410.45 349L410.44 349.03L410.42 349.06L410.41 349.08L410.39 349.11L410.37 349.13L410.35 349.16L410.33 349.18L410.31 349.2L410.29 349.22L410.27 349.24L410.24 349.26L410.22 349.27L410.19 349.29L410.16 349.31L410.14 349.32L410.11 349.33L410.08 349.34L410.05 349.35L410.02 349.36L409.99 349.37L409.96 349.37L409.92 349.38L409.89 349.38L409.86 349.38L402.13 349.38L411.07 358.68L411.09 358.71L411.1 358.74L411.1 358.77L411.09 358.8L411.07 358.83L410.69 359.22L410.66 359.24L410.63 359.25L410.6 359.25L410.57 359.24L410.54 359.22L401.08 349.38L402.13 349.38L401.51 348.74L401.48 348.72L401.45 348.71L401.42 348.71L401.39 348.72L401.36 348.74L400.98 349.12L400.96 349.15L400.95 349.18L400.95 349.22L400.96 349.25L400.98 349.28L401.08 349.38L371.7 349.38L392.47 368.44L392.31 368.45L392.28 368.46L392.25 368.47L392.23 368.5L392.21 368.53L392.21 368.56L392.23 369.11L392.23 369.15L392.25 369.18L392.27 369.2L392.31 369.21L392.34 369.22L393.27 369.18L392.47 368.44L405.89 367.91L405.93 367.91L405.96 367.92L405.98 367.95L406 367.98L406 368.01L406.02 368.56L406.02 368.59L406.01 368.63L405.98 368.65L405.95 368.67L405.92 368.67L393.27 369.18L398.9 374.34L398.92 374.37L398.94 374.39L398.96 374.41L398.98 374.44L399 374.46L399.02 374.49L399.03 374.52L399.05 374.54L399.06 374.57L399.07 374.6L399.08 374.63L399.09 374.66L399.1 374.69L399.11 374.72L399.11 374.75L399.11 374.78L399.12 374.81L399.12 374.84L399.12 374.87L399.12 374.9L399.11 374.93L399.11 374.96L399.1 374.99L399.1 375.02L399.09 375.05L399.08 375.08L399.07 375.1L399.05 375.13L399.04 375.16L399.02 375.19L399.01 375.22L398.99 375.24L398.97 375.27L398.95 375.29L398.95 375.3L398.93 375.32L398.9 375.34L398.88 375.36L398.86 375.38L398.83 375.4L398.81 375.42L398.78 375.43L398.75 375.45L398.73 375.46L398.7 375.47L398.67 375.48L398.64 375.49L398.61 375.5L398.59 375.51L398.56 375.51L398.53 375.51L398.5 375.52L398.47 375.52L398.44 375.52L398.41 375.52L398.38 375.51L398.35 375.51L398.32 375.5L398.29 375.5L398.26 375.49L398.23 375.48L398.21 375.47L398.18 375.45L398.15 375.44L398.12 375.42L398.1 375.41L398.07 375.39L398.05 375.37L398.02 375.35L392.28 370.07L391.93 368.65L391.92 368.61L391.89 368.59L391.86 368.57L391.83 368.56L391.8 368.57L391.29 368.7L391.25 368.71L391.23 368.73L391.21 368.76L391.2 368.8L391.21 368.83L391.29 369.16L392.28 370.07L395.22 382.21L395.22 382.24L395.21 382.28L395.2 382.31L395.17 382.33L395.14 382.34L394.63 382.47L394.59 382.48L394.56 382.47L394.53 382.45L394.51 382.42L394.49 382.39L391.29 369.16L370.62 350.2L370.63 349.38L371.7 349.38L371.07 348.8L371.91 348.03L400.97 348.03L400.98 348.02L401.01 348L413.33 342.1L413.36 342.09L413.4 342.09L413.43 342.1ZM340.28 310.92L340.3 310.95L340.31 310.98L343.31 323.32L369.34 347.21L369.33 348.03L368.26 348.03L369.1 348.8L368.47 349.38L336.33 349.38L327.52 358.54L327.49 358.56L327.46 358.57L327.43 358.57L327.39 358.56L327.37 358.54L326.99 358.16L326.97 358.13L326.96 358.1L326.96 358.06L326.97 358.03L326.99 358L335.28 349.38L336.33 349.38L337.08 348.61L337.1 348.58L337.11 348.54L337.11 348.51L337.1 348.48L337.08 348.45L336.7 348.07L336.67 348.05L336.64 348.04L336.61 348.04L336.57 348.05L336.55 348.07L336.44 348.18L336.44 348.2L336.44 348.23L336.43 348.26L336.41 348.29L336.04 348.67L336.01 348.7L335.98 348.71L335.94 348.71L335.93 348.7L336.44 348.18L336.43 348.16L336.41 348.13L336.32 348.03L368.26 348.03L342.96 324.81L342.94 324.8L342.91 324.79L342.89 324.76L342.88 324.74L342.35 324.25L342.35 324.25L342.37 324.22L342.39 324.19L342.39 324.16L342.37 323.61L342.36 323.57L342.35 323.54L342.32 323.52L342.29 323.51L342.26 323.5L341.57 323.53L342.35 324.25L342.32 324.26L342.29 324.27L328.71 324.81L328.67 324.81L328.64 324.79L328.62 324.77L328.6 324.74L328.59 324.71L328.57 324.16L328.58 324.12L328.59 324.09L328.61 324.07L328.64 324.05L328.68 324.05L341.57 323.53L336.66 319.03L336.64 319.01L336.62 318.98L336.6 318.96L336.58 318.94L336.56 318.91L336.54 318.88L336.53 318.86L336.51 318.83L336.5 318.8L336.49 318.77L336.48 318.75L336.47 318.72L336.46 318.69L336.45 318.66L336.45 318.63L336.45 318.6L336.44 318.57L336.44 318.54L336.44 318.51L336.44 318.48L336.45 318.45L336.45 318.42L336.46 318.39L336.46 318.36L336.47 318.33L336.48 318.3L336.49 318.27L336.51 318.24L336.52 318.21L336.53 318.19L336.55 318.16L336.57 318.13L336.59 318.11L336.61 318.08L336.61 318.08L336.63 318.05L336.66 318.03L336.68 318.01L336.7 317.99L336.73 317.97L336.75 317.96L336.78 317.94L336.81 317.93L336.83 317.91L336.86 317.9L336.89 317.89L336.92 317.88L336.94 317.87L336.97 317.87L337 317.86L337.03 317.86L337.06 317.86L337.09 317.86L337.12 317.86L337.15 317.86L337.18 317.86L337.21 317.87L337.24 317.87L337.27 317.88L337.3 317.89L337.33 317.9L337.35 317.91L337.38 317.92L337.41 317.93L337.43 317.95L337.46 317.97L337.49 317.99L337.51 318L337.53 318.03L342.32 322.42L342.88 324.73L342.88 324.74L342.96 324.81L342.98 324.81L343.01 324.81L343.52 324.68L343.55 324.66L343.58 324.64L343.6 324.61L343.6 324.58L343.6 324.54L343.31 323.32L342.32 322.42L339.59 311.17L339.59 311.13L339.6 311.1L339.61 311.07L339.64 311.05L339.67 311.03L340.18 310.9L340.22 310.9L340.25 310.91L340.28 310.92ZM326.83 338.18L326.85 338.2L336.32 348.03L335.27 348.03L335.88 348.67L335.91 348.69L335.93 348.7L335.28 349.38L327.61 349.38L327.58 349.38L327.55 349.38L327.52 349.37L327.48 349.37L327.45 349.36L327.42 349.35L327.39 349.34L327.36 349.33L327.34 349.32L327.31 349.31L327.28 349.29L327.26 349.27L327.23 349.26L327.21 349.24L327.18 349.22L327.16 349.2L327.14 349.18L327.12 349.16L327.1 349.13L327.08 349.11L327.06 349.08L327.05 349.06L327.03 349.03L327.02 349L327.01 348.97L326.99 348.94L326.98 348.91L326.98 348.88L326.97 348.85L326.96 348.82L326.96 348.79L326.96 348.76L326.96 348.73L326.96 348.69L326.96 348.66L326.96 348.62L326.96 348.59L326.97 348.56L326.98 348.53L326.98 348.5L326.99 348.47L327.01 348.44L327.02 348.41L327.03 348.38L327.05 348.36L327.06 348.33L327.08 348.31L327.1 348.28L327.12 348.26L327.14 348.24L327.16 348.21L327.18 348.19L327.21 348.17L327.23 348.16L327.26 348.14L327.28 348.12L327.31 348.11L327.34 348.09L327.36 348.08L327.39 348.07L327.42 348.06L327.45 348.05L327.48 348.05L327.52 348.04L327.55 348.04L327.58 348.03L327.61 348.03L335.27 348.03L326.32 338.74L326.3 338.71L326.29 338.68L326.29 338.64L326.3 338.61L326.33 338.58L326.7 338.2L326.73 338.18L326.76 338.17L326.79 338.17L326.83 338.18ZM361.88 305.25L361.91 305.28L369.56 316L369.55 316.98L369.5 317.02L369.46 317.04L369.43 317.04L369.4 317.04L369.37 317.02L369.34 317L361.3 305.73L361.29 305.7L361.28 305.66L361.29 305.63L361.3 305.6L361.33 305.57L361.75 305.25L361.79 305.24L361.82 305.23L361.85 305.24L361.88 305.25Z" id="ck5lzSDO"></path><path d="M146.64 266.76L145.89 267.4L145.86 267.65L146.53 267.72L146.64 266.76L152.3 261.98L152.33 261.96L152.36 261.94L152.38 261.92L152.41 261.9L152.44 261.89L152.47 261.88L152.5 261.87L152.53 261.86L152.56 261.85L152.59 261.84L152.62 261.84L152.65 261.84L152.68 261.83L152.71 261.84L152.74 261.84L152.77 261.84L152.8 261.85L152.83 261.85L152.86 261.86L152.89 261.87L152.92 261.88L152.95 261.89L152.98 261.91L153.01 261.92L153.03 261.94L153.06 261.96L153.08 261.98L153.11 262L153.13 262.02L153.15 262.05L153.17 262.07L153.19 262.1L153.21 262.12L153.22 262.15L153.23 262.18L153.24 262.21L153.25 262.23L153.26 262.26L153.27 262.29L153.27 262.32L153.28 262.35L153.28 262.38L153.28 262.41L153.28 262.44L153.27 262.47L153.27 262.5L153.26 262.53L153.25 262.56L153.24 262.58L153.23 262.61L153.22 262.64L153.21 262.66L153.19 262.69L153.17 262.72L153.15 262.74L153.13 262.76L153.11 262.79L153.09 262.81L147.24 267.75L145.27 267.92L145.17 268.01L145.22 268.56L146.4 268.46L147.24 267.75L157.49 266.86L157.55 267.49L146.4 268.46L126.06 285.64L124.92 285.64L124.92 285.95L125.31 286.28L124.91 286.61L124.91 286.75L124.74 286.75L124.43 287.02L124.91 287.43L124.68 316.79L131.28 325.32L130.75 325.69L124.67 317.85L124.68 316.79L123.96 315.87L123.51 316.18L123.51 316.35L123.65 316.53L123.51 316.71L123.5 317.8L117.03 326.14L116.49 325.76L123.51 316.71L123.51 316.35L123.42 316.24L123.51 316.18L123.73 287.61L124.43 287.02L124.11 286.75L124.74 286.75L124.91 286.61L124.92 285.95L124.56 285.64L124.92 285.64L124.93 285.11L145.17 268.01L145.16 267.93L145.27 267.92L145.89 267.4L147.3 256L147.96 256.08L146.64 266.76ZM124.06 317.07L124.67 317.85L124.63 322.67L124.63 322.7L124.63 322.73L124.63 322.76L124.62 322.79L124.61 322.82L124.6 322.85L124.59 322.88L124.58 322.91L124.56 322.94L124.55 322.96L124.53 322.99L124.51 323.01L124.49 323.04L124.47 323.06L124.45 323.08L124.42 323.1L124.4 323.12L124.37 323.13L124.35 323.15L124.32 323.16L124.29 323.18L124.26 323.19L124.23 323.2L124.2 323.21L124.17 323.21L124.14 323.22L124.11 323.22L124.07 323.22L124.01 323.22L123.98 323.22L123.95 323.21L123.92 323.21L123.88 323.2L123.85 323.19L123.82 323.18L123.8 323.17L123.77 323.16L123.74 323.15L123.71 323.13L123.69 323.11L123.66 323.09L123.64 323.07L123.62 323.05L123.6 323.03L123.58 323.01L123.56 322.98L123.54 322.96L123.53 322.93L123.51 322.9L123.5 322.88L123.49 322.85L123.48 322.82L123.47 322.79L123.47 322.76L123.46 322.72L123.46 322.69L123.46 322.66L123.5 317.8L124.06 317.07L123.65 316.53L123.82 316.31L124.36 316.69L124.06 317.07ZM125.12 260.38L124.93 285.11L124.43 285.53L124.56 285.64L124.29 285.64L123.74 286.11L123.74 286.44L124.11 286.75L123.74 286.75L123.73 287.61L103.88 304.38L100.2 315.11L99.56 314.92L102.89 305.21L103.88 304.38L104.02 303.97L103.39 303.77L103.24 304.2L103.27 304.61L103.1 304.62L102.89 305.21L98.05 309.3L98.02 309.32L98 309.34L97.97 309.36L97.94 309.38L97.91 309.39L97.88 309.4L97.85 309.41L97.82 309.42L97.79 309.43L97.76 309.44L97.73 309.44L97.7 309.44L97.67 309.45L97.64 309.45L97.61 309.44L97.58 309.44L97.55 309.44L97.52 309.43L97.49 309.42L97.46 309.41L97.43 309.4L97.4 309.39L97.37 309.37L97.35 309.36L97.32 309.34L97.29 309.32L97.27 309.3L97.25 309.28L97.22 309.26L97.2 309.23L97.18 309.21L97.16 309.18L97.15 309.16L97.13 309.13L97.12 309.1L97.11 309.07L97.1 309.05L97.09 309.02L97.08 308.99L97.08 308.96L97.08 308.93L97.08 308.9L97.08 308.87L97.08 308.84L97.08 308.81L97.09 308.78L97.09 308.75L97.1 308.73L97.11 308.7L97.12 308.67L97.13 308.64L97.15 308.62L97.16 308.59L97.18 308.56L97.2 308.54L97.22 308.52L97.24 308.5L97.27 308.47L101.7 304.73L103.1 304.62L103.24 304.2L103.22 303.98L102.53 304.03L101.7 304.73L90.93 305.52L90.87 304.89L102.53 304.03L122.98 286.75L123.74 286.75L123.74 286.44L123.54 286.28L123.74 286.11L123.75 285.64L124.29 285.64L124.43 285.53L123.75 284.96L123.95 260L124.36 259.72L123.95 259.2L124 252.84L124 252.81L124.01 252.77L124.01 252.74L124.02 252.71L124.03 252.68L124.04 252.65L124.05 252.62L124.06 252.59L124.07 252.57L124.09 252.54L124.11 252.52L124.13 252.49L124.15 252.47L124.17 252.45L124.19 252.43L124.21 252.41L124.24 252.39L124.26 252.37L124.29 252.36L124.32 252.34L124.35 252.33L124.37 252.32L124.4 252.31L124.43 252.3L124.47 252.29L124.5 252.29L124.53 252.29L124.56 252.29L124.62 252.29L124.66 252.29L124.69 252.29L124.72 252.3L124.75 252.3L124.78 252.31L124.81 252.32L124.84 252.33L124.87 252.35L124.9 252.36L124.92 252.38L124.95 252.39L124.97 252.41L124.99 252.43L125.02 252.45L125.04 252.47L125.06 252.5L125.08 252.52L125.09 252.55L125.11 252.57L125.12 252.6L125.13 252.63L125.15 252.66L125.15 252.69L125.16 252.72L125.17 252.75L125.17 252.78L125.18 252.81L125.18 252.85L125.13 259.3L124.28 260.39L124.82 260.76L125.12 260.38L125.13 259.3L131.6 250.94L132.14 251.31L125.12 260.38ZM153.69 285.64L152.1 285.64L152.07 285.65L152.36 286.23L153.69 285.64L160.13 285.64L160.16 285.64L160.19 285.64L160.22 285.65L160.25 285.65L160.28 285.66L160.3 285.67L160.33 285.68L160.36 285.69L160.38 285.7L160.41 285.72L160.43 285.73L160.46 285.75L160.48 285.76L160.5 285.78L160.52 285.8L160.54 285.82L160.56 285.85L160.58 285.87L160.59 285.89L160.61 285.92L160.62 285.94L160.63 285.97L160.65 285.99L160.66 286.02L160.66 286.05L160.67 286.08L160.68 286.11L160.68 286.14L160.68 286.17L160.68 286.2L160.68 286.23L160.68 286.26L160.68 286.29L160.67 286.32L160.66 286.34L160.66 286.37L160.65 286.4L160.63 286.43L160.62 286.45L160.61 286.48L160.59 286.5L160.58 286.52L160.56 286.55L160.54 286.57L160.52 286.59L160.5 286.61L160.48 286.63L160.46 286.64L160.43 286.66L160.41 286.68L160.38 286.69L160.36 286.7L160.33 286.71L160.3 286.72L160.28 286.73L160.25 286.74L160.22 286.74L160.19 286.75L160.16 286.75L160.13 286.75L153.16 286.75L161.25 294.49L160.77 294.94L152.22 286.75L153.16 286.75L152.54 286.16L152.07 286.6L152.22 286.75L125.87 286.75L144.5 302.49L144.26 302.5L144.29 303.13L145.22 303.1L144.5 302.49L156.64 302.04L156.66 302.68L145.22 303.1L150.27 307.36L150.29 307.38L150.31 307.41L150.33 307.43L150.35 307.45L150.37 307.48L150.39 307.5L150.4 307.53L150.41 307.56L150.42 307.59L150.43 307.61L150.44 307.64L150.45 307.67L150.45 307.7L150.46 307.73L150.46 307.76L150.46 307.79L150.46 307.82L150.45 307.85L150.45 307.88L150.44 307.91L150.44 307.93L150.43 307.96L150.41 307.99L150.4 308.02L150.39 308.04L150.37 308.07L150.35 308.1L150.33 308.12L150.31 308.14L150.29 308.17L150.26 308.19L150.24 308.21L150.21 308.23L150.19 308.25L150.16 308.26L150.13 308.28L150.1 308.29L150.07 308.3L150.04 308.31L150.01 308.32L149.98 308.32L149.95 308.33L149.92 308.33L149.89 308.33L149.86 308.33L149.83 308.33L149.8 308.33L149.77 308.32L149.74 308.32L149.71 308.31L149.68 308.3L149.65 308.29L149.62 308.28L149.59 308.26L149.56 308.25L149.54 308.23L149.51 308.21L149.49 308.19L144.33 303.83L143.99 302.57L143.34 302.72L143.44 303.08L144.33 303.83L146.99 313.94L146.34 314.09L143.44 303.08L124.91 287.43L124.91 286.75L125.87 286.75L125.31 286.28L126.06 285.64L152.1 285.64L163.3 280.7L163.58 281.28L153.69 285.64ZM123.75 284.96L123.75 285.64L122.79 285.64L123.54 286.28L122.98 286.75L94.15 286.75L86.18 294.38L85.71 293.94L93.21 286.75L94.15 286.75L94.89 286.05L94.45 285.64L122.79 285.64L100.11 266.48L100.7 266.34L100.41 265.24L99.52 264.49L97.05 255.12L97.7 254.96L100.41 265.24L123.75 284.96ZM93.2 285.64L93.79 286.2L93.21 286.75L86.3 286.75L86.27 286.75L86.24 286.75L86.21 286.74L86.18 286.74L86.15 286.73L86.13 286.72L86.1 286.71L86.07 286.7L86.05 286.69L86.02 286.68L86 286.66L85.97 286.64L85.95 286.63L85.93 286.61L85.91 286.59L85.89 286.57L85.87 286.55L85.85 286.52L85.84 286.5L85.82 286.48L85.81 286.45L85.8 286.43L85.78 286.4L85.77 286.37L85.77 286.34L85.76 286.32L85.75 286.29L85.75 286.26L85.75 286.23L85.75 286.2L85.75 286.17L85.75 286.14L85.75 286.11L85.76 286.08L85.77 286.05L85.77 286.02L85.78 285.99L85.8 285.97L85.81 285.94L85.82 285.92L85.84 285.89L85.85 285.87L85.87 285.85L85.89 285.82L85.91 285.8L85.93 285.78L85.95 285.76L85.97 285.75L86 285.73L86.02 285.72L86.05 285.7L86.07 285.69L86.1 285.68L86.13 285.67L86.15 285.66L86.18 285.65L86.21 285.65L86.24 285.64L86.27 285.64L86.3 285.64L93.2 285.64L85.11 277.9L85.59 277.46L94.14 285.64L93.2 285.64ZM94.37 285.64L94.26 285.75L94.29 285.79L93.82 286.23L93.79 286.2L94.26 285.75L94.14 285.64L94.37 285.64L94.41 285.6L94.45 285.64L94.37 285.64ZM94.91 260.73L94.95 260.73L94.98 260.74L95.01 260.75L95.04 260.76L95.07 260.77L95.09 260.78L95.12 260.79L95.15 260.81L95.18 260.83L95.2 260.84L95.23 260.87L99.52 264.49L100.03 266.41L100.11 266.48L100.05 266.49L100.03 266.41L99.57 266.02L99.59 266.02L99.57 265.39L98.85 265.41L99.57 266.02L87.22 266.47L87.19 265.84L98.85 265.41L94.45 261.69L94.42 261.67L94.4 261.65L94.38 261.63L94.36 261.6L94.34 261.58L94.33 261.55L94.31 261.53L94.3 261.5L94.29 261.47L94.28 261.44L94.27 261.42L94.27 261.39L94.26 261.36L94.26 261.33L94.26 261.3L94.26 261.27L94.26 261.24L94.26 261.21L94.27 261.18L94.27 261.15L94.28 261.12L94.29 261.09L94.3 261.07L94.31 261.04L94.33 261.01L94.34 260.99L94.36 260.96L94.38 260.94L94.4 260.91L94.43 260.89L94.45 260.87L94.48 260.85L94.5 260.83L94.53 260.81L94.56 260.8L94.58 260.78L94.61 260.77L94.64 260.76L94.67 260.75L94.7 260.74L94.73 260.73L94.76 260.73L94.79 260.73L94.82 260.72L94.85 260.72L94.88 260.72L94.91 260.73ZM123.95 260L123.82 260.09L116.49 250.64L117.03 250.27L123.95 259.2L123.95 260Z" id="cfLJHEuft"></path><path d="M199.16 248.39C199.16 255.4 194.6 261.09 188.98 261.09C183.36 261.09 178.8 255.4 178.8 248.39C178.8 241.37 183.36 235.68 188.98 224.97C194.6 235.68 199.16 241.37 199.16 248.39Z" id="biW5DXEwZ"></path><path d="M292.52 384.33C292.52 391.35 288.4 397.04 283.31 397.04C278.22 397.04 274.09 391.35 274.09 384.33C274.09 377.32 278.22 371.63 283.31 360.92C288.4 371.63 292.52 377.32 292.52 384.33Z" id="b1cQLV4JmH"></path><path d="M380.16 267.1C380.16 273.54 376.72 278.76 372.48 278.76C368.24 278.76 364.8 273.54 364.8 267.1C364.8 260.67 368.24 255.45 372.48 245.63C376.72 255.45 380.16 260.67 380.16 267.1Z" id="falT6vfZke"></path><path d="M454.4 307.48C454.4 313.92 450.27 319.14 445.18 319.14C440.09 319.14 435.96 313.92 435.96 307.48C435.96 301.05 440.09 295.83 445.18 286.02C450.27 295.83 454.4 301.05 454.4 307.48Z" id="asroODapF"></path><path d="M435.96 232.08C435.96 238.13 432.53 243.03 428.29 243.03C424.05 243.03 420.61 238.13 420.61 232.08C420.61 226.04 424.05 221.13 428.29 211.91C432.53 221.13 435.96 226.04 435.96 232.08Z" id="a4QcSFvw6"></path><path d="M292.52 258.12C292.52 265.14 287.4 270.83 281.08 270.83C274.75 270.83 269.63 265.14 269.63 258.12C269.63 251.1 274.75 245.41 281.08 234.71C287.4 245.41 292.52 251.1 292.52 258.12Z" id="asNw00tST"></path><path d="M170.93 361.49C170.93 368.51 166.38 374.2 160.76 374.2C155.14 374.2 150.58 368.51 150.58 361.49C150.58 354.47 155.14 348.78 160.76 338.08C166.38 348.78 170.93 354.47 170.93 361.49Z" id="cnNugDdsZ"></path><path d="M240.11 319.43C240.11 326.45 235.55 332.14 229.93 332.14C224.31 332.14 219.76 326.45 219.76 319.43C219.76 312.41 224.31 306.72 229.93 296.02C235.55 306.72 240.11 312.41 240.11 319.43Z" id="es6YkJrZF"></path><path d="M484.4 367.33C484.4 373.77 480.27 378.98 475.18 378.98C470.09 378.98 465.96 373.77 465.96 367.33C465.96 360.89 470.09 355.68 475.18 345.86C480.27 355.68 484.4 360.89 484.4 367.33Z" id="i1wFQk8pbk"></path><path d="M553.71 318.98C553.71 325.42 549.58 330.64 544.49 330.64C539.4 330.64 535.28 325.42 535.28 318.98C535.28 312.55 539.4 307.33 544.49 297.52C549.58 307.33 553.71 312.55 553.71 318.98Z" id="b2HePMTzHT"></path></defs><g><g><g><use xlink:href="#b19GY1s22M" opacity="1" fill="#dbdbdb" fill-opacity="1"></use><g><use xlink:href="#b19GY1s22M" opacity="1" fill-opacity="0" stroke="#7b7b7b" stroke-width="4" stroke-opacity="1"></use></g></g><g><use xlink:href="#arTEIaTNL" opacity="1" fill="#dbdbdb" fill-opacity="1"></use><g><use xlink:href="#arTEIaTNL" opacity="1" fill-opacity="0" stroke="#7b7b7b" stroke-width="4" stroke-opacity="1"></use></g></g><g><use xlink:href="#a6l2kwG64i" opacity="1" fill="#888888" fill-opacity="1"></use></g><g><use xlink:href="#ck5lzSDO" opacity="1" fill="#888888" fill-opacity="1"></use></g><g><use xlink:href="#cfLJHEuft" opacity="1" fill="#888888" fill-opacity="1"></use></g><g><g><use xlink:href="#biW5DXEwZ" opacity="1" fill-opacity="0" stroke="#777777" stroke-width="2" stroke-opacity="1"></use></g></g><g><g><use xlink:href="#b1cQLV4JmH" opacity="1" fill-opacity="0" stroke="#777777" stroke-width="2" stroke-opacity="1"></use></g></g><g><g><use xlink:href="#falT6vfZke" opacity="1" fill-opacity="0" stroke="#777777" stroke-width="2" stroke-opacity="1"></use></g></g><g><g><use xlink:href="#asroODapF" opacity="1" fill-opacity="0" stroke="#777777" stroke-width="2" stroke-opacity="1"></use></g></g><g><g><use xlink:href="#a4QcSFvw6" opacity="1" fill-opacity="0" stroke="#777777" stroke-width="2" stroke-opacity="1"></use></g></g><g><g><use xlink:href="#asNw00tST" opacity="1" fill-opacity="0" stroke="#777777" stroke-width="2" stroke-opacity="1"></use></g></g><g><g><use xlink:href="#cnNugDdsZ" opacity="1" fill-opacity="0" stroke="#777777" stroke-width="2" stroke-opacity="1"></use></g></g><g><g><use xlink:href="#es6YkJrZF" opacity="1" fill-opacity="0" stroke="#777777" stroke-width="2" stroke-opacity="1"></use></g></g><g><g><use xlink:href="#i1wFQk8pbk" opacity="1" fill-opacity="0" stroke="#777777" stroke-width="2" stroke-opacity="1"></use></g></g><g><g><use xlink:href="#b2HePMTzHT" opacity="1" fill-opacity="0" stroke="#777777" stroke-width="2" stroke-opacity="1"></use></g></g></g></g></svg>