<?xml version="1.0" encoding="UTF-8" standalone="no"?>
<!DOCTYPE svg PUBLIC "-//W3C//DTD SVG 1.1//EN" "http://www.w3.org/Graphics/SVG/1.1/DTD/svg11.dtd">
<svg version="1.1" xmlns="http://www.w3.org/2000/svg" xmlns:xlink="http://www.w3.org/1999/xlink" preserveAspectRatio="xMidYMid meet" viewBox="0 0 640 640" width="640" height="640"><defs><path d="M281.61 24.18C327.06 24.21 363.89 58.28 363.85 100.26C363.85 101.84 363.8 103.42 363.68 104.97C396.51 111.38 420.63 132.78 420.61 158.18C420.61 158.18 420.61 158.18 420.61 158.18C420.59 188.62 385.91 213.26 343.15 213.23C323.74 213.21 168.39 213.09 148.98 213.07C106.23 213.04 71.59 188.34 71.61 157.9C71.61 157.9 71.61 157.9 71.61 157.9C71.63 131.37 97.99 109.24 133.07 104.03C136.24 75.26 162.55 52.82 194.53 52.85C201.55 52.86 208.29 53.95 214.59 55.94C229.55 36.69 253.99 24.16 281.61 24.18Z" id="h3TVVG0BvY"></path><path d="M440.09 3.15C480.2 3.19 512.69 35.99 512.66 76.43C512.66 77.95 512.62 79.47 512.51 80.96C541.48 87.14 562.77 107.75 562.75 132.21C562.75 132.21 562.75 132.21 562.75 132.21C562.72 161.53 532.12 185.27 494.39 185.24C477.25 185.22 340.16 185.11 323.02 185.1C285.3 185.07 254.73 161.28 254.75 131.97C254.75 131.97 254.75 131.97 254.75 131.97C254.77 106.41 278.04 85.09 309 80.07C311.79 52.36 335.02 30.75 363.23 30.77C369.43 30.78 375.38 31.83 380.94 33.75C394.14 15.21 415.72 3.13 440.09 3.15Z" id="a1A7K0QbyW"></path><path d="M194.51 278.74C194.9 278.74 195.22 279.06 195.22 279.45C195.22 279.61 195.22 279.36 195.22 279.52C195.22 279.91 194.9 280.23 194.51 280.23C176.41 280.23 122.83 280.23 104.73 280.23C104.34 280.23 104.02 279.91 104.02 279.52C104.02 279.36 104.02 279.61 104.02 279.45C104.02 279.06 104.34 278.74 104.73 278.74C122.83 278.74 176.41 278.74 194.51 278.74Z" id="axq6wp084"></path><path d="M150.58 234.64C150.58 234.25 150.9 233.93 151.3 233.94C151.44 233.94 151.15 233.93 151.3 233.94C151.69 233.94 152.01 234.26 152.01 234.66C151.87 253.57 151.48 309.59 151.35 328.51C151.34 328.9 151.02 329.22 150.63 329.22C150.48 329.21 150.77 329.22 150.63 329.22C150.23 329.21 149.91 328.89 149.92 328.5C150.05 309.58 150.44 253.56 150.58 234.64Z" id="b5ftQScvCK"></path><path d="M185.02 246.96C185.31 246.68 185.77 246.71 186.03 247.01C186.12 247.12 185.94 246.91 186.03 247.02C186.3 247.33 186.27 247.79 185.97 248.07C172.47 260.66 132.5 297.93 118.99 310.52C118.7 310.79 118.25 310.77 117.99 310.46C117.89 310.35 118.08 310.57 117.98 310.46C117.72 310.15 117.74 309.68 118.04 309.41C131.54 296.82 171.52 259.54 185.02 246.96Z" id="c1RySR8Pj2"></path><path d="M115.56 245.46C115.27 245.19 114.81 245.22 114.56 245.52C114.46 245.63 114.65 245.41 114.55 245.52C114.29 245.83 114.31 246.3 114.61 246.58C128.11 259.17 168.09 296.44 181.59 309.03C181.88 309.3 182.34 309.27 182.6 308.97C182.69 308.86 182.51 309.08 182.6 308.96C182.87 308.65 182.84 308.19 182.54 307.91C169.04 295.32 129.07 258.05 115.56 245.46Z" id="c1svsrdgoV"></path><path d="M179.73 239.15C179.73 239.08 179.69 239.02 179.62 239.01C179.48 238.99 179.19 238.96 179.05 238.94C178.99 238.93 178.93 238.98 178.92 239.05C178.57 242.15 177.54 251.34 177.19 254.44C177.19 254.51 177.24 254.57 177.3 254.58C177.44 254.6 177.73 254.63 177.87 254.65C177.93 254.66 178 254.61 178 254.54C178.35 251.44 179.38 242.25 179.73 239.15Z" id="ei6w9WWES"></path><path d="M191.29 254.37C191.36 254.36 191.4 254.3 191.4 254.24C191.39 254.09 191.36 253.77 191.34 253.63C191.34 253.56 191.28 253.52 191.22 253.52C188.24 253.81 179.42 254.65 176.44 254.93C176.38 254.94 176.33 255 176.34 255.06C176.35 255.21 176.38 255.53 176.39 255.67C176.4 255.74 176.45 255.79 176.52 255.78C179.5 255.5 188.31 254.65 191.29 254.37Z" id="a1Yspau7MD"></path><path d="M160.42 232.73C160.46 232.67 160.44 232.59 160.39 232.55C160.28 232.47 160.04 232.28 159.93 232.2C159.87 232.16 159.8 232.17 159.76 232.22C157.99 234.74 152.75 242.2 150.99 244.72C150.95 244.77 150.96 244.85 151.01 244.89C151.12 244.98 151.36 245.16 151.48 245.25C151.53 245.29 151.6 245.28 151.64 245.22C153.41 242.7 158.65 235.24 160.42 232.73Z" id="cACxiaP4w"></path><path d="M141.51 231.83C141.47 231.77 141.48 231.69 141.54 231.65C141.65 231.57 141.89 231.38 142 231.3C142.05 231.26 142.13 231.27 142.17 231.32C143.93 233.84 149.17 241.3 150.94 243.82C150.98 243.88 150.97 243.95 150.91 243.99C150.8 244.08 150.56 244.26 150.45 244.35C150.4 244.39 150.32 244.38 150.28 244.32C148.51 241.8 143.28 234.35 141.51 231.83Z" id="c3j3PVRQcB"></path><path d="M118.6 237.65C118.58 237.58 118.51 237.54 118.45 237.56C118.32 237.6 118.03 237.67 117.9 237.71C117.83 237.72 117.79 237.79 117.81 237.86C118.53 240.89 120.67 249.86 121.4 252.89C121.41 252.96 121.48 253 121.54 252.98C121.68 252.95 121.96 252.87 122.1 252.84C122.16 252.82 122.2 252.75 122.19 252.69C121.46 249.66 119.32 240.68 118.6 237.65Z" id="k69oAcHxI5"></path><path d="M105.9 252.14C105.83 252.14 105.78 252.2 105.78 252.26C105.79 252.41 105.8 252.73 105.81 252.87C105.81 252.94 105.86 252.99 105.93 252.99C108.92 252.87 117.76 252.51 120.75 252.38C120.82 252.38 120.87 252.33 120.86 252.26C120.86 252.12 120.85 251.79 120.84 251.65C120.84 251.58 120.78 251.53 120.72 251.54C117.73 251.66 108.88 252.02 105.9 252.14Z" id="ceR1Dh4lV"></path><path d="M103.91 267.83C103.86 267.78 103.78 267.78 103.74 267.83C103.64 267.93 103.43 268.15 103.33 268.26C103.28 268.3 103.28 268.38 103.33 268.43C105.43 270.65 111.66 277.23 113.76 279.45C113.81 279.5 113.88 279.5 113.93 279.45C114.03 279.35 114.24 279.13 114.34 279.02C114.38 278.98 114.39 278.9 114.34 278.85C112.24 276.63 106.01 270.05 103.91 267.83Z" id="cUmDUNECh"></path><path d="M114.48 278.77C114.53 278.73 114.61 278.73 114.65 278.77C114.75 278.88 114.96 279.1 115.06 279.2C115.11 279.25 115.11 279.32 115.06 279.37C112.96 281.59 106.73 288.17 104.63 290.39C104.59 290.44 104.51 290.44 104.46 290.39C104.36 290.29 104.15 290.07 104.05 289.97C104.01 289.92 104.01 289.84 104.05 289.79C106.16 287.57 112.38 281 114.48 278.77Z" id="b3vsho5j3T"></path><path d="M110.38 304.58C110.31 304.59 110.26 304.64 110.27 304.71C110.28 304.85 110.3 305.17 110.31 305.32C110.32 305.39 110.38 305.43 110.44 305.43C113.42 305.19 122.25 304.47 125.23 304.23C125.3 304.22 125.34 304.17 125.34 304.1C125.33 303.96 125.3 303.64 125.29 303.49C125.29 303.42 125.23 303.38 125.17 303.38C122.19 303.62 113.36 304.34 110.38 304.58Z" id="a6JNldMNR"></path><path d="M120.87 317.95C120.85 318.01 120.89 318.08 120.95 318.11C121.08 318.15 121.36 318.25 121.49 318.29C121.56 318.31 121.62 318.28 121.64 318.21C122.57 315.24 125.3 306.44 126.23 303.47C126.25 303.41 126.21 303.34 126.15 303.31C126.01 303.27 125.74 303.18 125.6 303.13C125.54 303.11 125.47 303.14 125.45 303.21C124.53 306.18 121.79 314.98 120.87 317.95Z" id="a3TGXZyssQ"></path><path d="M174.94 301.6C174.92 301.53 174.85 301.49 174.79 301.51C174.65 301.54 174.37 301.62 174.24 301.65C174.17 301.67 174.13 301.73 174.15 301.8C174.87 304.83 177.01 313.81 177.74 316.84C177.75 316.9 177.82 316.94 177.88 316.93C178.02 316.89 178.3 316.82 178.44 316.78C178.5 316.77 178.54 316.7 178.53 316.63C177.8 313.6 175.66 304.63 174.94 301.6Z" id="f1xHHKYRee"></path><path d="M175.35 301.38C175.29 301.38 175.24 301.44 175.24 301.5C175.24 301.65 175.26 301.97 175.26 302.11C175.26 302.18 175.32 302.23 175.38 302.23C178.37 302.11 187.22 301.75 190.21 301.63C190.27 301.62 190.32 301.57 190.32 301.5C190.32 301.36 190.3 301.03 190.3 300.89C190.3 300.82 190.24 300.77 190.18 300.78C187.19 300.9 178.34 301.26 175.35 301.38Z" id="aS8B43HJJ"></path><path d="M185.39 279.52C185.35 279.47 185.27 279.47 185.23 279.52C185.13 279.62 184.92 279.84 184.82 279.94C184.77 279.99 184.77 280.07 184.82 280.12C186.92 282.34 193.14 288.92 195.25 291.14C195.29 291.19 195.37 291.19 195.42 291.14C195.51 291.04 195.73 290.82 195.83 290.71C195.87 290.67 195.87 290.59 195.83 290.54C193.72 288.32 187.5 281.74 185.39 279.52Z" id="aql6zBVHv"></path><path d="M184.85 278.7C184.79 278.73 184.76 278.8 184.79 278.86C184.85 279 184.98 279.28 185.04 279.42C185.06 279.48 185.13 279.5 185.19 279.47C187.9 278.15 195.93 274.25 198.64 272.93C198.7 272.9 198.73 272.83 198.7 272.77C198.64 272.64 198.51 272.35 198.45 272.21C198.43 272.16 198.36 272.13 198.3 272.16C195.59 273.48 187.56 277.38 184.85 278.7Z" id="a16j0j8oJH"></path><path d="M150.94 320.54C150.98 320.48 150.97 320.41 150.91 320.37C150.8 320.28 150.56 320.1 150.45 320.01C150.4 319.97 150.32 319.98 150.28 320.04C148.51 322.56 143.28 330.01 141.51 332.53C141.47 332.59 141.48 332.67 141.54 332.71C141.65 332.79 141.89 332.98 142 333.06C142.05 333.1 142.13 333.09 142.17 333.04C143.93 330.52 149.17 323.06 150.94 320.54Z" id="b1B4x7mw4X"></path><path d="M149.94 319.94C149.9 319.88 149.91 319.81 149.97 319.77C150.08 319.68 150.32 319.5 150.43 319.41C150.48 319.37 150.56 319.38 150.6 319.44C152.37 321.96 157.6 329.41 159.37 331.93C159.41 331.99 159.4 332.07 159.34 332.11C159.23 332.19 158.99 332.38 158.88 332.46C158.83 332.5 158.75 332.49 158.72 332.44C156.95 329.92 151.71 322.46 149.94 319.94Z" id="a4MEiee0XP"></path><path d="M529.25 201.14L529.28 201.16L529.3 201.19L529.31 201.22L529.31 201.26L527.94 213.95L527.15 214.71L527.13 214.9L527.13 214.93L527.14 214.96L527.16 214.99L527.19 215.01L527.22 215.02L527.7 215.08L527.74 215.08L527.77 215.07L527.8 215.05L527.81 215.02L527.82 214.99L527.94 213.95L533.89 208.22L533.91 208.2L533.93 208.18L533.96 208.16L533.98 208.14L534.01 208.13L534.04 208.11L534.07 208.1L534.09 208.09L534.12 208.08L534.15 208.07L534.18 208.06L534.21 208.06L534.24 208.06L534.27 208.05L534.3 208.05L534.33 208.05L534.36 208.06L534.39 208.06L534.42 208.07L534.45 208.07L534.48 208.08L534.5 208.09L534.53 208.1L534.56 208.11L534.59 208.13L534.61 208.14L534.64 208.16L534.66 208.18L534.69 208.2L534.71 208.22L534.73 208.24L534.75 208.27L534.76 208.28L534.78 208.3L534.8 208.33L534.82 208.36L534.83 208.39L534.85 208.42L534.86 208.45L534.88 208.47L534.89 208.51L534.89 208.54L534.9 208.57L534.91 208.6L534.91 208.63L534.92 208.66L534.92 208.69L534.92 208.72L534.92 208.76L534.91 208.79L534.91 208.82L534.91 208.85L534.9 208.88L534.89 208.91L534.88 208.94L534.87 208.97L534.86 209L534.84 209.03L534.83 209.06L534.81 209.09L534.79 209.11L534.77 209.14L534.75 209.16L534.73 209.19L534.71 209.21L528.56 215.13L526.5 215.33L526.39 215.44L526.38 215.45L526.43 216L526.44 216.03L526.46 216.06L526.48 216.08L526.51 216.09L526.54 216.09L527.68 215.98L528.56 215.13L539.24 214.08L539.27 214.08L539.3 214.09L539.32 214.11L539.34 214.14L539.35 214.17L539.39 214.72L539.39 214.75L539.38 214.78L539.36 214.81L539.33 214.82L539.3 214.83L527.68 215.98L506.3 236.56L505.1 236.56L505.1 236.93L505.51 237.33L505.09 237.72L505.09 237.9L504.91 237.9L504.58 238.22L505.09 238.71L504.85 273.89L511.73 284.01L511.75 284.04L511.75 284.07L511.75 284.11L511.73 284.14L511.71 284.16L511.31 284.48L511.28 284.49L511.25 284.5L511.22 284.49L511.19 284.48L511.16 284.46L504.84 275.15L504.85 273.89L504.15 272.86L504.13 272.84L504.1 272.82L504.07 272.82L504.04 272.82L504.01 272.84L503.62 273.15L503.62 273.36L503.76 273.57L503.61 273.79L503.61 275.08L496.87 284.99L496.85 285.01L496.82 285.03L496.79 285.03L496.75 285.03L496.72 285.01L496.33 284.7L496.3 284.67L496.29 284.64L496.28 284.61L496.29 284.57L496.3 284.54L503.61 273.79L503.62 273.36L503.59 273.31L503.57 273.28L503.57 273.24L503.57 273.21L503.59 273.18L503.61 273.15L503.62 273.15L503.85 238.92L504.58 238.22L504.25 237.9L504.91 237.9L505.09 237.72L505.1 236.93L504.72 236.56L505.1 236.56L505.11 235.93L526.39 215.44L526.39 215.41L526.4 215.38L526.42 215.36L526.45 215.34L526.48 215.34L526.5 215.33L527.15 214.71L528.61 201.17L528.62 201.14L528.64 201.11L528.67 201.09L528.7 201.07L528.74 201.07L529.22 201.13L529.25 201.14ZM504.03 273.37L504.42 273.69L504.45 273.72L504.46 273.75L504.47 273.78L504.46 273.81L504.45 273.85L504.2 274.21L504.84 275.15L504.8 280.97L504.8 281L504.8 281.03L504.79 281.06L504.79 281.09L504.78 281.12L504.77 281.14L504.77 281.17L504.76 281.2L504.74 281.22L504.73 281.25L504.72 281.27L504.7 281.3L504.69 281.32L504.67 281.34L504.65 281.36L504.64 281.38L504.62 281.4L504.6 281.42L504.57 281.44L504.55 281.46L504.53 281.48L504.51 281.49L504.48 281.51L504.46 281.52L504.43 281.53L504.41 281.54L504.38 281.55L504.35 281.56L504.32 281.57L504.3 281.57L504.27 281.58L504.24 281.58L504.21 281.58L504.18 281.58L504.15 281.58L504.12 281.58L504.09 281.58L504.06 281.57L504.03 281.56L504.01 281.56L503.98 281.55L503.95 281.54L503.93 281.53L503.9 281.51L503.88 281.5L503.85 281.49L503.83 281.47L503.81 281.45L503.78 281.44L503.76 281.42L503.74 281.4L503.72 281.38L503.71 281.36L503.69 281.33L503.67 281.31L503.66 281.29L503.64 281.26L503.63 281.24L503.62 281.21L503.61 281.19L503.6 281.16L503.59 281.13L503.58 281.11L503.58 281.08L503.57 281.05L503.57 281.02L503.57 280.99L503.57 280.96L503.61 275.08L504.2 274.21L503.76 273.57L503.88 273.4L503.9 273.37L503.93 273.36L503.96 273.35L504 273.36L504.03 273.37ZM512.21 195.06L512.61 195.37L512.63 195.4L512.65 195.43L512.65 195.46L512.65 195.5L512.63 195.53L505.31 206.3L505.11 235.93L504.58 236.43L504.72 236.56L504.44 236.56L503.86 237.12L503.86 237.53L504.25 237.9L503.86 237.9L503.85 238.92L482.99 259.01L479.14 271.77L479.13 271.8L479.11 271.82L479.08 271.84L479.04 271.84L479.01 271.84L478.55 271.68L478.52 271.66L478.49 271.63L478.48 271.6L478.47 271.57L478.48 271.53L481.95 260.01L482.99 259.01L483.1 258.62L483.11 258.59L483.1 258.55L483.09 258.52L483.06 258.5L483.03 258.48L482.57 258.32L482.53 258.31L482.5 258.32L482.47 258.33L482.45 258.36L482.43 258.39L482.31 258.8L482.34 259.19L482.33 259.22L482.32 259.25L482.3 259.27L482.27 259.29L482.24 259.3L482.16 259.31L481.95 260.01L476.86 264.91L476.83 264.93L476.81 264.95L476.78 264.97L476.76 264.99L476.73 265L476.7 265.02L476.67 265.03L476.65 265.04L476.62 265.05L476.59 265.06L476.56 265.06L476.53 265.07L476.5 265.07L476.47 265.07L476.44 265.08L476.41 265.07L476.38 265.07L476.35 265.07L476.32 265.06L476.29 265.06L476.26 265.05L476.24 265.04L476.21 265.03L476.18 265.01L476.15 265L476.13 264.98L476.1 264.97L476.08 264.95L476.05 264.93L476.03 264.91L476.01 264.88L475.99 264.86L475.98 264.85L475.96 264.83L475.94 264.8L475.92 264.77L475.91 264.74L475.89 264.71L475.88 264.68L475.87 264.65L475.85 264.62L475.85 264.59L475.84 264.56L475.83 264.53L475.83 264.5L475.82 264.47L475.82 264.44L475.82 264.4L475.82 264.37L475.83 264.34L475.83 264.31L475.83 264.28L475.84 264.25L475.85 264.22L475.86 264.19L475.87 264.16L475.88 264.13L475.9 264.1L475.91 264.07L475.93 264.04L475.95 264.02L475.97 263.99L475.99 263.96L476.01 263.94L476.03 263.92L480.7 259.43L482.16 259.31L482.31 258.8L482.3 258.64L482.29 258.6L482.27 258.58L482.25 258.56L482.22 258.54L482.19 258.54L481.56 258.6L480.7 259.43L469.47 260.37L469.43 260.37L469.4 260.35L469.38 260.33L469.36 260.31L469.36 260.28L469.32 259.72L469.32 259.69L469.33 259.66L469.35 259.64L469.38 259.62L469.41 259.61L481.56 258.6L503.06 237.9L503.86 237.9L503.86 237.53L503.65 237.33L503.86 237.12L503.87 236.56L504.44 236.56L504.58 236.43L503.87 235.75L504.08 205.85L504.42 205.58L504.45 205.55L504.46 205.52L504.47 205.49L504.46 205.45L504.45 205.42L504.08 204.89L504.14 197.22L504.14 197.19L504.14 197.16L504.14 197.13L504.15 197.1L504.15 197.07L504.16 197.05L504.17 197.02L504.18 196.99L504.19 196.97L504.2 196.94L504.22 196.92L504.23 196.89L504.25 196.87L504.26 196.85L504.28 196.83L504.3 196.81L504.32 196.79L504.34 196.77L504.36 196.75L504.38 196.73L504.41 196.71L504.43 196.7L504.45 196.69L504.48 196.67L504.5 196.66L504.53 196.65L504.56 196.64L504.58 196.63L504.61 196.62L504.64 196.62L504.67 196.61L504.7 196.61L504.73 196.61L504.76 196.61L504.79 196.61L504.82 196.61L504.85 196.61L504.87 196.62L504.9 196.63L504.93 196.63L504.96 196.64L504.98 196.65L505.01 196.66L505.04 196.68L505.06 196.69L505.08 196.7L505.11 196.72L505.13 196.74L505.15 196.75L505.17 196.77L505.19 196.79L505.21 196.81L505.23 196.83L505.25 196.86L505.26 196.88L505.28 196.9L505.29 196.93L505.31 196.95L505.32 196.98L505.33 197L505.34 197.03L505.35 197.06L505.35 197.08L505.36 197.11L505.36 197.14L505.37 197.17L505.37 197.2L505.37 197.23L505.32 205L504.49 206.22L504.47 206.26L504.47 206.29L504.47 206.32L504.49 206.35L504.51 206.38L504.91 206.7L504.94 206.71L504.97 206.72L505 206.71L505.03 206.7L505.05 206.67L505.31 206.3L505.32 205L512.07 195.08L512.09 195.06L512.12 195.04L512.15 195.04L512.18 195.04L512.21 195.06ZM545.44 230.7L545.47 230.72L545.49 230.74L545.7 231.24L545.71 231.28L545.71 231.31L545.7 231.34L545.68 231.36L545.65 231.38L535.34 236.56L533.7 236.56L533.69 236.58L533.68 236.61L533.68 236.64L533.69 236.67L533.9 237.17L533.92 237.2L533.94 237.22L533.97 237.23L534 237.23L534.03 237.22L535.34 236.56L542.08 236.56L542.11 236.57L542.14 236.57L542.18 236.57L542.21 236.58L542.24 236.59L542.27 236.59L542.3 236.6L542.33 236.62L542.35 236.63L542.38 236.64L542.41 236.66L542.43 236.68L542.46 236.69L542.48 236.71L542.5 236.73L542.53 236.76L542.55 236.78L542.57 236.8L542.58 236.83L542.6 236.85L542.62 236.88L542.63 236.91L542.65 236.93L542.66 236.96L542.67 236.99L542.68 237.02L542.68 237.05L542.69 237.08L542.69 237.12L542.7 237.15L542.7 237.18L542.7 237.28L542.7 237.31L542.69 237.34L542.69 237.38L542.68 237.41L542.68 237.44L542.67 237.47L542.66 237.5L542.65 237.53L542.63 237.55L542.62 237.58L542.6 237.61L542.58 237.63L542.57 237.66L542.55 237.68L542.53 237.7L542.5 237.73L542.48 237.75L542.46 237.77L542.43 237.78L542.41 237.8L542.38 237.82L542.35 237.83L542.33 237.84L542.3 237.86L542.27 237.87L542.24 237.88L542.21 237.88L542.18 237.89L542.14 237.89L542.11 237.9L542.08 237.9L534.79 237.9L543.22 247.09L543.24 247.12L543.25 247.15L543.25 247.18L543.24 247.22L543.22 247.25L542.86 247.62L542.84 247.64L542.81 247.65L542.78 247.65L542.75 247.64L542.72 247.62L533.8 237.9L534.79 237.9L534.21 237.26L534.18 237.24L534.15 237.23L534.12 237.23L534.09 237.24L534.06 237.26L533.71 237.64L533.69 237.67L533.68 237.7L533.68 237.74L533.69 237.77L533.71 237.8L533.8 237.9L506.1 237.9L525.68 256.75L525.53 256.76L525.5 256.76L525.48 256.78L525.45 256.8L525.44 256.83L525.44 256.86L525.46 257.42L525.46 257.45L525.48 257.48L525.5 257.5L525.53 257.51L525.56 257.51L526.44 257.48L525.68 256.75L538.34 256.22L538.37 256.22L538.4 256.24L538.42 256.26L538.44 256.28L538.44 256.32L538.46 256.87L538.46 256.9L538.45 256.93L538.43 256.95L538.4 256.97L538.37 256.98L526.44 257.48L531.74 262.58L531.77 262.61L531.79 262.63L531.81 262.66L531.83 262.68L531.85 262.71L531.86 262.74L531.88 262.77L531.89 262.8L531.91 262.83L531.92 262.86L531.93 262.89L531.94 262.92L531.94 262.95L531.95 262.98L531.95 263.01L531.95 263.04L531.96 263.07L531.95 263.1L531.95 263.14L531.95 263.17L531.94 263.2L531.94 263.23L531.93 263.26L531.92 263.29L531.91 263.32L531.9 263.35L531.89 263.38L531.87 263.41L531.85 263.44L531.84 263.47L531.82 263.49L531.8 263.52L531.79 263.53L531.77 263.55L531.75 263.58L531.72 263.6L531.7 263.62L531.67 263.64L531.65 263.65L531.62 263.67L531.6 263.68L531.57 263.69L531.54 263.71L531.51 263.72L531.48 263.72L531.46 263.73L531.43 263.74L531.4 263.74L531.37 263.74L531.34 263.74L531.31 263.74L531.28 263.74L531.25 263.74L531.22 263.73L531.19 263.73L531.16 263.72L531.13 263.71L531.1 263.7L531.08 263.68L531.05 263.67L531.02 263.66L531 263.64L530.97 263.62L530.95 263.6L530.92 263.58L525.5 258.36L525.18 256.95L525.16 256.92L525.14 256.89L525.11 256.88L525.08 256.87L525.05 256.87L524.57 257L524.54 257.01L524.52 257.03L524.5 257.06L524.49 257.1L524.49 257.13L524.57 257.46L525.5 258.36L528.28 270.36L528.28 270.4L528.27 270.43L528.25 270.46L528.23 270.48L528.19 270.5L527.72 270.62L527.69 270.63L527.66 270.62L527.63 270.6L527.61 270.58L527.59 270.54L524.57 257.46L505.09 238.71L505.09 237.9L506.1 237.9L505.51 237.33L506.3 236.56L533.7 236.56L533.71 236.55L533.74 236.53L545.35 230.7L545.38 230.69L545.42 230.69L545.44 230.7ZM476.48 199.86L476.5 199.89L476.51 199.92L479.33 212.13L503.87 235.75L503.87 236.56L502.86 236.56L503.65 237.33L503.06 237.9L472.76 237.9L464.45 246.96L464.42 246.98L464.39 246.99L464.36 246.99L464.33 246.98L464.3 246.96L463.95 246.58L463.93 246.55L463.92 246.52L463.92 246.48L463.93 246.45L463.95 246.42L471.77 237.9L472.76 237.9L473.46 237.13L473.48 237.1L473.49 237.07L473.49 237.04L473.48 237L473.46 236.97L473.1 236.6L473.08 236.58L473.05 236.57L473.02 236.57L472.99 236.58L472.96 236.6L472.86 236.71L472.86 236.73L472.86 236.76L472.85 236.79L472.83 236.82L472.48 237.2L472.45 237.22L472.42 237.23L472.39 237.23L472.38 237.23L472.86 236.71L472.85 236.69L472.83 236.66L472.74 236.56L502.86 236.56L479 213.59L478.99 213.59L478.96 213.57L478.94 213.55L478.94 213.53L478.43 213.04L478.43 213.04L478.45 213.02L478.47 212.99L478.47 212.96L478.45 212.4L478.44 212.37L478.43 212.34L478.41 212.32L478.38 212.31L478.35 212.3L477.69 212.33L478.43 213.04L478.4 213.06L478.37 213.06L465.57 213.6L465.54 213.6L465.51 213.58L465.48 213.56L465.47 213.53L465.46 213.5L465.44 212.95L465.45 212.91L465.46 212.89L465.48 212.86L465.51 212.85L465.54 212.84L477.69 212.33L473.07 207.88L473.05 207.86L473.02 207.83L473 207.81L472.98 207.78L472.97 207.75L472.95 207.73L472.93 207.7L472.92 207.67L472.91 207.64L472.9 207.61L472.89 207.58L472.88 207.55L472.87 207.52L472.87 207.49L472.86 207.45L472.86 207.42L472.86 207.39L472.86 207.36L472.86 207.33L472.86 207.3L472.87 207.27L472.87 207.23L472.88 207.2L472.89 207.17L472.9 207.14L472.91 207.11L472.93 207.08L472.94 207.05L472.96 207.03L472.98 207L473 206.97L473.02 206.94L473.02 206.94L473.04 206.91L473.07 206.89L473.09 206.87L473.11 206.85L473.14 206.83L473.16 206.81L473.19 206.8L473.22 206.78L473.24 206.77L473.27 206.76L473.3 206.75L473.33 206.74L473.36 206.73L473.39 206.73L473.42 206.72L473.45 206.72L473.48 206.72L473.51 206.72L473.54 206.72L473.57 206.73L473.6 206.73L473.62 206.74L473.65 206.75L473.68 206.76L473.71 206.77L473.74 206.78L473.77 206.79L473.79 206.81L473.82 206.83L473.84 206.85L473.87 206.87L473.89 206.89L478.4 211.23L478.93 213.52L478.94 213.53L479 213.59L479.03 213.6L479.06 213.59L479.53 213.47L479.56 213.45L479.59 213.43L479.61 213.4L479.61 213.37L479.61 213.33L479.33 212.13L478.4 211.23L475.83 200.1L475.83 200.07L475.84 200.04L475.85 200.01L475.88 199.98L475.91 199.97L476.38 199.84L476.42 199.84L476.45 199.85L476.48 199.86ZM463.8 226.82L463.82 226.84L472.74 236.56L471.75 236.56L472.33 237.2L472.36 237.22L472.38 237.23L471.77 237.9L464.54 237.9L464.5 237.9L464.47 237.89L464.44 237.89L464.41 237.88L464.38 237.88L464.35 237.87L464.32 237.86L464.29 237.84L464.26 237.83L464.23 237.82L464.21 237.8L464.18 237.78L464.16 237.77L464.13 237.75L464.11 237.73L464.09 237.7L464.07 237.68L464.05 237.66L464.03 237.63L464.01 237.61L464 237.58L463.98 237.55L463.97 237.53L463.96 237.5L463.95 237.47L463.94 237.44L463.93 237.41L463.93 237.38L463.92 237.34L463.92 237.31L463.92 237.28L463.92 237.18L463.92 237.15L463.92 237.12L463.93 237.08L463.93 237.05L463.94 237.02L463.95 236.99L463.96 236.96L463.97 236.93L463.98 236.91L464 236.88L464.01 236.85L464.03 236.83L464.05 236.8L464.07 236.78L464.09 236.76L464.11 236.73L464.13 236.71L464.16 236.69L464.18 236.68L464.21 236.66L464.23 236.64L464.26 236.63L464.29 236.62L464.32 236.6L464.35 236.59L464.38 236.59L464.41 236.58L464.44 236.57L464.47 236.57L464.5 236.57L464.54 236.56L471.75 236.56L463.32 227.37L463.3 227.34L463.29 227.31L463.29 227.28L463.3 227.24L463.32 227.22L463.68 226.84L463.7 226.82L463.73 226.81L463.77 226.81L463.8 226.82ZM496.85 194.25L496.87 194.28L504.08 204.89L504.08 205.85L504.03 205.89L504 205.91L503.96 205.92L503.93 205.91L503.9 205.9L503.88 205.87L496.3 194.73L496.29 194.69L496.28 194.66L496.29 194.63L496.3 194.6L496.33 194.57L496.72 194.26L496.75 194.24L496.79 194.23L496.82 194.24L496.85 194.25Z" id="a1nZMVWe0M"></path><path d="M428.25 287.22L428.28 287.24L428.3 287.27L428.32 287.3L428.32 287.33L426.86 300.16L426.02 300.93L426 301.13L426 301.16L426.01 301.19L426.03 301.22L426.06 301.24L426.1 301.25L426.62 301.31L426.65 301.31L426.68 301.3L426.71 301.28L426.73 301.25L426.74 301.21L426.86 300.16L433.17 294.37L433.19 294.35L433.22 294.33L433.24 294.31L433.27 294.3L433.29 294.28L433.32 294.27L433.35 294.26L433.38 294.24L433.41 294.23L433.43 294.23L433.46 294.22L433.49 294.21L433.52 294.21L433.55 294.2L433.58 294.2L433.61 294.2L433.64 294.2L433.67 294.21L433.7 294.21L433.73 294.21L433.76 294.22L433.79 294.23L433.81 294.24L433.84 294.25L433.87 294.26L433.9 294.27L433.92 294.29L433.95 294.3L433.98 294.32L434 294.34L434.02 294.36L434.05 294.38L434.07 294.4L434.09 294.43L434.09 294.43L434.11 294.45L434.13 294.48L434.15 294.51L434.17 294.53L434.18 294.56L434.2 294.59L434.21 294.62L434.22 294.64L434.23 294.67L434.24 294.7L434.25 294.73L434.25 294.76L434.26 294.79L434.26 294.82L434.26 294.85L434.26 294.88L434.26 294.91L434.26 294.94L434.25 294.97L434.25 295L434.24 295.03L434.23 295.06L434.23 295.09L434.22 295.12L434.2 295.15L434.19 295.18L434.18 295.2L434.16 295.23L434.14 295.26L434.13 295.28L434.11 295.31L434.09 295.33L434.06 295.35L434.04 295.38L427.52 301.36L425.33 301.57L425.21 301.67L425.21 301.69L425.26 302.23L425.27 302.27L425.29 302.3L425.31 302.32L425.34 302.33L425.38 302.33L426.59 302.22L427.52 301.36L438.84 300.29L438.88 300.3L438.91 300.31L438.94 300.33L438.95 300.36L438.96 300.39L439.01 300.94L439.01 300.97L439 301.01L438.97 301.03L438.95 301.05L438.91 301.06L426.59 302.22L403.91 323.03L402.64 323.03L402.64 323.41L403.07 323.8L402.63 324.21L402.63 324.38L402.44 324.38L402.09 324.71L402.62 325.2L402.37 360.77L409.67 371L409.69 371.04L409.69 371.07L409.69 371.1L409.67 371.13L409.65 371.16L409.22 371.48L409.19 371.5L409.16 371.5L409.12 371.5L409.09 371.48L409.07 371.46L402.36 362.05L402.37 360.77L401.63 359.74L401.61 359.71L401.58 359.7L401.54 359.69L401.51 359.7L401.48 359.71L401.07 360.03L401.06 360.24L401.22 360.45L401.06 360.67L401.05 361.98L393.91 372L393.88 372.02L393.85 372.04L393.82 372.04L393.79 372.04L393.75 372.02L393.33 371.7L393.3 371.68L393.29 371.65L393.28 371.61L393.29 371.58L393.3 371.55L401.06 360.67L401.06 360.24L401.03 360.19L401.01 360.16L401.01 360.12L401.01 360.09L401.03 360.06L401.05 360.03L401.07 360.03L401.31 325.41L402.09 324.71L401.73 324.38L402.44 324.38L402.63 324.21L402.64 323.41L402.23 323.03L402.64 323.03L402.64 322.39L425.21 301.67L425.21 301.65L425.23 301.62L425.25 301.59L425.28 301.58L425.31 301.57L425.33 301.57L426.02 300.93L427.58 287.24L427.59 287.21L427.61 287.18L427.63 287.16L427.67 287.15L427.7 287.15L428.22 287.21L428.25 287.22ZM401.5 360.25L401.92 360.57L401.95 360.6L401.96 360.63L401.97 360.66L401.96 360.7L401.94 360.73L401.68 361.1L402.36 362.05L402.32 367.9L402.32 367.94L402.31 367.97L402.31 368L402.31 368.03L402.3 368.06L402.29 368.09L402.28 368.12L402.27 368.14L402.26 368.17L402.25 368.2L402.23 368.22L402.22 368.25L402.2 368.27L402.18 368.3L402.16 368.32L402.14 368.34L402.12 368.36L402.1 368.39L402.08 368.4L402.06 368.42L402.03 368.44L402.01 368.46L401.98 368.47L401.95 368.49L401.93 368.5L401.9 368.51L401.87 368.52L401.84 368.53L401.81 368.54L401.78 368.54L401.75 368.55L401.72 368.55L401.69 368.55L401.66 368.55L401.63 368.55L401.6 368.55L401.56 368.55L401.53 368.54L401.5 368.53L401.48 368.53L401.45 368.52L401.42 368.51L401.39 368.49L401.36 368.48L401.34 368.47L401.31 368.45L401.29 368.43L401.26 368.42L401.24 368.4L401.22 368.38L401.2 368.36L401.18 368.34L401.16 368.31L401.14 368.29L401.12 368.27L401.11 368.24L401.09 368.22L401.08 368.19L401.06 368.16L401.05 368.13L401.04 368.11L401.03 368.08L401.03 368.05L401.02 368.02L401.01 367.99L401.01 367.96L401.01 367.93L401.01 367.89L401.05 361.98L401.68 361.1L401.22 360.45L401.34 360.28L401.37 360.25L401.4 360.24L401.43 360.23L401.46 360.24L401.5 360.25ZM410.18 281.06L410.6 281.38L410.63 281.41L410.64 281.44L410.65 281.47L410.64 281.51L410.63 281.54L402.86 292.43L402.64 322.39L402.09 322.9L402.23 323.03L401.94 323.03L401.33 323.6L401.32 324.01L401.73 324.38L401.32 324.38L401.31 325.41L379.18 345.73L375.11 358.63L375.09 358.66L375.07 358.69L375.04 358.7L375 358.71L374.97 358.7L374.47 358.53L374.44 358.52L374.41 358.49L374.4 358.46L374.39 358.43L374.4 358.39L378.08 346.74L379.18 345.73L379.3 345.34L379.31 345.3L379.3 345.27L379.29 345.24L379.26 345.21L379.23 345.2L378.73 345.03L378.7 345.02L378.66 345.03L378.63 345.05L378.61 345.07L378.59 345.1L378.46 345.52L378.49 345.9L378.49 345.94L378.47 345.97L378.45 346L378.42 346.01L378.39 346.02L378.3 346.03L378.08 346.74L372.68 351.69L372.65 351.72L372.63 351.74L372.6 351.75L372.58 351.77L372.55 351.79L372.52 351.8L372.5 351.81L372.47 351.82L372.44 351.83L372.41 351.84L372.38 351.85L372.35 351.85L372.32 351.86L372.29 351.86L372.26 351.86L372.23 351.86L372.21 351.86L372.18 351.86L372.15 351.86L372.12 351.85L372.09 351.85L372.06 351.84L372.03 351.83L372 351.82L371.98 351.81L371.95 351.79L371.92 351.78L371.9 351.76L371.87 351.75L371.85 351.73L371.82 351.71L371.8 351.69L371.78 351.67L371.75 351.64L371.75 351.64L371.73 351.61L371.71 351.59L371.69 351.56L371.68 351.54L371.66 351.51L371.65 351.48L371.64 351.45L371.63 351.42L371.62 351.39L371.61 351.36L371.6 351.33L371.59 351.3L371.59 351.27L371.59 351.24L371.59 351.21L371.59 351.18L371.59 351.15L371.59 351.12L371.59 351.09L371.6 351.06L371.6 351.03L371.61 351L371.62 350.98L371.63 350.95L371.64 350.92L371.66 350.89L371.67 350.86L371.69 350.84L371.7 350.81L371.72 350.78L371.74 350.76L371.76 350.74L371.78 350.71L371.81 350.69L376.75 346.15L378.3 346.03L378.46 345.52L378.45 345.36L378.44 345.32L378.42 345.29L378.4 345.27L378.37 345.26L378.33 345.26L377.67 345.31L376.75 346.15L364.84 347.1L364.81 347.1L364.78 347.09L364.75 347.07L364.73 347.04L364.72 347L364.68 346.45L364.69 346.42L364.7 346.39L364.72 346.36L364.75 346.35L364.78 346.34L377.67 345.31L400.47 324.38L401.32 324.38L401.32 324.01L401.1 323.8L401.33 323.6L401.33 323.03L401.94 323.03L402.09 322.9L401.34 322.21L401.55 291.98L401.92 291.7L401.95 291.68L401.96 291.64L401.97 291.61L401.96 291.58L401.94 291.55L401.56 291L401.61 283.28L401.61 283.25L401.62 283.22L401.62 283.19L401.63 283.16L401.63 283.13L401.64 283.1L401.65 283.07L401.66 283.04L401.67 283.01L401.69 282.99L401.7 282.96L401.72 282.94L401.73 282.91L401.75 282.89L401.77 282.86L401.79 282.84L401.81 282.82L401.83 282.8L401.85 282.78L401.88 282.76L401.9 282.75L401.92 282.73L401.95 282.71L401.98 282.7L402 282.69L402.03 282.68L402.06 282.67L402.09 282.66L402.12 282.65L402.15 282.64L402.18 282.64L402.21 282.63L402.24 282.63L402.27 282.63L402.3 282.63L402.34 282.64L402.37 282.64L402.4 282.64L402.43 282.65L402.46 282.66L402.49 282.67L402.51 282.68L402.54 282.69L402.57 282.7L402.59 282.72L402.62 282.73L402.64 282.75L402.67 282.77L402.69 282.79L402.71 282.81L402.73 282.83L402.75 282.85L402.77 282.87L402.79 282.89L402.81 282.92L402.83 282.94L402.84 282.97L402.85 283L402.87 283.02L402.88 283.05L402.89 283.08L402.9 283.11L402.91 283.14L402.91 283.17L402.92 283.2L402.92 283.23L402.92 283.26L402.92 283.29L402.87 291.12L401.99 292.36L401.97 292.39L401.97 292.42L401.97 292.46L401.99 292.49L402.01 292.51L402.44 292.83L402.47 292.85L402.5 292.85L402.53 292.85L402.56 292.83L402.59 292.81L402.86 292.43L402.87 291.12L410.03 281.09L410.05 281.06L410.08 281.05L410.11 281.04L410.15 281.05L410.18 281.06ZM445.43 317.1L445.46 317.12L445.47 317.15L445.7 317.65L445.71 317.68L445.71 317.72L445.7 317.75L445.68 317.78L445.65 317.8L434.71 323.03L432.97 323.03L432.96 323.05L432.95 323.08L432.95 323.11L432.96 323.15L433.18 323.64L433.2 323.67L433.23 323.69L433.26 323.71L433.29 323.71L433.33 323.7L434.71 323.03L441.86 323.03L441.89 323.03L441.92 323.04L441.96 323.04L441.99 323.05L442.02 323.05L442.05 323.06L442.08 323.07L442.11 323.08L442.14 323.09L442.16 323.11L442.19 323.12L442.22 323.14L442.24 323.16L442.27 323.17L442.29 323.19L442.31 323.21L442.33 323.24L442.35 323.26L442.37 323.28L442.39 323.31L442.41 323.33L442.42 323.36L442.44 323.38L442.45 323.41L442.47 323.44L442.48 323.47L442.49 323.5L442.49 323.53L442.5 323.56L442.51 323.59L442.51 323.62L442.51 323.66L442.51 323.69L442.51 323.73L442.51 323.76L442.51 323.79L442.51 323.82L442.5 323.85L442.49 323.88L442.49 323.91L442.48 323.94L442.47 323.97L442.45 324L442.44 324.03L442.42 324.06L442.41 324.08L442.39 324.11L442.37 324.13L442.35 324.16L442.33 324.18L442.31 324.2L442.29 324.22L442.27 324.24L442.24 324.26L442.22 324.27L442.19 324.29L442.16 324.31L442.14 324.32L442.11 324.33L442.08 324.34L442.05 324.35L442.02 324.36L441.99 324.37L441.96 324.37L441.92 324.38L441.89 324.38L441.86 324.38L434.13 324.38L443.07 333.68L443.09 333.71L443.1 333.74L443.1 333.77L443.09 333.8L443.07 333.83L442.69 334.22L442.66 334.24L442.63 334.25L442.6 334.25L442.57 334.24L442.54 334.22L433.08 324.38L434.13 324.38L433.51 323.74L433.48 323.72L433.45 323.71L433.42 323.71L433.39 323.72L433.36 323.74L432.98 324.12L432.96 324.15L432.95 324.18L432.95 324.22L432.96 324.25L432.98 324.28L433.08 324.38L403.7 324.38L424.47 343.44L424.31 343.45L424.28 343.46L424.25 343.47L424.23 343.5L424.21 343.53L424.21 343.56L424.23 344.11L424.23 344.15L424.25 344.18L424.27 344.2L424.31 344.21L424.34 344.22L425.27 344.18L424.47 343.44L437.89 342.91L437.93 342.91L437.96 342.92L437.98 342.95L438 342.98L438 343.01L438.02 343.56L438.02 343.59L438.01 343.63L437.98 343.65L437.95 343.67L437.92 343.67L425.27 344.18L430.9 349.34L430.92 349.37L430.94 349.39L430.96 349.41L430.98 349.44L431 349.46L431.02 349.49L431.03 349.52L431.05 349.54L431.06 349.57L431.07 349.6L431.08 349.63L431.09 349.66L431.1 349.69L431.11 349.72L431.11 349.75L431.11 349.78L431.12 349.81L431.12 349.84L431.12 349.87L431.12 349.9L431.11 349.93L431.11 349.96L431.1 349.99L431.1 350.02L431.09 350.05L431.08 350.08L431.07 350.1L431.05 350.13L431.04 350.16L431.02 350.19L431.01 350.22L430.99 350.24L430.97 350.27L430.95 350.29L430.95 350.3L430.93 350.32L430.9 350.34L430.88 350.36L430.86 350.38L430.83 350.4L430.81 350.42L430.78 350.43L430.75 350.45L430.73 350.46L430.7 350.47L430.67 350.48L430.64 350.49L430.61 350.5L430.59 350.51L430.56 350.51L430.53 350.51L430.5 350.52L430.47 350.52L430.44 350.52L430.41 350.52L430.38 350.51L430.35 350.51L430.32 350.5L430.29 350.5L430.26 350.49L430.23 350.48L430.21 350.47L430.18 350.45L430.15 350.44L430.12 350.42L430.1 350.41L430.07 350.39L430.05 350.37L430.02 350.35L424.28 345.07L423.93 343.65L423.92 343.61L423.89 343.59L423.86 343.57L423.83 343.56L423.8 343.57L423.29 343.7L423.25 343.71L423.23 343.73L423.21 343.76L423.2 343.8L423.21 343.83L423.29 344.16L424.28 345.07L427.22 357.21L427.22 357.24L427.21 357.28L427.2 357.31L427.17 357.33L427.14 357.34L426.63 357.47L426.59 357.48L426.56 357.47L426.53 357.45L426.51 357.42L426.49 357.39L423.29 344.16L402.62 325.2L402.63 324.38L403.7 324.38L403.07 323.8L403.91 323.03L432.97 323.03L432.98 323.02L433.01 323L445.33 317.1L445.36 317.09L445.4 317.09L445.43 317.1ZM372.28 285.92L372.3 285.95L372.31 285.98L375.31 298.32L401.34 322.21L401.33 323.03L400.26 323.03L401.1 323.8L400.47 324.38L368.33 324.38L359.52 333.54L359.49 333.56L359.46 333.57L359.43 333.57L359.39 333.56L359.37 333.54L358.99 333.16L358.97 333.13L358.96 333.1L358.96 333.06L358.97 333.03L358.99 333L367.28 324.38L368.33 324.38L369.08 323.61L369.1 323.58L369.11 323.54L369.11 323.51L369.1 323.48L369.08 323.45L368.7 323.07L368.67 323.05L368.64 323.04L368.61 323.04L368.57 323.05L368.55 323.07L368.44 323.18L368.44 323.2L368.44 323.23L368.43 323.26L368.41 323.29L368.04 323.67L368.01 323.7L367.98 323.71L367.94 323.71L367.93 323.7L368.44 323.18L368.43 323.16L368.41 323.13L368.32 323.03L400.26 323.03L374.96 299.81L374.94 299.8L374.91 299.79L374.89 299.76L374.88 299.74L374.35 299.25L374.35 299.25L374.37 299.22L374.39 299.19L374.39 299.16L374.37 298.61L374.36 298.57L374.35 298.54L374.32 298.52L374.29 298.51L374.26 298.5L373.57 298.53L374.35 299.25L374.32 299.26L374.29 299.27L360.71 299.81L360.67 299.81L360.64 299.79L360.62 299.77L360.6 299.74L360.59 299.71L360.57 299.16L360.58 299.12L360.59 299.09L360.61 299.07L360.64 299.05L360.68 299.05L373.57 298.53L368.66 294.03L368.64 294.01L368.62 293.98L368.6 293.96L368.58 293.94L368.56 293.91L368.54 293.88L368.53 293.86L368.51 293.83L368.5 293.8L368.49 293.77L368.48 293.75L368.47 293.72L368.46 293.69L368.45 293.66L368.45 293.63L368.45 293.6L368.44 293.57L368.44 293.54L368.44 293.51L368.44 293.48L368.45 293.45L368.45 293.42L368.46 293.39L368.46 293.36L368.47 293.33L368.48 293.3L368.49 293.27L368.51 293.24L368.52 293.21L368.53 293.19L368.55 293.16L368.57 293.13L368.59 293.11L368.61 293.08L368.61 293.08L368.63 293.05L368.66 293.03L368.68 293.01L368.7 292.99L368.73 292.97L368.75 292.96L368.78 292.94L368.81 292.93L368.83 292.91L368.86 292.9L368.89 292.89L368.92 292.88L368.94 292.87L368.97 292.87L369 292.86L369.03 292.86L369.06 292.86L369.09 292.86L369.12 292.86L369.15 292.86L369.18 292.86L369.21 292.87L369.24 292.87L369.27 292.88L369.3 292.89L369.33 292.9L369.35 292.91L369.38 292.92L369.41 292.93L369.43 292.95L369.46 292.97L369.49 292.99L369.51 293L369.53 293.03L374.32 297.42L374.88 299.73L374.88 299.74L374.96 299.81L374.98 299.81L375.01 299.81L375.52 299.68L375.55 299.66L375.58 299.64L375.6 299.61L375.6 299.58L375.6 299.54L375.31 298.32L374.32 297.42L371.59 286.17L371.59 286.13L371.6 286.1L371.61 286.07L371.64 286.05L371.67 286.03L372.18 285.9L372.22 285.9L372.25 285.91L372.28 285.92ZM358.83 313.18L358.85 313.2L368.32 323.03L367.27 323.03L367.88 323.67L367.91 323.69L367.93 323.7L367.28 324.38L359.61 324.38L359.58 324.38L359.55 324.38L359.52 324.37L359.48 324.37L359.45 324.36L359.42 324.35L359.39 324.34L359.36 324.33L359.34 324.32L359.31 324.31L359.28 324.29L359.26 324.27L359.23 324.26L359.21 324.24L359.18 324.22L359.16 324.2L359.14 324.18L359.12 324.16L359.1 324.13L359.08 324.11L359.06 324.08L359.05 324.06L359.03 324.03L359.02 324L359.01 323.97L358.99 323.94L358.98 323.91L358.98 323.88L358.97 323.85L358.96 323.82L358.96 323.79L358.96 323.76L358.96 323.73L358.96 323.69L358.96 323.66L358.96 323.62L358.96 323.59L358.97 323.56L358.98 323.53L358.98 323.5L358.99 323.47L359.01 323.44L359.02 323.41L359.03 323.38L359.05 323.36L359.06 323.33L359.08 323.31L359.1 323.28L359.12 323.26L359.14 323.24L359.16 323.21L359.18 323.19L359.21 323.17L359.23 323.16L359.26 323.14L359.28 323.12L359.31 323.11L359.34 323.09L359.36 323.08L359.39 323.07L359.42 323.06L359.45 323.05L359.48 323.05L359.52 323.04L359.55 323.04L359.58 323.03L359.61 323.03L367.27 323.03L358.32 313.74L358.3 313.71L358.29 313.68L358.29 313.64L358.3 313.61L358.33 313.58L358.7 313.2L358.73 313.18L358.76 313.17L358.79 313.17L358.83 313.18ZM393.88 280.25L393.91 280.28L401.56 291L401.55 291.98L401.5 292.02L401.46 292.04L401.43 292.04L401.4 292.04L401.37 292.02L401.34 292L393.3 280.73L393.29 280.7L393.28 280.66L393.29 280.63L393.3 280.6L393.33 280.57L393.75 280.25L393.79 280.24L393.82 280.23L393.85 280.24L393.88 280.25Z" id="a59QiuF0F"></path><path d="M307.64 245.03L306.89 245.66L306.86 245.91L307.53 245.99L307.64 245.03L313.3 240.24L313.33 240.22L313.36 240.2L313.38 240.19L313.41 240.17L313.44 240.16L313.47 240.15L313.5 240.13L313.53 240.13L313.56 240.12L313.59 240.11L313.62 240.11L313.65 240.1L313.68 240.1L313.71 240.1L313.74 240.1L313.77 240.11L313.8 240.11L313.83 240.12L313.86 240.13L313.89 240.14L313.92 240.15L313.95 240.16L313.98 240.17L314.01 240.19L314.03 240.21L314.06 240.23L314.08 240.25L314.11 240.27L314.13 240.29L314.15 240.32L314.17 240.34L314.19 240.37L314.21 240.39L314.22 240.42L314.23 240.45L314.24 240.47L314.25 240.5L314.26 240.53L314.27 240.56L314.27 240.59L314.28 240.62L314.28 240.65L314.28 240.68L314.28 240.71L314.27 240.74L314.27 240.77L314.26 240.79L314.25 240.82L314.24 240.85L314.23 240.88L314.22 240.91L314.21 240.93L314.19 240.96L314.17 240.98L314.15 241.01L314.13 241.03L314.11 241.05L314.09 241.07L308.24 246.02L306.27 246.19L306.17 246.28L306.22 246.83L307.4 246.72L308.24 246.02L318.49 245.13L318.55 245.76L307.4 246.72L287.06 263.91L285.92 263.91L285.92 264.22L286.31 264.54L285.91 264.87L285.91 265.02L285.74 265.02L285.43 265.29L285.91 265.7L285.68 295.06L292.28 303.58L291.75 303.96L285.67 296.12L285.68 295.06L284.96 294.13L284.51 294.45L284.51 294.62L284.65 294.8L284.51 294.98L284.5 296.06L278.03 304.41L277.49 304.03L284.51 294.98L284.51 294.62L284.42 294.51L284.51 294.45L284.73 265.87L285.43 265.29L285.11 265.02L285.74 265.02L285.91 264.87L285.92 264.22L285.56 263.91L285.92 263.91L285.93 263.38L306.17 246.28L306.16 246.19L306.27 246.19L306.89 245.66L308.3 234.27L308.96 234.34L307.64 245.03ZM285.06 295.33L285.67 296.12L285.63 300.93L285.63 300.97L285.63 301L285.63 301.03L285.62 301.06L285.61 301.09L285.6 301.12L285.59 301.15L285.58 301.18L285.56 301.21L285.55 301.23L285.53 301.26L285.51 301.28L285.49 301.3L285.47 301.33L285.45 301.35L285.42 301.37L285.4 301.38L285.37 301.4L285.35 301.42L285.32 301.43L285.29 301.44L285.26 301.46L285.23 301.46L285.2 301.47L285.17 301.48L285.14 301.48L285.11 301.49L285.07 301.49L285.01 301.49L284.98 301.48L284.95 301.48L284.92 301.48L284.88 301.47L284.85 301.46L284.82 301.45L284.8 301.44L284.77 301.43L284.74 301.41L284.71 301.4L284.69 301.38L284.66 301.36L284.64 301.34L284.62 301.32L284.6 301.3L284.58 301.27L284.56 301.25L284.54 301.22L284.53 301.2L284.51 301.17L284.5 301.14L284.49 301.11L284.48 301.08L284.47 301.05L284.47 301.02L284.46 300.99L284.46 300.96L284.46 300.93L284.5 296.06L285.06 295.33L284.65 294.8L284.82 294.58L285.36 294.95L285.06 295.33ZM286.12 238.64L285.93 263.38L285.43 263.8L285.56 263.91L285.29 263.91L284.74 264.37L284.74 264.71L285.11 265.02L284.74 265.02L284.73 265.87L264.88 282.64L261.2 293.38L260.56 293.19L263.89 283.48L264.88 282.64L265.02 282.23L264.39 282.04L264.24 282.47L264.27 282.88L264.1 282.89L263.89 283.48L259.05 287.57L259.02 287.59L259 287.61L258.97 287.63L258.94 287.64L258.91 287.66L258.88 287.67L258.85 287.68L258.82 287.69L258.79 287.7L258.76 287.7L258.73 287.71L258.7 287.71L258.67 287.71L258.64 287.71L258.61 287.71L258.58 287.71L258.55 287.7L258.52 287.7L258.49 287.69L258.46 287.68L258.43 287.67L258.4 287.66L258.37 287.64L258.35 287.63L258.32 287.61L258.29 287.59L258.27 287.57L258.25 287.55L258.22 287.52L258.2 287.5L258.18 287.48L258.16 287.45L258.15 287.42L258.13 287.4L258.12 287.37L258.11 287.34L258.1 287.31L258.09 287.28L258.08 287.26L258.08 287.23L258.08 287.2L258.08 287.17L258.08 287.14L258.08 287.11L258.08 287.08L258.09 287.05L258.09 287.02L258.1 286.99L258.11 286.96L258.12 286.94L258.13 286.91L258.15 286.88L258.16 286.86L258.18 286.83L258.2 286.81L258.22 286.78L258.24 286.76L258.27 286.74L262.7 282.99L264.1 282.89L264.24 282.47L264.22 282.25L263.53 282.3L262.7 282.99L251.93 283.79L251.87 283.15L263.53 282.3L283.98 265.02L284.74 265.02L284.74 264.71L284.54 264.54L284.74 264.37L284.75 263.91L285.29 263.91L285.43 263.8L284.75 263.23L284.95 238.27L285.36 237.99L284.95 237.47L285 231.11L285 231.07L285.01 231.04L285.01 231.01L285.02 230.98L285.03 230.95L285.04 230.92L285.05 230.89L285.06 230.86L285.07 230.83L285.09 230.81L285.11 230.78L285.13 230.76L285.15 230.74L285.17 230.71L285.19 230.69L285.21 230.67L285.24 230.66L285.26 230.64L285.29 230.62L285.32 230.61L285.35 230.6L285.37 230.58L285.4 230.58L285.43 230.57L285.47 230.56L285.5 230.56L285.53 230.55L285.56 230.55L285.62 230.55L285.66 230.56L285.69 230.56L285.72 230.56L285.75 230.57L285.78 230.58L285.81 230.59L285.84 230.6L285.87 230.61L285.9 230.63L285.92 230.64L285.95 230.66L285.97 230.68L285.99 230.7L286.02 230.72L286.04 230.74L286.06 230.77L286.08 230.79L286.09 230.82L286.11 230.84L286.12 230.87L286.13 230.9L286.15 230.93L286.15 230.96L286.16 230.99L286.17 231.02L286.17 231.05L286.18 231.08L286.18 231.11L286.13 237.56L285.28 238.66L285.82 239.03L286.12 238.64L286.13 237.56L292.6 229.2L293.14 229.58L286.12 238.64ZM314.69 263.91L313.1 263.91L313.07 263.92L313.36 264.49L314.69 263.91L321.13 263.91L321.16 263.91L321.19 263.91L321.22 263.91L321.25 263.92L321.28 263.93L321.3 263.94L321.33 263.95L321.36 263.96L321.38 263.97L321.41 263.98L321.43 264L321.46 264.01L321.48 264.03L321.5 264.05L321.52 264.07L321.54 264.09L321.56 264.11L321.58 264.14L321.59 264.16L321.61 264.18L321.62 264.21L321.63 264.23L321.65 264.26L321.66 264.29L321.66 264.32L321.67 264.34L321.68 264.37L321.68 264.4L321.68 264.43L321.68 264.46L321.68 264.49L321.68 264.52L321.68 264.55L321.67 264.58L321.66 264.61L321.66 264.64L321.65 264.67L321.63 264.69L321.62 264.72L321.61 264.74L321.59 264.77L321.58 264.79L321.56 264.81L321.54 264.84L321.52 264.86L321.5 264.88L321.48 264.89L321.46 264.91L321.43 264.93L321.41 264.94L321.38 264.96L321.36 264.97L321.33 264.98L321.3 264.99L321.28 265L321.25 265.01L321.22 265.01L321.19 265.02L321.16 265.02L321.13 265.02L314.16 265.02L322.25 272.76L321.77 273.2L313.22 265.02L314.16 265.02L313.54 264.43L313.07 264.87L313.22 265.02L286.87 265.02L305.5 280.76L305.26 280.77L305.29 281.4L306.22 281.36L305.5 280.76L317.64 280.31L317.66 280.94L306.22 281.36L311.27 285.63L311.29 285.65L311.31 285.67L311.33 285.7L311.35 285.72L311.37 285.75L311.39 285.77L311.4 285.8L311.41 285.82L311.42 285.85L311.43 285.88L311.44 285.91L311.45 285.94L311.45 285.97L311.46 286L311.46 286.03L311.46 286.06L311.46 286.09L311.45 286.11L311.45 286.14L311.44 286.17L311.44 286.2L311.43 286.23L311.41 286.26L311.4 286.29L311.39 286.31L311.37 286.34L311.35 286.36L311.33 286.39L311.31 286.41L311.29 286.44L311.26 286.46L311.24 286.48L311.21 286.5L311.19 286.51L311.16 286.53L311.13 286.54L311.1 286.56L311.07 286.57L311.04 286.58L311.01 286.58L310.98 286.59L310.95 286.6L310.92 286.6L310.89 286.6L310.86 286.6L310.83 286.6L310.8 286.6L310.77 286.59L310.74 286.59L310.71 286.58L310.68 286.57L310.65 286.56L310.62 286.55L310.59 286.53L310.56 286.52L310.54 286.5L310.51 286.48L310.49 286.46L305.33 282.1L304.99 280.83L304.34 280.99L304.44 281.35L305.33 282.1L307.99 292.21L307.34 292.36L304.44 281.35L285.91 265.7L285.91 265.02L286.87 265.02L286.31 264.54L287.06 263.91L313.1 263.91L324.3 258.97L324.58 259.54L314.69 263.91ZM284.75 263.23L284.75 263.91L283.79 263.91L284.54 264.54L283.98 265.02L255.15 265.02L247.18 272.65L246.71 272.2L254.21 265.02L255.15 265.02L255.89 264.31L255.45 263.91L283.79 263.91L261.11 244.74L261.7 244.6L261.41 243.51L260.52 242.76L258.05 233.38L258.7 233.23L261.41 243.51L284.75 263.23ZM254.2 263.91L254.79 264.47L254.21 265.02L247.3 265.02L247.27 265.02L247.24 265.02L247.21 265.01L247.18 265.01L247.15 265L247.13 264.99L247.1 264.98L247.07 264.97L247.05 264.96L247.02 264.94L247 264.93L246.97 264.91L246.95 264.89L246.93 264.88L246.91 264.86L246.89 264.84L246.87 264.81L246.85 264.79L246.84 264.77L246.82 264.74L246.81 264.72L246.8 264.69L246.78 264.67L246.77 264.64L246.77 264.61L246.76 264.58L246.75 264.55L246.75 264.52L246.75 264.49L246.75 264.46L246.75 264.43L246.75 264.4L246.75 264.37L246.76 264.34L246.77 264.32L246.77 264.29L246.78 264.26L246.8 264.23L246.81 264.21L246.82 264.18L246.84 264.16L246.85 264.14L246.87 264.11L246.89 264.09L246.91 264.07L246.93 264.05L246.95 264.03L246.97 264.01L247 264L247.02 263.98L247.05 263.97L247.07 263.96L247.1 263.95L247.13 263.94L247.15 263.93L247.18 263.92L247.21 263.91L247.24 263.91L247.27 263.91L247.3 263.91L254.2 263.91L246.11 256.17L246.59 255.72L255.14 263.91L254.2 263.91ZM255.37 263.91L255.26 264.02L255.29 264.06L254.82 264.5L254.79 264.47L255.26 264.02L255.14 263.91L255.37 263.91L255.41 263.87L255.45 263.91L255.37 263.91ZM255.91 238.99L255.95 239L255.98 239.01L256.01 239.01L256.04 239.02L256.07 239.03L256.09 239.05L256.12 239.06L256.15 239.08L256.18 239.09L256.2 239.11L256.23 239.13L260.52 242.76L261.03 244.68L261.11 244.74L261.05 244.76L261.03 244.68L260.57 244.29L260.59 244.29L260.57 243.65L259.85 243.68L260.57 244.29L248.22 244.74L248.19 244.11L259.85 243.68L255.45 239.96L255.42 239.94L255.4 239.92L255.38 239.9L255.36 239.87L255.34 239.85L255.33 239.82L255.31 239.79L255.3 239.77L255.29 239.74L255.28 239.71L255.27 239.68L255.27 239.65L255.26 239.62L255.26 239.6L255.26 239.57L255.26 239.54L255.26 239.51L255.26 239.48L255.27 239.45L255.27 239.42L255.28 239.39L255.29 239.36L255.3 239.33L255.31 239.31L255.33 239.28L255.34 239.25L255.36 239.23L255.38 239.2L255.4 239.18L255.43 239.16L255.45 239.13L255.48 239.11L255.5 239.1L255.53 239.08L255.56 239.06L255.58 239.05L255.61 239.04L255.64 239.02L255.67 239.02L255.7 239.01L255.73 239L255.76 239L255.79 238.99L255.82 238.99L255.85 238.99L255.88 238.99L255.91 238.99ZM284.95 238.27L284.82 238.36L277.49 228.91L278.03 228.54L284.95 237.47L284.95 238.27Z" id="cZNcurTRE"></path></defs><g><g><g><use xlink:href="#h3TVVG0BvY" opacity="1" fill="#dbdbdb" fill-opacity="1"></use><g><use xlink:href="#h3TVVG0BvY" opacity="1" fill-opacity="0" stroke="#7b7b7b" stroke-width="4" stroke-opacity="1"></use></g></g><g><use xlink:href="#a1A7K0QbyW" opacity="1" fill="#dbdbdb" fill-opacity="1"></use><g><use xlink:href="#a1A7K0QbyW" opacity="1" fill-opacity="0" stroke="#7b7b7b" stroke-width="4" stroke-opacity="1"></use></g></g><g><use xlink:href="#axq6wp084" opacity="1" fill="#888888" fill-opacity="1"></use></g><g><use xlink:href="#b5ftQScvCK" opacity="1" fill="#888888" fill-opacity="1"></use></g><g><use xlink:href="#c1RySR8Pj2" opacity="1" fill="#888888" fill-opacity="1"></use></g><g><use xlink:href="#c1svsrdgoV" opacity="1" fill="#888888" fill-opacity="1"></use></g><g><use xlink:href="#ei6w9WWES" opacity="1" fill="#888888" fill-opacity="1"></use></g><g><use xlink:href="#a1Yspau7MD" opacity="1" fill="#888888" fill-opacity="1"></use></g><g><use xlink:href="#cACxiaP4w" opacity="1" fill="#888888" fill-opacity="1"></use></g><g><use xlink:href="#c3j3PVRQcB" opacity="1" fill="#888888" fill-opacity="1"></use></g><g><use xlink:href="#k69oAcHxI5" opacity="1" fill="#888888" fill-opacity="1"></use></g><g><use xlink:href="#ceR1Dh4lV" opacity="1" fill="#888888" fill-opacity="1"></use></g><g><use xlink:href="#cUmDUNECh" opacity="1" fill="#888888" fill-opacity="1"></use></g><g><use xlink:href="#b3vsho5j3T" opacity="1" fill="#888888" fill-opacity="1"></use></g><g><use xlink:href="#a6JNldMNR" opacity="1" fill="#888888" fill-opacity="1"></use></g><g><use xlink:href="#a3TGXZyssQ" opacity="1" fill="#888888" fill-opacity="1"></use></g><g><use xlink:href="#f1xHHKYRee" opacity="1" fill="#888888" fill-opacity="1"></use></g><g><use xlink:href="#aS8B43HJJ" opacity="1" fill="#888888" fill-opacity="1"></use></g><g><use xlink:href="#aql6zBVHv" opacity="1" fill="#888888" fill-opacity="1"></use></g><g><use xlink:href="#a16j0j8oJH" opacity="1" fill="#888888" fill-opacity="1"></use></g><g><use xlink:href="#b1B4x7mw4X" opacity="1" fill="#888888" fill-opacity="1"></use></g><g><use xlink:href="#a4MEiee0XP" opacity="1" fill="#888888" fill-opacity="1"></use></g><g><use xlink:href="#a1nZMVWe0M" opacity="1" fill="#888888" fill-opacity="1"></use></g><g><use xlink:href="#a59QiuF0F" opacity="1" fill="#888888" fill-opacity="1"></use></g><g><use xlink:href="#cZNcurTRE" opacity="1" fill="#888888" fill-opacity="1"></use></g></g></g></svg>