<?xml version="1.0" encoding="UTF-8" standalone="no"?>
<!DOCTYPE svg PUBLIC "-//W3C//DTD SVG 1.1//EN" "http://www.w3.org/Graphics/SVG/1.1/DTD/svg11.dtd">
<svg version="1.1" xmlns="http://www.w3.org/2000/svg" xmlns:xlink="http://www.w3.org/1999/xlink" preserveAspectRatio="xMidYMid meet" viewBox="0 0 640 640" width="640" height="640"><defs><path d="M290.25 73.18C335.7 73.21 372.53 107.28 372.49 149.26C372.49 150.84 372.44 152.42 372.32 153.97C405.15 160.38 429.27 181.78 429.25 207.18C429.25 207.18 429.25 207.18 429.25 207.18C429.23 237.62 394.55 262.26 351.79 262.23C332.38 262.21 177.03 262.09 157.62 262.07C114.87 262.04 80.23 237.34 80.25 206.9C80.25 206.9 80.25 206.9 80.25 206.9C80.27 180.37 106.63 158.24 141.71 153.03C144.88 124.26 171.19 101.82 203.17 101.85C210.19 101.86 216.93 102.95 223.23 104.94C238.19 85.69 262.63 73.16 290.25 73.18Z" id="d10ZkfHARA"></path><path d="M118.8 287.12C118.8 291.01 116.34 294.16 113.3 294.16C110.27 294.16 107.8 291.01 107.8 287.12C107.8 283.23 110.27 280.08 113.3 274.16C116.34 280.08 118.8 283.23 118.8 287.12Z" id="cW0IuyVru"></path><path d="M440.09 52.15C480.2 52.19 512.69 84.99 512.66 125.43C512.66 126.95 512.62 128.47 512.51 129.96C541.48 136.14 562.77 156.75 562.75 181.21C562.75 181.21 562.75 181.21 562.75 181.21C562.72 210.53 532.12 234.27 494.39 234.24C477.25 234.22 340.16 234.11 323.02 234.1C285.3 234.07 254.73 210.28 254.75 180.97C254.75 180.97 254.75 180.97 254.75 180.97C254.77 155.41 278.04 134.09 309 129.07C311.79 101.36 335.02 79.75 363.23 79.77C369.43 79.78 375.38 80.83 380.94 82.75C394.14 64.21 415.72 52.13 440.09 52.15Z" id="a1eo4g1gld"></path><path d="M139.8 315.06C139.8 319.53 137.34 323.16 134.3 323.16C131.27 323.16 128.8 319.53 128.8 315.06C128.8 310.59 131.27 306.97 134.3 300.16C137.34 306.97 139.8 310.59 139.8 315.06Z" id="a2uhczZskn"></path><path d="M153.8 282.62C153.8 286.51 151.34 289.66 148.3 289.66C145.27 289.66 142.8 286.51 142.8 282.62C142.8 278.73 145.27 275.58 148.3 269.66C151.34 275.58 153.8 278.73 153.8 282.62Z" id="ak102rH3Z"></path><path d="M162.3 358.62C162.3 362.51 159.84 365.66 156.8 365.66C153.77 365.66 151.3 362.51 151.3 358.62C151.3 354.73 153.77 351.58 156.8 345.66C159.84 351.58 162.3 354.73 162.3 358.62Z" id="f1lFyUfbI"></path><path d="M124.3 346.12C124.3 350.01 121.84 353.16 118.8 353.16C115.77 353.16 113.3 350.01 113.3 346.12C113.3 342.23 115.77 339.08 118.8 333.16C121.84 339.08 124.3 342.23 124.3 346.12Z" id="guDBFJqka"></path><path d="M177.3 315.06C177.3 319.53 174.84 323.16 171.8 323.16C168.77 323.16 166.3 319.53 166.3 315.06C166.3 310.59 168.77 306.97 171.8 300.16C174.84 306.97 177.3 310.59 177.3 315.06Z" id="d4YatpzJTU"></path><path d="M203.8 282.62C203.8 286.51 201.34 289.66 198.3 289.66C195.27 289.66 192.8 286.51 192.8 282.62C192.8 278.73 195.27 275.58 198.3 269.66C201.34 275.58 203.8 278.73 203.8 282.62Z" id="cWB6iukmE"></path><path d="M214.8 354.62C214.8 358.51 212.34 361.66 209.3 361.66C206.27 361.66 203.8 358.51 203.8 354.62C203.8 350.73 206.27 347.58 209.3 341.66C212.34 347.58 214.8 350.73 214.8 354.62Z" id="d1d55ccGAz"></path><path d="M487.72 345.23L488.58 346.79L489.35 348.22L490.01 349.56L490.55 350.85L490.96 352.1L491.21 353.35L491.3 354.62L491.21 355.88L490.96 357.07L490.55 358.17L490.01 359.15L489.35 360L488.58 360.7L487.72 361.22L486.79 361.54L485.8 361.66L484.81 361.54L483.88 361.22L483.03 360.7L482.26 360L481.6 359.15L481.05 358.17L480.65 357.07L480.39 355.88L480.3 354.62L480.39 353.35L480.65 352.1L481.05 350.85L481.6 349.56L482.26 348.22L483.03 346.79L483.88 345.23L484.81 343.53L485.8 341.66L486.79 343.53L487.72 345.23ZM463.72 316.73L464.58 318.29L465.35 319.72L466.01 321.06L466.55 322.35L466.96 323.6L467.21 324.85L467.3 326.12L467.21 327.38L466.96 328.57L466.55 329.67L466.01 330.65L465.35 331.5L464.58 332.2L463.72 332.72L462.79 333.04L461.8 333.16L460.81 333.04L459.88 332.72L459.03 332.2L458.26 331.5L457.6 330.65L457.05 329.67L456.65 328.57L456.39 327.38L456.3 326.12L456.39 324.85L456.65 323.6L457.05 322.35L457.6 321.06L458.26 319.72L459.03 318.29L459.88 316.73L460.81 315.03L461.8 313.16L462.79 315.03L463.72 316.73ZM499.04 303.89L499.83 305.54L500.55 307.06L501.19 308.49L501.74 309.85L502.19 311.16L502.52 312.45L502.73 313.74L502.8 315.06L502.73 316.38L502.52 317.62L502.19 318.78L501.74 319.84L501.19 320.79L500.55 321.59L499.83 322.25L499.04 322.74L498.2 323.05L497.3 323.16L496.41 323.05L495.56 322.74L494.78 322.25L494.05 321.59L493.41 320.79L492.86 319.84L492.42 318.78L492.08 317.62L491.88 316.38L491.8 315.06L491.88 313.74L492.08 312.45L492.42 311.16L492.86 309.85L493.41 308.49L494.05 307.06L494.78 305.54L495.56 303.89L496.41 302.11L497.3 300.16L498.2 302.11L499.04 303.89ZM534.22 302.23L535.08 303.79L535.85 305.22L536.51 306.56L537.05 307.85L537.46 309.1L537.71 310.35L537.8 311.62L537.71 312.88L537.46 314.07L537.05 315.17L536.51 316.15L535.85 317L535.08 317.7L534.22 318.22L533.29 318.54L532.3 318.66L531.31 318.54L530.38 318.22L529.53 317.7L528.76 317L528.1 316.15L527.55 315.17L527.15 314.07L526.89 312.88L526.8 311.62L526.89 310.35L527.15 309.1L527.55 307.85L528.1 306.56L528.76 305.22L529.53 303.79L530.38 302.23L531.31 300.53L532.3 298.66L533.29 300.53L534.22 302.23ZM479.04 283.89L479.83 285.54L480.55 287.06L481.19 288.49L481.74 289.85L482.19 291.16L482.52 292.45L482.73 293.74L482.8 295.06L482.73 296.38L482.52 297.62L482.19 298.78L481.74 299.84L481.19 300.79L480.55 301.59L479.83 302.25L479.04 302.74L478.2 303.05L477.3 303.16L476.41 303.05L475.56 302.74L474.78 302.25L474.05 301.59L473.41 300.79L472.86 299.84L472.42 298.78L472.08 297.62L471.88 296.38L471.8 295.06L471.88 293.74L472.08 292.45L472.42 291.16L472.86 289.85L473.41 288.49L474.05 287.06L474.78 285.54L475.56 283.89L476.41 282.11L477.3 280.16L478.2 282.11L479.04 283.89ZM513.22 273.23L514.08 274.79L514.85 276.22L515.51 277.56L516.05 278.85L516.46 280.1L516.71 281.35L516.8 282.62L516.71 283.88L516.46 285.07L516.05 286.17L515.51 287.15L514.85 288L514.08 288.7L513.22 289.22L512.29 289.54L511.3 289.66L510.31 289.54L509.38 289.22L508.53 288.7L507.76 288L507.1 287.15L506.55 286.17L506.15 285.07L505.89 283.88L505.8 282.62L505.89 281.35L506.15 280.1L506.55 278.85L507.1 277.56L507.76 276.22L508.53 274.79L509.38 273.23L510.31 271.53L511.3 269.66L512.29 271.53L513.22 273.23ZM458.22 257.73L459.08 259.29L459.85 260.72L460.51 262.06L461.05 263.35L461.46 264.6L461.71 265.85L461.8 267.12L461.71 268.38L461.46 269.57L461.05 270.67L460.51 271.65L459.85 272.5L459.08 273.2L458.22 273.72L457.29 274.04L456.3 274.16L455.31 274.04L454.38 273.72L453.53 273.2L452.76 272.5L452.1 271.65L451.55 270.67L451.15 269.57L450.89 268.38L450.8 267.12L450.89 265.85L451.15 264.6L451.55 263.35L452.1 262.06L452.76 260.72L453.53 259.29L454.38 257.73L455.31 256.03L456.3 254.16L457.29 256.03L458.22 257.73ZM493.22 253.23L494.08 254.79L494.85 256.22L495.51 257.56L496.05 258.85L496.46 260.1L496.71 261.35L496.8 262.62L496.71 263.88L496.46 265.07L496.05 266.17L495.51 267.15L494.85 268L494.08 268.7L493.22 269.22L492.29 269.54L491.3 269.66L490.31 269.54L489.38 269.22L488.53 268.7L487.76 268L487.1 267.15L486.55 266.17L486.15 265.07L485.89 263.88L485.8 262.62L485.89 261.35L486.15 260.1L486.55 258.85L487.1 257.56L487.76 256.22L488.53 254.79L489.38 253.23L490.31 251.53L491.3 249.66L492.29 251.53L493.22 253.23Z" id="cfuFoGfZU"></path><path d="M209.3 315.06C209.3 319.53 211.77 323.16 214.8 323.16C217.84 323.16 220.3 319.53 220.3 315.06C220.3 310.59 217.84 306.97 214.8 300.16C211.77 306.97 209.3 310.59 209.3 315.06Z" id="gcoidrlB"></path><path d="M248.25 297.12C248.25 301.01 245.79 304.16 242.75 304.16C239.71 304.16 237.25 301.01 237.25 297.12C237.25 293.23 239.71 290.08 242.75 284.16C245.79 290.08 248.25 293.23 248.25 297.12Z" id="d1UAETz5Ct"></path><path d="M319.17 316.73L320.03 318.29L320.79 319.72L321.46 321.06L322 322.35L322.41 323.6L322.66 324.85L322.75 326.12L322.66 327.38L322.41 328.57L322 329.67L321.46 330.65L320.79 331.5L320.03 332.2L319.17 332.72L318.24 333.04L317.25 333.16L316.26 333.04L315.33 332.72L314.47 332.2L313.71 331.5L313.04 330.65L312.5 329.67L312.09 328.57L311.84 327.38L311.75 326.12L311.84 324.85L312.09 323.6L312.5 322.35L313.04 321.06L313.71 319.72L314.47 318.29L315.33 316.73L316.26 315.03L317.25 313.16L318.24 315.03L319.17 316.73ZM324.49 275.39L325.28 277.04L326 278.56L326.64 279.99L327.19 281.35L327.64 282.66L327.97 283.95L328.18 285.24L328.25 286.56L328.18 287.88L327.97 289.12L327.64 290.28L327.19 291.34L326.64 292.29L326 293.09L325.28 293.75L324.49 294.24L323.64 294.55L322.75 294.66L321.86 294.55L321.01 294.24L320.22 293.75L319.5 293.09L318.86 292.29L318.31 291.34L317.86 290.28L317.53 289.12L317.32 287.88L317.25 286.56L317.32 285.24L317.53 283.95L317.86 282.66L318.31 281.35L318.86 279.99L319.5 278.56L320.22 277.04L321.01 275.39L321.86 273.61L322.75 271.66L323.64 273.61L324.49 275.39Z" id="d1mI2o3dsZ"></path><path d="M382.51 208.18L339.87 305.83L369.81 309.58L339.25 380.13L433.2 288.91L390.44 283.55L429.55 214.07L382.51 208.18Z" id="aipyA8xXI"></path><path d="M408.67 319.23L409.53 320.79L410.29 322.22L410.96 323.56L411.5 324.85L411.91 326.1L412.16 327.35L412.25 328.62L412.16 329.88L411.91 331.07L411.5 332.17L410.96 333.15L410.29 334L409.53 334.7L408.67 335.22L407.74 335.54L406.75 335.66L405.76 335.54L404.83 335.22L403.97 334.7L403.21 334L402.54 333.15L402 332.17L401.59 331.07L401.34 329.88L401.25 328.62L401.34 327.35L401.59 326.1L402 324.85L402.54 323.56L403.21 322.22L403.97 320.79L404.83 319.23L405.76 317.53L406.75 315.66L407.74 317.53L408.67 319.23ZM423.49 273.89L424.28 275.54L425 277.06L425.64 278.49L426.19 279.85L426.64 281.16L426.97 282.45L427.18 283.74L427.25 285.06L427.18 286.38L426.97 287.62L426.64 288.78L426.19 289.84L425.64 290.79L425 291.59L424.28 292.25L423.49 292.74L422.64 293.05L421.75 293.16L420.86 293.05L420.01 292.74L419.22 292.25L418.5 291.59L417.86 290.79L417.31 289.84L416.86 288.78L416.53 287.62L416.32 286.38L416.25 285.06L416.32 283.74L416.53 282.45L416.86 281.16L417.31 279.85L417.86 278.49L418.5 277.06L419.22 275.54L420.01 273.89L420.86 272.11L421.75 270.16L422.64 272.11L423.49 273.89ZM385.99 273.89L386.78 275.54L387.5 277.06L388.14 278.49L388.69 279.85L389.14 281.16L389.47 282.45L389.68 283.74L389.75 285.06L389.68 286.38L389.47 287.62L389.14 288.78L388.69 289.84L388.14 290.79L387.5 291.59L386.78 292.25L385.99 292.74L385.14 293.05L384.25 293.16L383.36 293.05L382.51 292.74L381.72 292.25L381 291.59L380.36 290.79L379.81 289.84L379.36 288.78L379.03 287.62L378.82 286.38L378.75 285.06L378.82 283.74L379.03 282.45L379.36 281.16L379.81 279.85L380.36 278.49L381 277.06L381.72 275.54L382.51 273.89L383.36 272.11L384.25 270.16L385.14 272.11L385.99 273.89Z" id="b6v48BCCkd"></path><path d="M428.67 339.23L429.53 340.79L430.29 342.22L430.96 343.56L431.5 344.85L431.91 346.1L432.16 347.35L432.25 348.62L432.16 349.88L431.91 351.07L431.5 352.17L430.96 353.15L430.29 354L429.53 354.7L428.67 355.22L427.74 355.54L426.75 355.66L425.76 355.54L424.83 355.22L423.97 354.7L423.21 354L422.54 353.15L422 352.17L421.59 351.07L421.34 349.88L421.25 348.62L421.34 347.35L421.59 346.1L422 344.85L422.54 343.56L423.21 342.22L423.97 340.79L424.83 339.23L425.76 337.53L426.75 335.66L427.74 337.53L428.67 339.23ZM443.49 293.89L444.28 295.54L445 297.06L445.64 298.49L446.19 299.85L446.64 301.16L446.97 302.45L447.18 303.74L447.25 305.06L447.18 306.38L446.97 307.62L446.64 308.78L446.19 309.84L445.64 310.79L445 311.59L444.28 312.25L443.49 312.74L442.64 313.05L441.75 313.16L440.86 313.05L440.01 312.74L439.22 312.25L438.5 311.59L437.86 310.79L437.31 309.84L436.86 308.78L436.53 307.62L436.32 306.38L436.25 305.06L436.32 303.74L436.53 302.45L436.86 301.16L437.31 299.85L437.86 298.49L438.5 297.06L439.22 295.54L440.01 293.89L440.86 292.11L441.75 290.16L442.64 292.11L443.49 293.89ZM405.99 293.89L406.78 295.54L407.5 297.06L408.14 298.49L408.69 299.85L409.14 301.16L409.47 302.45L409.68 303.74L409.75 305.06L409.68 306.38L409.47 307.62L409.14 308.78L408.69 309.84L408.14 310.79L407.5 311.59L406.78 312.25L405.99 312.74L405.14 313.05L404.25 313.16L403.36 313.05L402.51 312.74L401.72 312.25L401 311.59L400.36 310.79L399.81 309.84L399.36 308.78L399.03 307.62L398.82 306.38L398.75 305.06L398.82 303.74L399.03 302.45L399.36 301.16L399.81 299.85L400.36 298.49L401 297.06L401.72 295.54L402.51 293.89L403.36 292.11L404.25 290.16L405.14 292.11L405.99 293.89Z" id="d4hhR8u3cj"></path><path d="M256.2 344.62C256.2 348.51 253.19 351.66 249.47 351.66C245.76 351.66 242.75 348.51 242.75 344.62C242.75 340.73 245.76 337.58 249.47 331.66C253.19 337.58 256.2 340.73 256.2 344.62Z" id="bwxDplmnL"></path><path d="M440.09 52.15C480.2 52.19 512.69 84.99 512.66 125.43C512.66 126.95 512.62 128.47 512.51 129.96C541.48 136.14 562.77 156.75 562.75 181.21C562.75 181.21 562.75 181.21 562.75 181.21C562.72 210.53 532.12 234.27 494.39 234.24C477.25 234.22 340.16 234.11 323.02 234.1C285.3 234.07 254.73 210.28 254.75 180.97C254.75 180.97 254.75 180.97 254.75 180.97C254.77 155.41 278.04 134.09 309 129.07C311.79 101.36 335.02 79.75 363.23 79.77C369.43 79.78 375.38 80.83 380.94 82.75C394.14 64.21 415.72 52.13 440.09 52.15Z" id="aNPewyyKb"></path><path d="M382.51 208.18L339.87 305.83L369.81 309.58L339.25 380.13L433.2 288.91L390.44 283.55L429.55 214.07L382.51 208.18Z" id="b7MMxiMS5"></path><path d="M440.09 52.15C480.2 52.19 512.69 84.99 512.66 125.43C512.66 126.95 512.62 128.47 512.51 129.96C541.48 136.14 562.77 156.75 562.75 181.21C562.75 181.21 562.75 181.21 562.75 181.21C562.72 210.53 532.12 234.27 494.39 234.24C477.25 234.22 340.16 234.11 323.02 234.1C285.3 234.07 254.73 210.28 254.75 180.97C254.75 180.97 254.75 180.97 254.75 180.97C254.77 155.41 278.04 134.09 309 129.07C311.79 101.36 335.02 79.75 363.23 79.77C369.43 79.78 375.38 80.83 380.94 82.75C394.14 64.21 415.72 52.13 440.09 52.15Z" id="cl6kiwv0X"></path><path d="M290.2 312.96C290.2 316.85 287.19 320 283.47 320C279.76 320 276.75 316.85 276.75 312.96C276.75 309.08 279.76 305.93 283.47 300C287.19 305.93 290.2 309.08 290.2 312.96Z" id="a1PrFlFvK"></path><path d="M296.92 354.62C296.92 358.51 293.91 361.66 290.2 361.66C286.49 361.66 283.47 358.51 283.47 354.62C283.47 350.73 286.49 347.58 290.2 341.66C293.91 347.58 296.92 350.73 296.92 354.62Z" id="bdxKqv7a7"></path><path d="M334.97 358.62C334.97 362.51 331.96 365.66 328.25 365.66C324.54 365.66 321.53 362.51 321.53 358.62C321.53 354.73 324.54 351.58 328.25 345.66C331.96 351.58 334.97 354.73 334.97 358.62Z" id="c3LaZX1JzR"></path><path d="M566.32 263.73L567.29 265.16L568.17 266.49L568.95 267.73L569.63 268.91L570.17 270.05L570.58 271.18L570.83 272.3L570.92 273.45L570.83 274.59L570.58 275.67L570.17 276.68L569.63 277.6L568.95 278.42L568.17 279.13L567.29 279.7L566.32 280.13L565.29 280.39L564.2 280.48L563.11 280.39L562.07 280.13L561.11 279.7L560.23 279.13L559.44 278.42L558.77 277.6L558.23 276.68L557.82 275.67L557.56 274.59L557.47 273.45L557.56 272.3L557.82 271.18L558.23 270.05L558.77 268.91L559.44 267.73L560.23 266.49L561.11 265.16L562.07 263.73L563.11 262.18L564.2 260.48L565.29 262.18L566.32 263.73ZM525.6 253.73L526.56 255.16L527.45 256.49L528.23 257.73L528.9 258.91L529.45 260.05L529.86 261.18L530.11 262.3L530.2 263.45L530.11 264.59L529.86 265.67L529.45 266.68L528.9 267.6L528.23 268.42L527.45 269.13L526.56 269.7L525.6 270.13L524.57 270.39L523.47 270.48L522.38 270.39L521.35 270.13L520.38 269.7L519.5 269.13L518.72 268.42L518.05 267.6L517.5 266.68L517.09 265.67L516.84 264.59L516.75 263.45L516.84 262.3L517.09 261.18L517.5 260.05L518.05 258.91L518.72 257.73L519.5 256.49L520.38 255.16L521.35 253.73L522.38 252.18L523.47 250.48L524.57 252.18L525.6 253.73ZM559.6 222.08L560.56 223.51L561.45 224.83L562.23 226.07L562.9 227.26L563.45 228.4L563.86 229.52L564.11 230.64L564.2 231.79L564.11 232.93L563.86 234.02L563.45 235.02L562.9 235.95L562.23 236.77L561.45 237.47L560.56 238.04L559.6 238.47L558.57 238.74L557.47 238.83L556.38 238.74L555.35 238.47L554.38 238.04L553.5 237.47L552.72 236.77L552.05 235.95L551.5 235.02L551.09 234.02L550.84 232.93L550.75 231.79L550.84 230.64L551.09 229.52L551.5 228.4L552.05 227.26L552.72 226.07L553.5 224.83L554.38 223.51L555.35 222.08L556.38 220.53L557.47 218.83L558.57 220.53L559.6 222.08Z" id="aYdgymPhi"></path></defs><g><g><g><use xlink:href="#d10ZkfHARA" opacity="1" fill="#dbdbdb" fill-opacity="1"></use><g><use xlink:href="#d10ZkfHARA" opacity="1" fill-opacity="0" stroke="#7b7b7b" stroke-width="4" stroke-opacity="1"></use></g></g><g><g><use xlink:href="#cW0IuyVru" opacity="1" fill-opacity="0" stroke="#7b7b7b" stroke-width="2" stroke-opacity="1"></use></g></g><g><use xlink:href="#a1eo4g1gld" opacity="1" fill="#dbdbdb" fill-opacity="1"></use><g><use xlink:href="#a1eo4g1gld" opacity="1" fill-opacity="0" stroke="#7b7b7b" stroke-width="4" stroke-opacity="1"></use></g></g><g><g><use xlink:href="#a2uhczZskn" opacity="1" fill-opacity="0" stroke="#7b7b7b" stroke-width="2" stroke-opacity="1"></use></g></g><g><g><use xlink:href="#ak102rH3Z" opacity="1" fill-opacity="0" stroke="#7b7b7b" stroke-width="2" stroke-opacity="1"></use></g></g><g><g><use xlink:href="#f1lFyUfbI" opacity="1" fill-opacity="0" stroke="#7b7b7b" stroke-width="2" stroke-opacity="1"></use></g></g><g><g><use xlink:href="#guDBFJqka" opacity="1" fill-opacity="0" stroke="#7b7b7b" stroke-width="2" stroke-opacity="1"></use></g></g><g><g><use xlink:href="#d4YatpzJTU" opacity="1" fill-opacity="0" stroke="#7b7b7b" stroke-width="2" stroke-opacity="1"></use></g></g><g><g><use xlink:href="#cWB6iukmE" opacity="1" fill-opacity="0" stroke="#7b7b7b" stroke-width="2" stroke-opacity="1"></use></g></g><g><g><use xlink:href="#d1d55ccGAz" opacity="1" fill-opacity="0" stroke="#7b7b7b" stroke-width="2" stroke-opacity="1"></use></g></g><g><g><use xlink:href="#cfuFoGfZU" opacity="1" fill-opacity="0" stroke="#7b7b7b" stroke-width="2" stroke-opacity="1"></use></g></g><g><g><use xlink:href="#gcoidrlB" opacity="1" fill-opacity="0" stroke="#7b7b7b" stroke-width="2" stroke-opacity="1"></use></g></g><g><g><use xlink:href="#d1UAETz5Ct" opacity="1" fill-opacity="0" stroke="#7b7b7b" stroke-width="2" stroke-opacity="1"></use></g></g><g><g><use xlink:href="#d1mI2o3dsZ" opacity="1" fill-opacity="0" stroke="#7b7b7b" stroke-width="2" stroke-opacity="1"></use></g></g><g><use xlink:href="#aipyA8xXI" opacity="1" fill="#a7a7a7" fill-opacity="1"></use><g><use xlink:href="#aipyA8xXI" opacity="1" fill-opacity="0" stroke="#5a5a5a" stroke-width="3" stroke-opacity="1"></use></g></g><g><g><use xlink:href="#b6v48BCCkd" opacity="1" fill-opacity="0" stroke="#7b7b7b" stroke-width="2" stroke-opacity="1"></use></g></g><g><g><use xlink:href="#d4hhR8u3cj" opacity="1" fill-opacity="0" stroke="#7b7b7b" stroke-width="2" stroke-opacity="1"></use></g></g><g><g><use xlink:href="#bwxDplmnL" opacity="1" fill-opacity="0" stroke="#7b7b7b" stroke-width="2" stroke-opacity="1"></use></g></g><g><use xlink:href="#aNPewyyKb" opacity="1" fill="#dbdbdb" fill-opacity="1"></use><g><use xlink:href="#aNPewyyKb" opacity="1" fill-opacity="0" stroke="#7b7b7b" stroke-width="4" stroke-opacity="1"></use></g></g><g><use xlink:href="#b7MMxiMS5" opacity="1" fill="#a7a7a7" fill-opacity="1"></use><g><use xlink:href="#b7MMxiMS5" opacity="1" fill-opacity="0" stroke="#5a5a5a" stroke-width="3" stroke-opacity="1"></use></g></g><g><use xlink:href="#cl6kiwv0X" opacity="1" fill="#dbdbdb" fill-opacity="1"></use><g><use xlink:href="#cl6kiwv0X" opacity="1" fill-opacity="0" stroke="#7b7b7b" stroke-width="4" stroke-opacity="1"></use></g></g><g><g><use xlink:href="#a1PrFlFvK" opacity="1" fill-opacity="0" stroke="#7b7b7b" stroke-width="2" stroke-opacity="1"></use></g></g><g><g><use xlink:href="#bdxKqv7a7" opacity="1" fill-opacity="0" stroke="#7b7b7b" stroke-width="2" stroke-opacity="1"></use></g></g><g><g><use xlink:href="#c3LaZX1JzR" opacity="1" fill-opacity="0" stroke="#7b7b7b" stroke-width="2" stroke-opacity="1"></use></g></g><g><g><use xlink:href="#aYdgymPhi" opacity="1" fill-opacity="0" stroke="#7b7b7b" stroke-width="2" stroke-opacity="1"></use></g></g></g></g></svg>